{
.appVersion = "1352";
copyright = "Copyright 2017 The Smooch Project Authors (https://github.com/googlefonts/smooch";
customParameters = (
{
name = licenseURL;
value = "https://scripts.sil.org/OFL";
},
{
name = license;
value = "This Font Software is licensed under the SIL Open Font License, Version 1.1. This license is available with a FAQ at: https://scripts.sil.org/OFL";
},
{
name = vendorID;
value = GOOG;
},
{
name = fsType;
value = (
);
},
{
name = glyphOrder;
value = (
.notdef,
CR,
.null,
space,
nbspace
);
},
{
name = "Use Typo Metrics";
value = 1;
},
{
name = Axes;
value = (
{
Name = Weight;
Tag = wght;
}
);
}
);
date = "2021-10-25 22:45:42 +0000";
designer = "Robert E. Leuschke";
designerURL = www.typesetit.com;
disablesAutomaticAlignment = 1;
disablesNiceNames = 1;
familyName = Smooch;
featurePrefixes = (
{
automatic = 1;
code = "languagesystem DFLT dflt;\012\012languagesystem latn dflt;\012languagesystem latn AZE;\012languagesystem latn CRT;\012languagesystem latn KAZ;\012languagesystem latn TAT;\012languagesystem latn TRK;\012languagesystem latn ROM;\012languagesystem latn MOL;\012languagesystem latn CAT;\012";
name = Languagesystems;
}
);
features = (
{
automatic = 1;
code = "feature locl;\012feature sups;\012feature frac;\012feature ordn;\012feature fina;\012feature ornm;\012feature swsh;\012feature salt;\012feature ss01;\012feature ss02;\012feature ss03;\012feature ss04;\012feature ss05;\012";
name = aalt;
},
{
code = "script latn;\012sub f i by fi;\012sub f l by fl;\012sub o o by o_o;\012sub r s by r_s;\012sub t t by tt;\012";
name = liga;
},
{
automatic = 1;

glyphs = (
{
glyphname = .notdef;
lastChange = "2021-09-05 08:47:50 +0000";
layers = (
{
layerId = "B9003040-D3EC-4996-96A5-33D5E21FF9E0";
paths = (
{
closed = 1;
nodes = (
"48 0 LINE",
"469 0 LINE",
"478 8 LINE",
"478 621 LINE",
"469 630 LINE",
"48 630 LINE",
"40 620 LINE",
"40 9 LINE"
);
},
{
closed = 1;
nodes = (
"57 613 LINE",
"461 613 LINE",
"461 16 LINE",
"57 16 LINE"
);
},
{
closed = 1;
nodes = (
"92 49 LINE",
"427 49 LINE",
"427 577 LINE",
"92 577 LINE"
);
},
{
closed = 1;
nodes = (
"144 150 LINE",
"234 316 LINE",
"144 479 LINE",
"163 514 LINE",
"253 350 LINE",
"344 514 LINE",
"363 479 LINE",
"273 314 LINE",
"363 150 LINE",
"344 116 LINE",
"253 279 LINE",
"163 116 LINE"
);
}
);
width = 518;
}
);
note = .notdef;
},
{
glyphname = A;
layers = (
{
hints = (
{
horizontal = 1;
place = "{-43, 21}";
target = up;
type = BottomGhost;
},
{
horizontal = 1;
place = "{353, 50}";
type = Stem;
},
{
horizontal = 1;
place = "{596, 9}";
type = Stem;
},
{
horizontal = 1;
place = "{614, 14}";
type = Stem;
},
{
horizontal = 1;
place = "{614, 35}";
type = Stem;
},
{
place = "{487, 37}";
type = Stem;
}
);
layerId = "B9003040-D3EC-4996-96A5-33D5E21FF9E0";
paths = (
{
closed = 1;
nodes = (
"1050 591 OFFCURVE",
"1010 626 OFFCURVE",
"973 610 CURVE",
"967 614 OFFCURVE",
"959 617 OFFCURVE",
"951 620 CURVE",
"962 620 OFFCURVE",
"959 627 OFFCURVE",
"949 629 CURVE SMOOTH",
"772 664 OFFCURVE",
"624 654 OFFCURVE",
"504 607 CURVE SMOOTH",
"530 617 OFFCURVE",
"556 623 OFFCURVE",
"579 629 CURVE SMOOTH",
"668 648 OFFCURVE",
"850 655 OFFCURVE",
"951 620 CURVE",
"948 620 OFFCURVE",
"945 620 OFFCURVE",
"940 621 CURVE SMOOTH",
"658 682 OFFCURVE",
"507 608 OFFCURVE",
"386 541 CURVE",
"388 543 LINE",
"381 539 OFFCURVE",
"375 535 OFFCURVE",
"382 539 CURVE SMOOTH",
"386 541 LINE",
"368 524 OFFCURVE",
"355 505 OFFCURVE",
"348 482 CURVE SMOOTH",
"324 403 OFFCURVE",
"417 378 OFFCURVE",
"394 433 CURVE",
"413 504 OFFCURVE",
"590 564 OFFCURVE",
"622 572 CURVE SMOOTH",
"726 595 OFFCURVE",
"871 619 OFFCURVE",
"939 596 CURVE",
"845 522 LINE",
"855 522 OFFCURVE",
"909 566 OFFCURVE",
"924 576 CURVE",
"886 545 OFFCURVE",
"805 474 OFFCURVE",
"604 285 CURVE",
"514 284 OFFCURVE",
"495 248 OFFCURVE",
"575 253 CURVE",
"496 177 OFFCURVE",
"286 37 OFFCURVE",
"167 37 CURVE SMOOTH",
"129 37 OFFCURVE",
"87 51 OFFCURVE",
"87 95 CURVE SMOOTH",
"87 173 OFFCURVE",
"311 275 OFFCURVE",
"401 304 CURVE",
"300 276 OFFCURVE",
"275 268 OFFCURVE",
"235 250 CURVE",
"281 277 OFFCURVE",
"355 301 OFFCURVE",
"430 314 CURVE SMOOTH",
"480 323 OFFCURVE",
"553 374 OFFCURVE",
"373 345 CURVE SMOOTH",
"205 317 OFFCURVE",
"49 210 OFFCURVE",
"49 90 CURVE SMOOTH",
"49 4 OFFCURVE",
"130 -42 OFFCURVE",
"193 -43 CURVE",
"196 -42 OFFCURVE",
"233 -34 OFFCURVE",
"252 -28 CURVE SMOOTH",
"356 5 OFFCURVE",
"451 62 OFFCURVE",
"538 137 CURVE",
"504 104 OFFCURVE",
"467 71 OFFCURVE",
"428 44 CURVE",
"483 80 OFFCURVE",
"541 127 OFFCURVE",
"599 190 CURVE SMOOTH",
"606 197 OFFCURVE",
"617 212 OFFCURVE",
"609 204 CURVE SMOOTH",
"586 181 OFFCURVE",
"563 158 OFFCURVE",
"538 137 CURVE",
"582 178 OFFCURVE",
"621 220 OFFCURVE",
"654 255 CURVE",
"693 251 OFFCURVE",
"741 244 OFFCURVE",
"750 243 CURVE",
"749 241 OFFCURVE",
"731 192 OFFCURVE",
"724 179 CURVE",
"725 185 OFFCURVE",
"735 216 OFFCURVE",
"739 228 CURVE",
"711 165 OFFCURVE",
"701 113 OFFCURVE",
"701 74 CURVE SMOOTH",
"701 27 OFFCURVE",
"720 -22 OFFCURVE",
"760 -23 CURVE SMOOTH",
"790 -24 OFFCURVE",
"756 8 OFFCURVE",
"755 34 CURVE SMOOTH",
"754 60 OFFCURVE",
"753 105 OFFCURVE",
"819 228 CURVE",
"819 215 OFFCURVE",
"801 185 OFFCURVE",
"795 167 CURVE",
"805 184 OFFCURVE",
"821 219 OFFCURVE",
"826 225 CURVE",
"844 223 OFFCURVE",
"881 230 OFFCURVE",
"869 238 CURVE SMOOTH",
"860 244 OFFCURVE",
"859 244 OFFCURVE",
"831 253 CURVE",
"852 288 OFFCURVE",
"1047 535 OFFCURVE",
"1048 552 CURVE SMOOTH"
);
},
{
closed = 1;
nodes = (
"881 449 OFFCURVE",
"798 338 OFFCURVE",
"766 271 CURVE",
"750 273 OFFCURVE",
"687 280 OFFCURVE",
"672 280 CURVE",
"817 430 OFFCURVE",
"854 458 OFFCURVE",
"928 509 CURVE"
);
},
{
closed = 1;
nodes = (
"329 -16 OFFCURVE",
"259 -35 OFFCURVE",
"195 -43 CURVE",
"266 -43 OFFCURVE",
"334 -13 OFFCURVE",
"400 26 CURVE SMOOTH"
);
},
{
closed = 1;
nodes = (
"449 585 OFFCURVE",
"414 567 OFFCURVE",
"388 543 CURVE",
"397 549 LINE SMOOTH",
"424 569 OFFCURVE",
"453 586 OFFCURVE",
"485 600 CURVE"
);
},
{
closed = 1;
nodes = (
"407 31 LINE SMOOTH",
"414 35 OFFCURVE",
"421 39 OFFCURVE",
"428 44 CURVE"
);
},
{
closed = 1;
nodes = (
"742 233 OFFCURVE",
"741 232 OFFCURVE",
"740 229 CURVE",
"740 230 OFFCURVE",
"741 231 OFFCURVE",
"742 233 CURVE"
);
},
{
closed = 1;
nodes = (
"494 603 LINE",
"485 600 LINE"
);
}
);
width = 862;
}
);
note = A;
unicode = 0041;
},
{
glyphname = AE;
layers = (
{
hints = (
{
horizontal = 1;
place = "{-43, 21}";
target = up;
type = BottomGhost;
},
{
horizontal = 1;
place = "{353, 50}";
type = Stem;
},
{
horizontal = 1;
place = "{596, 9}";
type = Stem;
},
{
horizontal = 1;
place = "{614, 14}";
type = Stem;
},
{
horizontal = 1;
place = "{614, 35}";
type = Stem;
},
{
place = "{487, 37}";
type = Stem;
}
);
layerId = "B9003040-D3EC-4996-96A5-33D5E21FF9E0";
paths = (
{
closed = 1;
nodes = (
"1101 127 LINE SMOOTH",
"1064 108 OFFCURVE",
"998 77 OFFCURVE",
"975 71 CURVE SMOOTH",
"970 70 OFFCURVE",
"1004 88 OFFCURVE",
"1023 97 CURVE SMOOTH",
"1030 100 OFFCURVE",
"1039 104 OFFCURVE",
"1048 109 CURVE",
"955 68 OFFCURVE",
"866 50 OFFCURVE",
"836 73 CURVE",
"833 102 OFFCURVE",
"985 171 OFFCURVE",
"1077 196 CURVE SMOOTH",
"1092 200 OFFCURVE",
"1144 243 OFFCURVE",
"1119 250 CURVE SMOOTH",
"1055 269 OFFCURVE",
"957 293 OFFCURVE",
"902 324 CURVE SMOOTH",
"896 327 OFFCURVE",
"893 332 OFFCURVE",
"893 338 CURVE",
"955 420 LINE",
"978 439 OFFCURVE",
"1003 455 OFFCURVE",
"1026 464 CURVE SMOOTH",
"1172 526 OFFCURVE",
"1328 548 OFFCURVE",
"1439 550 CURVE SMOOTH",
"1500 551 OFFCURVE",
"1535 546 OFFCURVE",
"1458 488 CURVE SMOOTH",
"1389 436 OFFCURVE",
"1257 369 OFFCURVE",
"1181 363 CURVE SMOOTH",
"1128 360 OFFCURVE",
"1204 425 OFFCURVE",
"1219 438 CURVE SMOOTH",
"1264 475 OFFCURVE",
"1254 478 OFFCURVE",
"1239 473 CURVE SMOOTH",
"1175 452 OFFCURVE",
"1128 393 OFFCURVE",
"1119 380 CURVE SMOOTH",
"1102 356 OFFCURVE",
"1148 300 OFFCURVE",
"1158 293 CURVE",
"1220 290 OFFCURVE",
"1378 376 OFFCURVE",
"1427 418 CURVE",
"1471 410 OFFCURVE",
"1580 499 OFFCURVE",
"1590 545 CURVE SMOOTH",
"1593 562 OFFCURVE",
"1564 594 OFFCURVE",
"1560 589 CURVE SMOOTH",
"1555 582 OFFCURVE",
"1556 576 OFFCURVE",
"1550 567 CURVE SMOOTH",
"1545 558 OFFCURVE",
"1536 548 OFFCURVE",
"1530 545 CURVE",
"1538 557 OFFCURVE",
"1564 580 OFFCURVE",
"1542 627 CURVE",
"1466 659 OFFCURVE",
"1294 627 OFFCURVE",
"1134 575 CURVE SMOOTH",
"1104 565 OFFCURVE",
"1076 557 OFFCURVE",
"1047 548 CURVE",
"1048 550 OFFCURVE",
"1048 551 OFFCURVE",
"1048 552 CURVE SMOOTH",
"1050 591 OFFCURVE",
"1010 626 OFFCURVE",
"973 610 CURVE",
"967 614 OFFCURVE",
"959 617 OFFCURVE",
"951 620 CURVE",
"962 620 OFFCURVE",
"959 627 OFFCURVE",
"949 629 CURVE SMOOTH",
"773 664 OFFCURVE",
"624 654 OFFCURVE",
"504 607 CURVE SMOOTH",
"530 617 OFFCURVE",
"556 623 OFFCURVE",
"579 629 CURVE SMOOTH",
"668 648 OFFCURVE",
"850 655 OFFCURVE",
"951 620 CURVE",
"948 620 OFFCURVE",
"945 620 OFFCURVE",
"940 621 CURVE SMOOTH",
"658 682 OFFCURVE",
"507 608 OFFCURVE",
"386 541 CURVE",
"388 543 LINE",
"381 539 OFFCURVE",
"375 535 OFFCURVE",
"382 539 CURVE SMOOTH",
"386 541 LINE",
"368 524 OFFCURVE",
"355 505 OFFCURVE",
"348 482 CURVE SMOOTH",
"324 403 OFFCURVE",
"417 378 OFFCURVE",
"394 433 CURVE",
"413 504 OFFCURVE",
"590 564 OFFCURVE",
"622 572 CURVE SMOOTH",
"726 594 OFFCURVE",
"871 619 OFFCURVE",
"939 596 CURVE",
"845 522 LINE",
"855 522 OFFCURVE",
"909 566 OFFCURVE",
"924 576 CURVE",
"886 545 OFFCURVE",
"805 474 OFFCURVE",
"604 285 CURVE",
"514 284 OFFCURVE",
"495 248 OFFCURVE",
"575 253 CURVE",
"496 177 OFFCURVE",
"286 37 OFFCURVE",
"167 37 CURVE SMOOTH",
"129 37 OFFCURVE",
"87 51 OFFCURVE",
"87 95 CURVE SMOOTH",
"87 173 OFFCURVE",
"311 275 OFFCURVE",
"401 304 CURVE",
"300 276 OFFCURVE",
"275 268 OFFCURVE",
"235 250 CURVE",
"281 277 OFFCURVE",
"355 301 OFFCURVE",
"430 314 CURVE SMOOTH",
"480 323 OFFCURVE",
"553 374 OFFCURVE",
"373 345 CURVE SMOOTH",
"205 317 OFFCURVE",
"49 210 OFFCURVE",
"49 90 CURVE SMOOTH",
"49 4 OFFCURVE",
"130 -42 OFFCURVE",
"193 -43 CURVE",
"196 -42 OFFCURVE",
"233 -34 OFFCURVE",
"252 -28 CURVE SMOOTH",
"356 5 OFFCURVE",
"451 62 OFFCURVE",
"538 137 CURVE",
"501 102 OFFCURVE",
"461 66 OFFCURVE",
"419 38 CURVE",
"476 75 OFFCURVE",
"537 123 OFFCURVE",
"599 190 CURVE SMOOTH",
"606 197 OFFCURVE",
"617 212 OFFCURVE",
"609 204 CURVE SMOOTH",
"586 181 OFFCURVE",
"563 158 OFFCURVE",
"538 137 CURVE",
"582 178 OFFCURVE",
"621 220 OFFCURVE",
"654 255 CURVE",
"693 251 OFFCURVE",
"741 244 OFFCURVE",
"750 243 CURVE",
"749 241 OFFCURVE",
"731 192 OFFCURVE",
"724 179 CURVE",
"725 185 OFFCURVE",
"735 216 OFFCURVE",
"739 228 CURVE",
"711 165 OFFCURVE",
"701 113 OFFCURVE",
"701 74 CURVE SMOOTH",
"701 27 OFFCURVE",
"720 -22 OFFCURVE",
"760 -23 CURVE SMOOTH",
"768 -24 OFFCURVE",
"771 -22 OFFCURVE",
"772 -18 CURVE",
"804 -32 OFFCURVE",
"843 -29 OFFCURVE",
"898 -14 CURVE SMOOTH",
"1051 27 OFFCURVE",
"1268 150 OFFCURVE",
"1360 235 CURVE SMOOTH",
"1393 265 OFFCURVE",
"1393 281 OFFCURVE",
"1359 263 CURVE SMOOTH",
"1332 248 OFFCURVE",
"1276 218 OFFCURVE",
"1211 186 CURVE",
"1268 217 OFFCURVE",
"1318 247 OFFCURVE",
"1330 258 CURVE",
"1296 240 OFFCURVE",
"1130 150 OFFCURVE",
"1106 138 CURVE SMOOTH",
"1093 131 LINE",
"1211 186 LINE"
);
},
{
closed = 1;
nodes = (
"881 449 OFFCURVE",
"798 338 OFFCURVE",
"766 271 CURVE",
"750 273 OFFCURVE",
"687 280 OFFCURVE",
"672 280 CURVE",
"817 430 OFFCURVE",
"854 458 OFFCURVE",
"928 509 CURVE"
);
},
{
closed = 1;
nodes = (
"954 225 OFFCURVE",
"929 218 OFFCURVE",
"911 209 CURVE",
"880 202 OFFCURVE",
"836 189 OFFCURVE",
"792 166 CURVE",
"802 189 OFFCURVE",
"815 216 OFFCURVE",
"831 247 CURVE SMOOTH",
"838 260 OFFCURVE",
"849 277 OFFCURVE",
"863 297 CURVE",
"873 254 OFFCURVE",
"937 240 OFFCURVE",
"975 235 CURVE"
);
},
{
closed = 1;
nodes = (
"1489 627 OFFCURVE",
"1490 619 OFFCURVE",
"1462 620 CURVE SMOOTH",
"1377 621 OFFCURVE",
"1206 588 OFFCURVE",
"1065 544 CURVE",
"1092 555 OFFCURVE",
"1128 567 OFFCURVE",
"1157 575 CURVE SMOOTH",
"1284 612 OFFCURVE",
"1400 629 OFFCURVE",
"1474 627 CURVE SMOOTH"
);
},
{
closed = 1;
nodes = (
"266 -43 OFFCURVE",
"334 -13 OFFCURVE",
"400 26 CURVE SMOOTH",
"329 -16 OFFCURVE",
"259 -35 OFFCURVE",
"195 -43 CURVE"
);
},
{
closed = 1;
nodes = (
"983 226 OFFCURVE",
"922 207 OFFCURVE",
"878 195 CURVE",
"895 202 OFFCURVE",
"915 208 OFFCURVE",
"933 214 CURVE SMOOTH",
"959 220 OFFCURVE",
"963 226 OFFCURVE",
"980 228 CURVE SMOOTH",
"988 229 OFFCURVE",
"1020 230 OFFCURVE",
"1005 228 CURVE SMOOTH"
);
},
{
closed = 1;
nodes = (
"834 178 OFFCURVE",
"809 166 OFFCURVE",
"785 150 CURVE",
"788 157 LINE",
"810 170 OFFCURVE",
"835 182 OFFCURVE",
"860 189 CURVE"
);
},
{
closed = 1;
nodes = (
"460 590 OFFCURVE",
"418 570 OFFCURVE",
"388 543 CURVE",
"397 549 LINE SMOOTH",
"428 571 OFFCURVE",
"463 591 OFFCURVE",
"501 606 CURVE"
);
},
{
closed = 1;
nodes = (
"1075 123 OFFCURVE",
"1061 116 OFFCURVE",
"1048 109 CURVE",
"1063 116 OFFCURVE",
"1078 123 OFFCURVE",
"1093 131 CURVE"
);
},
{
closed = 1;
nodes = (
"1053 543 LINE",
"1049 541 OFFCURVE",
"1045 540 OFFCURVE",
"1042 538 CURVE",
"1043 540 LINE"
);
},
{
closed = 1;
nodes = (
"400 26 LINE",
"419 38 LINE"
);
},
{
closed = 1;
nodes = (
"742 233 OFFCURVE",
"741 232 OFFCURVE",
"740 229 CURVE",
"740 230 OFFCURVE",
"741 231 OFFCURVE",
"742 233 CURVE"
);
}
);
width = 1296;
}
);
note = AE;
unicode = 00C6;
},
{
glyphname = B;
layers = (
{
hints = (
{
horizontal = 1;
place = "{-33, 64}";
type = Stem;
},
{
horizontal = 1;
place = "{204, 26}";
type = Stem;
},
{
horizontal = 1;
place = "{581, 53}";
type = Stem;
},
{
horizontal = 1;
place = "{639, 8}";
type = Stem;
},
{
place = "{20, 43}";
type = Stem;
},
{
place = "{193, 32}";
type = Stem;
},
{
place = "{378, 16}";
type = Stem;
},
{
place = "{835, 37}";
type = Stem;
}
);
layerId = "B9003040-D3EC-4996-96A5-33D5E21FF9E0";
paths = (
{
closed = 1;
nodes = (
"865 437 LINE",
"893 469 OFFCURVE",
"898 496 OFFCURVE",
"872 531 CURVE",
"872 634 OFFCURVE",
"747 653 OFFCURVE",
"632 647 CURVE SMOOTH",
"542 642 OFFCURVE",
"447 621 OFFCURVE",
"359 593 CURVE",
"475 629 OFFCURVE",
"585 641 OFFCURVE",
"674 640 CURVE SMOOTH",
"689 640 OFFCURVE",
"713 635 OFFCURVE",
"684 635 CURVE SMOOTH",
"531 634 OFFCURVE",
"385 608 OFFCURVE",
"208 529 CURVE",
"247 550 OFFCURVE",
"290 570 OFFCURVE",
"336 585 CURVE SMOOTH",
"263 561 OFFCURVE",
"188 530 OFFCURVE",
"115 489 CURVE SMOOTH",
"106 484 OFFCURVE",
"94 474 OFFCURVE",
"104 479 CURVE SMOOTH",
"140 498 OFFCURVE",
"174 514 OFFCURVE",
"208 529 CURVE",
"107 477 OFFCURVE",
"35 414 OFFCURVE",
"23 356 CURVE SMOOTH",
"14 312 OFFCURVE",
"44 275 OFFCURVE",
"69 256 CURVE SMOOTH",
"74 253 OFFCURVE",
"81 250 OFFCURVE",
"86 250 CURVE SMOOTH",
"89 250 OFFCURVE",
"91 253 OFFCURVE",
"91 255 CURVE",
"94 268 OFFCURVE",
"72 285 OFFCURVE",
"77 309 CURVE SMOOTH",
"85 348 OFFCURVE",
"112 378 OFFCURVE",
"144 403 CURVE SMOOTH",
"279 507 OFFCURVE",
"476 573 OFFCURVE",
"631 581 CURVE SMOOTH",
"699 585 OFFCURVE",
"778 573 OFFCURVE",
"819 549 CURVE SMOOTH",
"843 535 OFFCURVE",
"838 516 OFFCURVE",
"822 500 CURVE SMOOTH",
"744 422 OFFCURVE",
"543 290 OFFCURVE",
"355 235 CURVE",
"346 234 OFFCURVE",
"341 228 OFFCURVE",
"339 220 CURVE SMOOTH",
"338 211 OFFCURVE",
"340 206 OFFCURVE",
"348 204 CURVE",
"444 209 OFFCURVE",
"503 200 OFFCURVE",
"498 177 CURVE SMOOTH",
"485 107 OFFCURVE",
"335 35 OFFCURVE",
"247 31 CURVE SMOOTH",
"235 31 OFFCURVE",
"202 31 OFFCURVE",
"252 65 CURVE SMOOTH",
"303 100 OFFCURVE",
"393 138 OFFCURVE",
"438 150 CURVE",
"447 154 OFFCURVE",
"461 170 OFFCURVE",
"452 170 CURVE SMOOTH",
"387 166 OFFCURVE",
"183 86 OFFCURVE",
"169 24 CURVE SMOOTH",
"161 -15 OFFCURVE",
"206 -33 OFFCURVE",
"239 -32 CURVE SMOOTH",
"385 -27 OFFCURVE",
"558 69 OFFCURVE",
"571 136 CURVE SMOOTH",
"583 197 OFFCURVE",
"487 231 OFFCURVE",
"436 231 CURVE",
"499 247 OFFCURVE",
"566 265 OFFCURVE",
"630 289 CURVE",
"613 280 OFFCURVE",
"597 274 OFFCURVE",
"588 271 CURVE SMOOTH",
"569 265 OFFCURVE",
"535 253 OFFCURVE",
"539 253 CURVE SMOOTH",
"562 255 OFFCURVE",
"653 291 OFFCURVE",
"688 310 CURVE SMOOTH",
"704 319 LINE",
"681 308 OFFCURVE",
"656 299 OFFCURVE",
"632 290 CURVE",
"692 321 LINE SMOOTH",
"715 333 OFFCURVE",
"839 416 OFFCURVE",
"867 440 CURVE"
);
},
{
closed = 1;
nodes = (
"504 471 OFFCURVE",
"425 519 OFFCURVE",
"410 513 CURVE",
"410 513 OFFCURVE",
"398 499 OFFCURVE",
"383 480 CURVE SMOOTH",
"373 468 OFFCURVE",
"377 462 OFFCURVE",
"394 471 CURVE",
"318 379 OFFCURVE",
"54 83 OFFCURVE",
"23 -8 CURVE SMOOTH",
"16 -32 OFFCURVE",
"22 -58 OFFCURVE",
"56 -86 CURVE",
"82 -35 OFFCURVE",
"144 38 OFFCURVE",
"188 92 CURVE SMOOTH",
"197 102 OFFCURVE",
"198 111 OFFCURVE",
"176 86 CURVE SMOOTH",
"91 -15 LINE SMOOTH",
"86 -20 OFFCURVE",
"82 -24 OFFCURVE",
"79 -28 CURVE SMOOTH",
"174 122 OFFCURVE",
"382 341 OFFCURVE",
"494 450 CURVE"
);
},
{
closed = 1;
nodes = (
"835 408 LINE",
"806 383 OFFCURVE",
"762 352 OFFCURVE",
"715 325 CURVE",
"747 342 OFFCURVE",
"776 359 OFFCURVE",
"802 380 CURVE SMOOTH"
);
},
{
closed = 1;
nodes = (
"846 418 OFFCURVE",
"857 428 OFFCURVE",
"865 437 CURVE SMOOTH",
"859 430 OFFCURVE",
"849 420 OFFCURVE",
"835 408 CURVE"
);
},
{
closed = 1;
nodes = (
"345 588 OFFCURVE",
"340 587 OFFCURVE",
"336 585 CURVE",
"340 587 OFFCURVE",
"345 588 OFFCURVE",
"350 590 CURVE"
);
}
);
width = 679;
}
);
note = B;
unicode = 0042;
},
{
glyphname = C;
layers = (
{
hints = (
{
horizontal = 1;
place = "{-29, 92}";
type = Stem;
},
{
horizontal = 1;
place = "{285, 72}";
type = Stem;
},
{
horizontal = 1;
place = "{579, 63}";
type = Stem;
},
{
horizontal = 1;
place = "{647, 14}";
type = Stem;
},
{
place = "{17, 85}";
type = Stem;
},
{
place = "{782, 31}";
type = Stem;
},
{
horizontal = 1;
place = "{14, 49}";
type = Stem;
}
);
layerId = "B9003040-D3EC-4996-96A5-33D5E21FF9E0";
paths = (
{
closed = 1;
nodes = (
"509 169 OFFCURVE",
"475 149 OFFCURVE",
"444 133 CURVE SMOOTH",
"409 113 OFFCURVE",
"327 78 OFFCURVE",
"294 79 CURVE SMOOTH",
"289 79 OFFCURVE",
"347 96 OFFCURVE",
"366 105 CURVE SMOOTH",
"380 112 OFFCURVE",
"401 120 OFFCURVE",
"426 132 CURVE SMOOTH",
"113 -6 OFFCURVE",
"64 84 OFFCURVE",
"125 214 CURVE SMOOTH",
"234 446 OFFCURVE",
"526 552 OFFCURVE",
"718 579 CURVE SMOOTH",
"778 587 OFFCURVE",
"813 564 OFFCURVE",
"745 500 CURVE SMOOTH",
"685 444 OFFCURVE",
"566 368 OFFCURVE",
"493 357 CURVE SMOOTH",
"441 350 OFFCURVE",
"506 421 OFFCURVE",
"519 434 CURVE SMOOTH",
"557 474 OFFCURVE",
"547 476 OFFCURVE",
"533 470 CURVE SMOOTH",
"472 445 OFFCURVE",
"436 383 OFFCURVE",
"429 370 CURVE SMOOTH",
"416 344 OFFCURVE",
"469 292 OFFCURVE",
"480 285 CURVE",
"542 287 OFFCURVE",
"684 384 OFFCURVE",
"726 429 CURVE",
"770 424 OFFCURVE",
"863 520 OFFCURVE",
"866 566 CURVE SMOOTH",
"867 584 OFFCURVE",
"833 613 OFFCURVE",
"830 608 CURVE SMOOTH",
"827 601 OFFCURVE",
"828 595 OFFCURVE",
"824 586 CURVE SMOOTH",
"820 577 OFFCURVE",
"813 566 OFFCURVE",
"807 562 CURVE",
"814 575 OFFCURVE",
"822 607 OFFCURVE",
"792 653 CURVE",
"714 679 OFFCURVE",
"545 645 OFFCURVE",
"398 575 CURVE SMOOTH",
"352 554 OFFCURVE",
"285 522 OFFCURVE",
"241 497 CURVE SMOOTH",
"232 492 OFFCURVE",
"241 492 OFFCURVE",
"250 497 CURVE SMOOTH",
"273 510 OFFCURVE",
"299 523 OFFCURVE",
"325 535 CURVE",
"225 479 OFFCURVE",
"144 419 OFFCURVE",
"74 306 CURVE SMOOTH",
"1 189 OFFCURVE",
"-23 47 OFFCURVE",
"139 14 CURVE",
"127 14 OFFCURVE",
"117 9 OFFCURVE",
"114 1 CURVE SMOOTH",
"108 -14 OFFCURVE",
"129 -25 OFFCURVE",
"156 -28 CURVE SMOOTH",
"178 -31 OFFCURVE",
"228 -28 OFFCURVE",
"248 -18 CURVE",
"252 -15 OFFCURVE",
"256 -13 OFFCURVE",
"255 -8 CURVE",
"402 33 OFFCURVE",
"607 155 OFFCURVE",
"691 239 CURVE SMOOTH",
"721 270 OFFCURVE",
"720 285 OFFCURVE",
"688 267 CURVE SMOOTH",
"635 237 OFFCURVE",
"587 211 OFFCURVE",
"542 188 CURVE",
"598 220 OFFCURVE",
"648 251 OFFCURVE",
"659 262 CURVE",
"627 245 OFFCURVE",
"471 156 OFFCURVE",
"448 143 CURVE SMOOTH",
"426 132 LINE",
"461 148 OFFCURVE",
"500 166 OFFCURVE",
"542 188 CURVE"
);
},
{
closed = 1;
nodes = (
"637 642 OFFCURVE",
"465 597 OFFCURVE",
"336 537 CURVE",
"361 551 OFFCURVE",
"394 567 OFFCURVE",
"420 579 CURVE SMOOTH",
"537 630 OFFCURVE",
"667 644 OFFCURVE",
"725 648 CURVE SMOOTH",
"740 649 OFFCURVE",
"759 642 OFFCURVE",
"731 642 CURVE SMOOTH"
);
}
);
width = 626;
}
);
note = C;
unicode = 0043;
},
{
glyphname = D;
layers = (
{
hints = (
{
horizontal = 1;
place = "{-33, 64}";
type = Stem;
},
{
horizontal = 1;
place = "{581, 53}";
type = Stem;
},
{
horizontal = 1;
place = "{639, 8}";
type = Stem;
},
{
place = "{20, 43}";
type = Stem;
},
{
place = "{193, 32}";
type = Stem;
},
{
place = "{378, 16}";
type = Stem;
},
{
place = "{822, 67}";
type = Stem;
}
);
layerId = "B9003040-D3EC-4996-96A5-33D5E21FF9E0";
paths = (
{
closed = 1;
nodes = (
"832 332 OFFCURVE",
"783 268 OFFCURVE",
"716 204 CURVE",
"847 326 OFFCURVE",
"926 462 OFFCURVE",
"872 531 CURVE",
"872 634 OFFCURVE",
"747 653 OFFCURVE",
"632 647 CURVE SMOOTH",
"543 642 OFFCURVE",
"449 622 OFFCURVE",
"360 594 CURVE",
"476 629 OFFCURVE",
"586 641 OFFCURVE",
"674 640 CURVE SMOOTH",
"689 640 OFFCURVE",
"713 635 OFFCURVE",
"684 635 CURVE SMOOTH",
"531 634 OFFCURVE",
"385 608 OFFCURVE",
"208 529 CURVE",
"251 552 OFFCURVE",
"298 573 OFFCURVE",
"349 590 CURVE SMOOTH",
"273 565 OFFCURVE",
"193 533 OFFCURVE",
"115 489 CURVE SMOOTH",
"106 484 OFFCURVE",
"94 474 OFFCURVE",
"104 479 CURVE SMOOTH",
"140 498 OFFCURVE",
"174 514 OFFCURVE",
"208 529 CURVE",
"107 476 OFFCURVE",
"35 413 OFFCURVE",
"23 356 CURVE SMOOTH",
"14 312 OFFCURVE",
"44 275 OFFCURVE",
"69 256 CURVE SMOOTH",
"74 253 OFFCURVE",
"81 250 OFFCURVE",
"86 250 CURVE SMOOTH",
"89 250 OFFCURVE",
"91 253 OFFCURVE",
"91 255 CURVE",
"94 268 OFFCURVE",
"72 285 OFFCURVE",
"77 309 CURVE SMOOTH",
"85 348 OFFCURVE",
"112 378 OFFCURVE",
"144 403 CURVE SMOOTH",
"279 507 OFFCURVE",
"476 573 OFFCURVE",
"631 581 CURVE SMOOTH",
"699 585 OFFCURVE",
"778 573 OFFCURVE",
"819 549 CURVE SMOOTH",
"858 526 OFFCURVE",
"573 44 OFFCURVE",
"247 31 CURVE SMOOTH",
"235 31 OFFCURVE",
"202 31 OFFCURVE",
"252 65 CURVE SMOOTH",
"303 100 OFFCURVE",
"393 138 OFFCURVE",
"438 150 CURVE",
"447 154 OFFCURVE",
"461 170 OFFCURVE",
"452 170 CURVE SMOOTH",
"387 166 OFFCURVE",
"183 86 OFFCURVE",
"169 24 CURVE SMOOTH",
"161 -15 OFFCURVE",
"206 -33 OFFCURVE",
"239 -32 CURVE SMOOTH",
"285 -30 OFFCURVE",
"334 -20 OFFCURVE",
"383 -3 CURVE",
"369 -11 OFFCURVE",
"361 -15 OFFCURVE",
"364 -14 CURVE SMOOTH",
"399 2 OFFCURVE",
"558 66 OFFCURVE",
"611 111 CURVE SMOOTH",
"637 133 OFFCURVE",
"662 155 OFFCURVE",
"685 176 CURVE SMOOTH",
"597 100 OFFCURVE",
"488 33 OFFCURVE",
"383 -3 CURVE",
"401 7 OFFCURVE",
"429 23 OFFCURVE",
"458 38 CURVE SMOOTH",
"489 55 OFFCURVE",
"564 89 OFFCURVE",
"615 133 CURVE SMOOTH",
"649 163 OFFCURVE",
"802 279 OFFCURVE",
"875 426 CURVE"
);
},
{
closed = 1;
nodes = (
"504 471 OFFCURVE",
"425 519 OFFCURVE",
"410 513 CURVE",
"410 513 OFFCURVE",
"398 499 OFFCURVE",
"383 480 CURVE SMOOTH",
"373 468 OFFCURVE",
"377 462 OFFCURVE",
"394 471 CURVE",
"318 379 OFFCURVE",
"54 83 OFFCURVE",
"23 -8 CURVE SMOOTH",
"16 -32 OFFCURVE",
"22 -58 OFFCURVE",
"56 -86 CURVE",
"82 -35 OFFCURVE",
"144 38 OFFCURVE",
"188 92 CURVE SMOOTH",
"197 102 OFFCURVE",
"198 111 OFFCURVE",
"176 86 CURVE SMOOTH",
"91 -15 LINE",
"79 -29 LINE",
"175 122 OFFCURVE",
"382 341 OFFCURVE",
"494 450 CURVE"
);
},
{
closed = 1;
nodes = (
"685 176 LINE",
"703 192 LINE"
);
},
{
closed = 1;
nodes = (
"709 198 LINE",
"716 204 LINE"
);
},
{
closed = 1;
nodes = (
"703 192 LINE",
"709 198 LINE"
);
},
{
closed = 1;
nodes = (
"349 590 LINE",
"360 594 LINE"
);
}
);
width = 733;
}
);
note = D;
unicode = 0044;
},
{
glyphname = Eth;
layers = (
{
hints = (
{
horizontal = 1;
place = "{-33, 64}";
type = Stem;
},
{
horizontal = 1;
place = "{581, 53}";
type = Stem;
},
{
horizontal = 1;
place = "{639, 8}";
type = Stem;
},
{
place = "{20, 43}";
type = Stem;
},
{
place = "{193, 32}";
type = Stem;
},
{
place = "{378, 16}";
type = Stem;
},
{
place = "{822, 67}";
type = Stem;
}
);
layerId = "B9003040-D3EC-4996-96A5-33D5E21FF9E0";
paths = (
{
closed = 1;
nodes = (
"832 332 OFFCURVE",
"783 268 OFFCURVE",
"716 204 CURVE",
"847 326 OFFCURVE",
"926 462 OFFCURVE",
"872 531 CURVE",
"872 634 OFFCURVE",
"747 653 OFFCURVE",
"632 647 CURVE SMOOTH",
"543 642 OFFCURVE",
"449 622 OFFCURVE",
"360 594 CURVE",
"476 629 OFFCURVE",
"586 641 OFFCURVE",
"674 640 CURVE SMOOTH",
"689 640 OFFCURVE",
"713 635 OFFCURVE",
"684 635 CURVE SMOOTH",
"531 634 OFFCURVE",
"383 612 OFFCURVE",
"208 529 CURVE SMOOTH",
"244 547 OFFCURVE",
"282 566 OFFCURVE",
"325 581 CURVE",
"256 558 OFFCURVE",
"184 528 OFFCURVE",
"115 489 CURVE SMOOTH",
"106 484 OFFCURVE",
"94 474 OFFCURVE",
"104 479 CURVE SMOOTH",
"133 494 OFFCURVE",
"162 507 OFFCURVE",
"190 520 CURVE",
"97 473 OFFCURVE",
"34 409 OFFCURVE",
"23 356 CURVE SMOOTH",
"14 312 OFFCURVE",
"44 275 OFFCURVE",
"69 256 CURVE SMOOTH",
"74 253 OFFCURVE",
"81 250 OFFCURVE",
"86 250 CURVE SMOOTH",
"89 250 OFFCURVE",
"91 253 OFFCURVE",
"91 255 CURVE",
"94 268 OFFCURVE",
"72 285 OFFCURVE",
"77 309 CURVE SMOOTH",
"85 348 OFFCURVE",
"112 378 OFFCURVE",
"144 403 CURVE SMOOTH",
"279 507 OFFCURVE",
"476 573 OFFCURVE",
"631 581 CURVE SMOOTH",
"699 585 OFFCURVE",
"778 573 OFFCURVE",
"819 549 CURVE SMOOTH",
"858 526 OFFCURVE",
"573 44 OFFCURVE",
"247 31 CURVE SMOOTH",
"235 31 OFFCURVE",
"202 31 OFFCURVE",
"252 65 CURVE SMOOTH",
"303 100 OFFCURVE",
"393 138 OFFCURVE",
"438 150 CURVE",
"447 154 OFFCURVE",
"461 170 OFFCURVE",
"452 170 CURVE SMOOTH",
"387 166 OFFCURVE",
"183 86 OFFCURVE",
"169 24 CURVE SMOOTH",
"161 -15 OFFCURVE",
"206 -33 OFFCURVE",
"239 -32 CURVE SMOOTH",
"285 -30 OFFCURVE",
"334 -20 OFFCURVE",
"383 -3 CURVE",
"369 -11 OFFCURVE",
"361 -15 OFFCURVE",
"364 -14 CURVE SMOOTH",
"399 2 OFFCURVE",
"558 66 OFFCURVE",
"611 111 CURVE SMOOTH",
"695 185 LINE",
"605 105 OFFCURVE",
"492 35 OFFCURVE",
"383 -3 CURVE",
"401 7 OFFCURVE",
"429 23 OFFCURVE",
"458 38 CURVE SMOOTH",
"489 55 OFFCURVE",
"564 89 OFFCURVE",
"615 133 CURVE SMOOTH",
"649 163 OFFCURVE",
"802 279 OFFCURVE",
"875 426 CURVE"
);
},
{
closed = 1;
nodes = (
"295 202 OFFCURVE",
"275 198 OFFCURVE",
"254 196 CURVE",
"340 294 OFFCURVE",
"432 389 OFFCURVE",
"494 450 CURVE",
"504 471 OFFCURVE",
"425 519 OFFCURVE",
"410 513 CURVE",
"410 513 OFFCURVE",
"398 499 OFFCURVE",
"383 480 CURVE SMOOTH",
"373 468 OFFCURVE",
"377 462 OFFCURVE",
"394 471 CURVE",
"351 418 OFFCURVE",
"246 299 OFFCURVE",
"158 189 CURVE",
"136 189 OFFCURVE",
"114 190 OFFCURVE",
"93 191 CURVE",
"78 203 OFFCURVE",
"74 200 OFFCURVE",
"48 200 CURVE SMOOTH",
"-19 200 OFFCURVE",
"6 134 OFFCURVE",
"21 132 CURVE",
"35 132 OFFCURVE",
"70 131 OFFCURVE",
"114 133 CURVE",
"69 73 OFFCURVE",
"34 21 OFFCURVE",
"23 -8 CURVE SMOOTH",
"16 -32 OFFCURVE",
"22 -58 OFFCURVE",
"56 -86 CURVE",
"82 -35 OFFCURVE",
"144 38 OFFCURVE",
"188 92 CURVE SMOOTH",
"197 102 OFFCURVE",
"198 111 OFFCURVE",
"176 86 CURVE SMOOTH",
"91 -15 LINE",
"79 -29 LINE",
"112 23 OFFCURVE",
"158 83 OFFCURVE",
"209 143 CURVE",
"238 149 OFFCURVE",
"268 156 OFFCURVE",
"298 167 CURVE SMOOTH",
"325 176 OFFCURVE",
"348 213 OFFCURVE",
"316 206 CURVE SMOOTH"
);
},
{
closed = 1;
nodes = (
"332 584 LINE",
"325 581 LINE"
);
},
{
closed = 1;
nodes = (
"349 590 LINE",
"360 594 LINE"
);
},
{
closed = 1;
nodes = (
"705 194 OFFCURVE",
"703 192 OFFCURVE",
"701 191 CURVE",
"703 192 OFFCURVE",
"705 194 OFFCURVE",
"707 196 CURVE"
);
},
{
closed = 1;
nodes = (
"699 188 OFFCURVE",
"697 187 OFFCURVE",
"695 185 CURVE",
"697 187 OFFCURVE",
"699 188 OFFCURVE",
"700 190 CURVE"
);
}
);
width = 733;
}
);
note = Eth;
unicode = 00D0;
},
{
glyphname = E;
layers = (
{
hints = (
{
horizontal = 1;
place = "{-49, 112}";
type = Stem;
},
{
horizontal = 1;
place = "{292, 71}";
type = Stem;
},
{
horizontal = 1;
place = "{549, 90}";
type = Stem;
},
{
place = "{75, 90}";
type = Stem;
},
{
place = "{444, 48}";
type = Stem;
},
{
place = "{831, 49}";
type = Stem;
},
{
place = "{334, 115}";
type = Stem;
},
{
horizontal = 1;
place = "{549, 70}";
type = Stem;
},
{
horizontal = 1;
place = "{627, 12}";
type = Stem;
},
{
place = "{113, 77}";
type = Stem;
},
{
horizontal = 1;
place = "{-14, 77}";
type = Stem;
}
);
layerId = "B9003040-D3EC-4996-96A5-33D5E21FF9E0";
paths = (
{
closed = 1;
nodes = (
"431 127 LINE SMOOTH",
"394 108 OFFCURVE",
"328 77 OFFCURVE",
"305 71 CURVE SMOOTH",
"300 70 OFFCURVE",
"333 88 OFFCURVE",
"353 97 CURVE SMOOTH",
"360 100 OFFCURVE",
"369 104 OFFCURVE",
"378 109 CURVE",
"285 68 OFFCURVE",
"196 50 OFFCURVE",
"166 73 CURVE",
"163 102 OFFCURVE",
"314 171 OFFCURVE",
"407 196 CURVE SMOOTH",
"422 200 OFFCURVE",
"474 243 OFFCURVE",
"449 250 CURVE SMOOTH",
"385 269 OFFCURVE",
"289 299 OFFCURVE",
"232 324 CURVE SMOOTH",
"113 375 OFFCURVE",
"287 435 OFFCURVE",
"356 464 CURVE SMOOTH",
"502 526 OFFCURVE",
"658 548 OFFCURVE",
"768 550 CURVE SMOOTH",
"830 551 OFFCURVE",
"865 546 OFFCURVE",
"787 488 CURVE SMOOTH",
"719 436 OFFCURVE",
"587 369 OFFCURVE",
"511 363 CURVE SMOOTH",
"458 360 OFFCURVE",
"534 425 OFFCURVE",
"549 438 CURVE SMOOTH",
"594 475 OFFCURVE",
"584 478 OFFCURVE",
"569 473 CURVE SMOOTH",
"504 452 OFFCURVE",
"458 393 OFFCURVE",
"449 380 CURVE SMOOTH",
"432 356 OFFCURVE",
"477 300 OFFCURVE",
"488 293 CURVE",
"550 290 OFFCURVE",
"708 376 OFFCURVE",
"757 418 CURVE",
"800 410 OFFCURVE",
"910 499 OFFCURVE",
"919 545 CURVE SMOOTH",
"923 562 OFFCURVE",
"894 594 OFFCURVE",
"890 589 CURVE SMOOTH",
"885 582 OFFCURVE",
"886 576 OFFCURVE",
"880 567 CURVE SMOOTH",
"875 558 OFFCURVE",
"866 548 OFFCURVE",
"860 545 CURVE",
"868 557 OFFCURVE",
"894 580 OFFCURVE",
"871 627 CURVE",
"796 659 OFFCURVE",
"624 627 OFFCURVE",
"464 575 CURVE SMOOTH",
"414 558 OFFCURVE",
"341 535 OFFCURVE",
"292 515 CURVE SMOOTH",
"282 511 OFFCURVE",
"290 510 OFFCURVE",
"301 514 CURVE SMOOTH",
"326 524 OFFCURVE",
"354 534 OFFCURVE",
"383 543 CURVE",
"342 527 OFFCURVE",
"303 509 OFFCURVE",
"268 491 CURVE SMOOTH",
"223 468 OFFCURVE",
"121 393 OFFCURVE",
"113 337 CURVE SMOOTH",
"105 277 OFFCURVE",
"261 241 OFFCURVE",
"305 235 CURVE",
"284 225 OFFCURVE",
"259 218 OFFCURVE",
"241 209 CURVE",
"208 202 OFFCURVE",
"160 187 OFFCURVE",
"114 161 CURVE SMOOTH",
"107 157 OFFCURVE",
"95 142 OFFCURVE",
"102 147 CURVE SMOOTH",
"126 164 OFFCURVE",
"159 180 OFFCURVE",
"190 189 CURVE",
"156 175 OFFCURVE",
"123 158 OFFCURVE",
"93 134 CURVE",
"64 101 OFFCURVE",
"74 38 OFFCURVE",
"93 -1 CURVE",
"93 -6 OFFCURVE",
"85 5 OFFCURVE",
"81 -6 CURVE SMOOTH",
"73 -27 OFFCURVE",
"96 -44 OFFCURVE",
"124 -48 CURVE SMOOTH",
"147 -52 OFFCURVE",
"198 -47 OFFCURVE",
"220 -32 CURVE SMOOTH",
"225 -29 OFFCURVE",
"228 -19 OFFCURVE",
"228 -14 CURVE",
"381 28 OFFCURVE",
"598 150 OFFCURVE",
"690 235 CURVE SMOOTH",
"723 265 OFFCURVE",
"723 281 OFFCURVE",
"689 263 CURVE SMOOTH",
"662 248 OFFCURVE",
"606 218 OFFCURVE",
"541 186 CURVE",
"598 217 OFFCURVE",
"648 247 OFFCURVE",
"659 258 CURVE",
"626 240 OFFCURVE",
"460 150 OFFCURVE",
"436 138 CURVE SMOOTH",
"423 131 LINE SMOOTH",
"462 150 OFFCURVE",
"503 168 OFFCURVE",
"541 186 CURVE"
);
},
{
closed = 1;
nodes = (
"818 627 OFFCURVE",
"820 619 OFFCURVE",
"792 620 CURVE SMOOTH",
"707 621 OFFCURVE",
"536 588 OFFCURVE",
"395 544 CURVE",
"422 555 OFFCURVE",
"458 567 OFFCURVE",
"487 575 CURVE SMOOTH",
"614 612 OFFCURVE",
"729 629 OFFCURVE",
"803 627 CURVE SMOOTH"
);
},
{
closed = 1;
nodes = (
"306 218 OFFCURVE",
"251 207 OFFCURVE",
"208 195 CURVE",
"225 202 OFFCURVE",
"245 208 OFFCURVE",
"262 214 CURVE",
"289 220 OFFCURVE",
"305 225 OFFCURVE",
"321 228 CURVE SMOOTH",
"329 229 OFFCURVE",
"343 222 OFFCURVE",
"328 220 CURVE SMOOTH"
);
},
{
closed = 1;
nodes = (
"405 123 OFFCURVE",
"391 116 OFFCURVE",
"378 109 CURVE",
"393 116 OFFCURVE",
"408 123 OFFCURVE",
"423 131 CURVE"
);
}
);
width = 626;
}
);
note = E;
unicode = 0045;
},
{
glyphname = F;
layers = (
{
hints = (
{
horizontal = 1;
place = "{254, 11}";
type = Stem;
},
{
horizontal = 1;
place = "{599, 25}";
type = Stem;
},
{
place = "{27, 936}";
type = Stem;
},
{
horizontal = 1;
place = "{607, 17}";
type = Stem;
}
);
layerId = "B9003040-D3EC-4996-96A5-33D5E21FF9E0";
paths = (
{
closed = 1;
nodes = (
"656 595 OFFCURVE",
"615 601 OFFCURVE",
"604 603 CURVE SMOOTH",
"339 654 OFFCURVE",
"185 580 OFFCURVE",
"67 515 CURVE",
"68 517 LINE",
"63 513 OFFCURVE",
"60 511 OFFCURVE",
"65 514 CURVE SMOOTH",
"67 515 LINE",
"50 499 OFFCURVE",
"38 480 OFFCURVE",
"31 458 CURVE SMOOTH",
"7 379 OFFCURVE",
"100 354 OFFCURVE",
"77 408 CURVE",
"96 479 OFFCURVE",
"273 540 OFFCURVE",
"305 547 CURVE SMOOTH",
"385 565 OFFCURVE",
"474 568 OFFCURVE",
"546 568 CURVE",
"532 557 OFFCURVE",
"506 536 OFFCURVE",
"501 529 CURVE",
"519 545 OFFCURVE",
"541 559 OFFCURVE",
"547 564 CURVE SMOOTH",
"451 484 OFFCURVE",
"318 341 OFFCURVE",
"272 283 CURVE",
"150 267 LINE SMOOTH",
"110 261 OFFCURVE",
"82 227 OFFCURVE",
"121 232 CURVE SMOOTH",
"137 234 OFFCURVE",
"215 243 OFFCURVE",
"237 244 CURVE",
"197 191 OFFCURVE",
"152 119 OFFCURVE",
"152 69 CURVE SMOOTH",
"152 25 OFFCURVE",
"188 -7 OFFCURVE",
"220 -10 CURVE",
"284 -10 OFFCURVE",
"227 10 OFFCURVE",
"227 43 CURVE SMOOTH",
"227 60 OFFCURVE",
"228 137 OFFCURVE",
"325 247 CURVE",
"351 249 OFFCURVE",
"355 249 OFFCURVE",
"381 254 CURVE",
"352 252 OFFCURVE",
"339 253 OFFCURVE",
"330 254 CURVE",
"340 255 OFFCURVE",
"469 264 OFFCURVE",
"510 266 CURVE SMOOTH",
"512 266 OFFCURVE",
"486 226 OFFCURVE",
"463 198 CURVE",
"488 223 OFFCURVE",
"507 250 OFFCURVE",
"522 266 CURVE",
"518 259 OFFCURVE",
"497 231 OFFCURVE",
"464 194 CURVE SMOOTH",
"449 178 OFFCURVE",
"439 166 OFFCURVE",
"439 160 CURVE",
"447 160 OFFCURVE",
"592 271 OFFCURVE",
"592 284 CURVE SMOOTH",
"592 291 OFFCURVE",
"585 311 OFFCURVE",
"574 311 CURVE SMOOTH",
"571 311 OFFCURVE",
"562 320 OFFCURVE",
"555 319 CURVE SMOOTH",
"483 304 OFFCURVE",
"408 298 OFFCURVE",
"360 290 CURVE",
"422 360 OFFCURVE",
"571 478 OFFCURVE",
"661 543 CURVE",
"675 544 OFFCURVE",
"706 539 OFFCURVE",
"721 538 CURVE SMOOTH",
"904 524 OFFCURVE",
"956 561 OFFCURVE",
"963 599 CURVE",
"895 589 OFFCURVE",
"798 586 OFFCURVE",
"714 593 CURVE",
"711 617 OFFCURVE",
"653 621 OFFCURVE",
"639 621 CURVE SMOOTH",
"630 621 OFFCURVE",
"620 618 OFFCURVE",
"603 607 CURVE",
"604 606 OFFCURVE",
"605 606 OFFCURVE",
"607 606 CURVE"
);
},
{
closed = 1;
nodes = (
"159 575 OFFCURVE",
"105 552 OFFCURVE",
"68 517 CURVE",
"80 524 LINE",
"118 551 OFFCURVE",
"162 575 OFFCURVE",
"210 591 CURVE"
);
},
{
closed = 1;
nodes = (
"560 618 OFFCURVE",
"512 623 OFFCURVE",
"463 624 CURVE SMOOTH",
"508 623 OFFCURVE",
"556 616 OFFCURVE",
"603 607 CURVE"
);
},
{
closed = 1;
nodes = (
"363 623 OFFCURVE",
"312 616 OFFCURVE",
"264 606 CURVE",
"308 615 OFFCURVE",
"362 622 OFFCURVE",
"417 624 CURVE"
);
},
{
closed = 1;
nodes = (
"255 604 LINE SMOOTH",
"240 600 OFFCURVE",
"225 596 OFFCURVE",
"210 591 CURVE SMOOTH"
);
},
{
closed = 1;
nodes = (
"256 604 LINE SMOOTH",
"258 604 OFFCURVE",
"261 605 OFFCURVE",
"264 606 CURVE",
"261 605 OFFCURVE",
"258 604 OFFCURVE",
"255 604 CURVE SMOOTH"
);
}
);
width = 547;
}
);
note = F;
unicode = 0046;
},
{
glyphname = G;
layers = (
{
hints = (
{
horizontal = 1;
place = "{6, 8}";
type = Stem;
},
{
horizontal = 1;
place = "{65, 19}";
type = Stem;
},
{
horizontal = 1;
place = "{579, 63}";
type = Stem;
},
{
horizontal = 1;
place = "{642, -20}";
target = down;
type = TopGhost;
},
{
horizontal = 1;
place = "{647, 14}";
type = Stem;
},
{
place = "{17, 80}";
type = Stem;
},
{
place = "{122, 37}";
type = Stem;
},
{
place = "{782, 31}";
type = Stem;
}
);
layerId = "B9003040-D3EC-4996-96A5-33D5E21FF9E0";
paths = (
{
closed = 1;
nodes = (
"495 40 LINE",
"490 33 LINE",
"501 46 LINE",
"521 53 OFFCURVE",
"542 61 OFFCURVE",
"558 66 CURVE SMOOTH",
"577 71 OFFCURVE",
"574 88 OFFCURVE",
"554 86 CURVE SMOOTH",
"528 84 LINE",
"605 192 OFFCURVE",
"655 283 OFFCURVE",
"655 283 CURVE",
"660 295 OFFCURVE",
"602 325 OFFCURVE",
"581 320 CURVE",
"553 285 OFFCURVE",
"430 150 OFFCURVE",
"324 102 CURVE SMOOTH",
"85 -6 OFFCURVE",
"68 93 OFFCURVE",
"125 214 CURVE SMOOTH",
"234 446 OFFCURVE",
"526 552 OFFCURVE",
"718 579 CURVE SMOOTH",
"778 587 OFFCURVE",
"813 564 OFFCURVE",
"745 500 CURVE SMOOTH",
"726 482 OFFCURVE",
"701 462 OFFCURVE",
"673 443 CURVE SMOOTH",
"614 402 OFFCURVE",
"654 409 OFFCURVE",
"726 429 CURVE",
"770 424 OFFCURVE",
"863 520 OFFCURVE",
"866 566 CURVE SMOOTH",
"867 584 OFFCURVE",
"833 613 OFFCURVE",
"830 608 CURVE SMOOTH",
"827 601 OFFCURVE",
"828 595 OFFCURVE",
"824 586 CURVE SMOOTH",
"820 577 OFFCURVE",
"813 566 OFFCURVE",
"807 562 CURVE",
"814 575 OFFCURVE",
"822 607 OFFCURVE",
"792 653 CURVE",
"714 679 OFFCURVE",
"545 645 OFFCURVE",
"398 575 CURVE SMOOTH",
"352 554 OFFCURVE",
"285 522 OFFCURVE",
"241 497 CURVE SMOOTH",
"232 492 OFFCURVE",
"241 492 OFFCURVE",
"250 497 CURVE SMOOTH",
"273 510 OFFCURVE",
"299 523 OFFCURVE",
"325 535 CURVE",
"225 479 OFFCURVE",
"144 419 OFFCURVE",
"74 306 CURVE SMOOTH",
"1 189 OFFCURVE",
"-23 47 OFFCURVE",
"139 14 CURVE",
"30 14 OFFCURVE",
"148 -7 OFFCURVE",
"245 19 CURVE SMOOTH",
"318 39 OFFCURVE",
"404 91 OFFCURVE",
"473 147 CURVE SMOOTH",
"475 149 OFFCURVE",
"499 184 OFFCURVE",
"501 185 CURVE SMOOTH",
"503 186 OFFCURVE",
"481 154 OFFCURVE",
"483 155 CURVE",
"466 130 OFFCURVE",
"449 103 OFFCURVE",
"428 75 CURVE",
"279 20 OFFCURVE",
"148 -76 OFFCURVE",
"94 -156 CURVE",
"88 -179 OFFCURVE",
"105 -211 OFFCURVE",
"128 -235 CURVE",
"126 -239 LINE SMOOTH",
"113 -268 OFFCURVE",
"148 -282 OFFCURVE",
"168 -288 CURVE SMOOTH",
"183 -293 OFFCURVE",
"269 -228 OFFCURVE",
"258 -222 CURVE SMOOTH",
"255 -220 OFFCURVE",
"251 -219 OFFCURVE",
"247 -219 CURVE",
"272 -203 OFFCURVE",
"376 -112 OFFCURVE",
"414 -67 CURVE SMOOTH",
"445 -30 OFFCURVE",
"467 2 OFFCURVE",
"482 23 CURVE",
"470 8 OFFCURVE",
"455 -7 OFFCURVE",
"446 -20 CURVE SMOOTH",
"382 -100 OFFCURVE",
"317 -166 OFFCURVE",
"247 -219 CURVE",
"241 -222 OFFCURVE",
"377 -95 OFFCURVE",
"427 -37 CURVE SMOOTH",
"441 -21 OFFCURVE",
"496 42 OFFCURVE",
"496 42 CURVE"
);
},
{
closed = 1;
nodes = (
"408 18 OFFCURVE",
"388 -2 OFFCURVE",
"371 -21 CURVE SMOOTH",
"312 -88 OFFCURVE",
"222 -190 OFFCURVE",
"169 -244 CURVE",
"113 -196 OFFCURVE",
"324 -17 OFFCURVE",
"390 8 CURVE",
"391 8 OFFCURVE",
"397 10 OFFCURVE",
"421 39 CURVE"
);
},
{
closed = 1;
nodes = (
"637 642 OFFCURVE",
"465 597 OFFCURVE",
"336 537 CURVE",
"361 551 OFFCURVE",
"394 567 OFFCURVE",
"420 579 CURVE SMOOTH",
"537 630 OFFCURVE",
"667 644 OFFCURVE",
"725 648 CURVE SMOOTH",
"740 649 OFFCURVE",
"759 642 OFFCURVE",
"731 642 CURVE SMOOTH"
);
},
{
closed = 1;
nodes = (
"482 23 LINE",
"487 29 LINE"
);
},
{
closed = 1;
nodes = (
"489 31 OFFCURVE",
"488 31 OFFCURVE",
"488 30 CURVE",
"488 31 OFFCURVE",
"489 31 OFFCURVE",
"490 32 CURVE"
);
}
);
width = 626;
}
);
note = G;
unicode = 0047;
},
{
glyphname = H;
layers = (
{
hints = (
{
horizontal = 1;
place = "{281, 122}";
type = Stem;
},
{
horizontal = 1;
place = "{626, 20}";
type = Stem;
},
{
place = "{323, 213}";
type = Stem;
},
{
horizontal = 1;
place = "{265, 138}";
type = Stem;
}
);
layerId = "B9003040-D3EC-4996-96A5-33D5E21FF9E0";
paths = (
{
closed = 1;
nodes = (
"392 658 OFFCURVE",
"265 641 OFFCURVE",
"170 609 CURVE SMOOTH",
"113 590 OFFCURVE",
"73 565 OFFCURVE",
"29 541 CURVE SMOOTH",
"32 543 LINE",
"25 539 LINE",
"29 541 LINE",
"12 524 OFFCURVE",
"-2 505 OFFCURVE",
"-9 482 CURVE SMOOTH",
"-33 403 OFFCURVE",
"60 378 OFFCURVE",
"37 433 CURVE",
"56 504 OFFCURVE",
"233 564 OFFCURVE",
"265 572 CURVE SMOOTH",
"364 593 OFFCURVE",
"491 607 OFFCURVE",
"545 599 CURVE",
"538 574 OFFCURVE",
"504 538 OFFCURVE",
"488 520 CURVE",
"501 522 OFFCURVE",
"516 554 OFFCURVE",
"543 575 CURVE",
"507 526 OFFCURVE",
"404 390 OFFCURVE",
"321 271 CURVE",
"276 268 OFFCURVE",
"233 266 OFFCURVE",
"195 265 CURVE",
"201 273 OFFCURVE",
"203 281 OFFCURVE",
"201 288 CURVE SMOOTH",
"197 302 OFFCURVE",
"194 299 OFFCURVE",
"189 292 CURVE SMOOTH",
"185 284 OFFCURVE",
"154 279 OFFCURVE",
"131 278 CURVE SMOOTH",
"106 278 OFFCURVE",
"78 292 OFFCURVE",
"77 265 CURVE",
"75 265 LINE",
"57 230 OFFCURVE",
"57 178 OFFCURVE",
"91 197 CURVE",
"122 200 OFFCURVE",
"152 212 OFFCURVE",
"292 228 CURVE",
"282 214 OFFCURVE",
"273 200 OFFCURVE",
"265 187 CURVE",
"245 163 OFFCURVE",
"224 137 OFFCURVE",
"226 137 CURVE SMOOTH",
"227 137 OFFCURVE",
"234 144 OFFCURVE",
"243 153 CURVE",
"225 122 OFFCURVE",
"211 97 OFFCURVE",
"206 81 CURVE SMOOTH",
"198 54 OFFCURVE",
"194 0 OFFCURVE",
"241 -9 CURVE",
"325 0 OFFCURVE",
"357 55 OFFCURVE",
"276 69 CURVE",
"277 71 OFFCURVE",
"286 99 OFFCURVE",
"295 114 CURVE SMOOTH",
"310 140 OFFCURVE",
"344 186 OFFCURVE",
"384 240 CURVE",
"464 250 OFFCURVE",
"538 260 OFFCURVE",
"602 269 CURVE",
"591 248 OFFCURVE",
"567 192 OFFCURVE",
"560 179 CURVE",
"561 187 OFFCURVE",
"579 235 OFFCURVE",
"578 233 CURVE SMOOTH",
"557 187 OFFCURVE",
"486 -6 OFFCURVE",
"598 -24 CURVE SMOOTH",
"613 -26 OFFCURVE",
"616 -15 OFFCURVE",
"606 -8 CURVE SMOOTH",
"567 18 OFFCURVE",
"601 107 OFFCURVE",
"656 206 CURVE SMOOTH",
"671 232 OFFCURVE",
"688 259 OFFCURVE",
"705 286 CURVE",
"762 296 OFFCURVE",
"802 305 OFFCURVE",
"816 311 CURVE SMOOTH",
"838 321 OFFCURVE",
"843 332 OFFCURVE",
"812 326 CURVE SMOOTH",
"783 320 OFFCURVE",
"752 314 OFFCURVE",
"720 310 CURVE",
"802 436 OFFCURVE",
"892 550 OFFCURVE",
"892 552 CURVE SMOOTH",
"894 591 OFFCURVE",
"844 636 OFFCURVE",
"817 610 CURVE SMOOTH",
"802 596 OFFCURVE",
"766 566 OFFCURVE",
"765 528 CURVE SMOOTH",
"764 510 OFFCURVE",
"742 479 OFFCURVE",
"734 468 CURVE",
"771 509 LINE",
"730 456 OFFCURVE",
"659 363 OFFCURVE",
"618 297 CURVE",
"545 289 OFFCURVE",
"472 283 OFFCURVE",
"414 278 CURVE",
"505 397 OFFCURVE",
"616 534 OFFCURVE",
"646 566 CURVE",
"658 597 OFFCURVE",
"594 631 OFFCURVE",
"568 640 CURVE SMOOTH",
"552 645 OFFCURVE",
"549 640 OFFCURVE",
"550 632 CURVE",
"521 638 OFFCURVE",
"489 641 OFFCURVE",
"457 643 CURVE",
"489 641 OFFCURVE",
"522 636 OFFCURVE",
"556 630 CURVE SMOOTH",
"568 628 OFFCURVE",
"565 624 OFFCURVE",
"557 626 CURVE SMOOTH"
);
},
{
closed = 1;
nodes = (
"336 650 OFFCURVE",
"252 640 OFFCURVE",
"177 617 CURVE SMOOTH",
"193 622 OFFCURVE",
"208 625 OFFCURVE",
"222 629 CURVE SMOOTH",
"273 640 OFFCURVE",
"352 647 OFFCURVE",
"431 644 CURVE"
);
},
{
closed = 1;
nodes = (
"103 590 OFFCURVE",
"61 571 OFFCURVE",
"32 543 CURVE",
"40 549 LINE SMOOTH",
"72 571 OFFCURVE",
"106 591 OFFCURVE",
"144 606 CURVE"
);
},
{
closed = 1;
nodes = (
"447 643 OFFCURVE",
"439 644 OFFCURVE",
"431 644 CURVE",
"439 644 OFFCURVE",
"447 643 OFFCURVE",
"455 643 CURVE"
);
},
{
closed = 1;
nodes = (
"166 614 OFFCURVE",
"162 612 OFFCURVE",
"158 611 CURVE",
"162 612 OFFCURVE",
"166 614 OFFCURVE",
"171 615 CURVE"
);
},
{
closed = 1;
nodes = (
"158 611 LINE",
"149 608 LINE"
);
},
{
closed = 1;
nodes = (
"147 607 OFFCURVE",
"146 606 OFFCURVE",
"144 606 CURVE",
"146 606 OFFCURVE",
"147 607 OFFCURVE",
"149 608 CURVE"
);
},
{
closed = 1;
nodes = (
"732 466 LINE",
"731 465 LINE"
);
}
);
width = 735;
}
);
note = H;
unicode = 0048;
},
{
glyphname = I;
layers = (
{
hints = (
{
horizontal = 1;
place = "{-60, 21}";
target = up;
type = BottomGhost;
},
{
horizontal = 1;
place = "{-22, 21}";
target = up;
type = BottomGhost;
},
{
horizontal = 1;
place = "{512, 80}";
type = Stem;
},
{
horizontal = 1;
place = "{636, -20}";
target = down;
type = TopGhost;
},
{
place = "{63, 110}";
type = Stem;
},
{
place = "{184, 11}";
type = Stem;
}
);
layerId = "B9003040-D3EC-4996-96A5-33D5E21FF9E0";
paths = (
{
closed = 1;
nodes = (
"668 632 OFFCURVE",
"669 643 OFFCURVE",
"658 637 CURVE SMOOTH",
"653 634 OFFCURVE",
"659 600 OFFCURVE",
"490 593 CURVE SMOOTH",
"475 592 LINE",
"458 592 LINE",
"442 602 OFFCURVE",
"425 610 OFFCURVE",
"414 614 CURVE SMOOTH",
"391 621 OFFCURVE",
"394 607 OFFCURVE",
"398 595 CURVE",
"398 594 OFFCURVE",
"398 592 OFFCURVE",
"397 589 CURVE",
"318 586 LINE",
"322 593 OFFCURVE",
"324 600 OFFCURVE",
"322 607 CURVE SMOOTH",
"318 621 OFFCURVE",
"315 618 OFFCURVE",
"310 611 CURVE SMOOTH",
"306 603 OFFCURVE",
"275 598 OFFCURVE",
"252 597 CURVE SMOOTH",
"227 597 OFFCURVE",
"199 611 OFFCURVE",
"198 584 CURVE",
"196 584 LINE",
"178 549 OFFCURVE",
"178 497 OFFCURVE",
"212 516 CURVE",
"377 534 LINE",
"303 435 OFFCURVE",
"91 157 OFFCURVE",
"68 81 CURVE SMOOTH",
"66 75 OFFCURVE",
"64 67 OFFCURVE",
"64 58 CURVE",
"19 53 OFFCURVE",
"-25 49 OFFCURVE",
"-35 47 CURVE SMOOTH",
"-75 41 OFFCURVE",
"-103 7 OFFCURVE",
"-64 12 CURVE SMOOTH",
"-48 14 OFFCURVE",
"30 23 OFFCURVE",
"52 24 CURVE SMOOTH",
"56 24 OFFCURVE",
"60 25 OFFCURVE",
"66 25 CURVE",
"71 9 OFFCURVE",
"81 -5 OFFCURVE",
"103 -9 CURVE",
"132 2 OFFCURVE",
"154 16 OFFCURVE",
"165 31 CURVE",
"196 34 LINE SMOOTH",
"184 33 OFFCURVE",
"174 33 OFFCURVE",
"167 33 CURVE",
"167 34 OFFCURVE",
"168 35 OFFCURVE",
"169 36 CURVE",
"325 46 LINE SMOOTH",
"327 46 OFFCURVE",
"301 6 OFFCURVE",
"278 -22 CURVE",
"303 3 OFFCURVE",
"322 30 OFFCURVE",
"337 46 CURVE",
"333 39 OFFCURVE",
"312 11 OFFCURVE",
"279 -26 CURVE SMOOTH",
"264 -42 OFFCURVE",
"254 -54 OFFCURVE",
"254 -60 CURVE",
"262 -60 OFFCURVE",
"407 51 OFFCURVE",
"407 64 CURVE SMOOTH",
"407 71 OFFCURVE",
"400 91 OFFCURVE",
"389 91 CURVE SMOOTH",
"386 91 OFFCURVE",
"377 100 OFFCURVE",
"370 99 CURVE SMOOTH",
"298 84 OFFCURVE",
"223 75 OFFCURVE",
"175 70 CURVE SMOOTH",
"164 69 LINE",
"157 76 OFFCURVE",
"144 82 OFFCURVE",
"124 85 CURVE",
"125 87 OFFCURVE",
"131 106 OFFCURVE",
"142 120 CURVE SMOOTH",
"208 207 OFFCURVE",
"444 489 OFFCURVE",
"492 540 CURVE",
"493 543 OFFCURVE",
"493 545 OFFCURVE",
"493 548 CURVE",
"508 549 LINE",
"512 550 OFFCURVE",
"399 426 OFFCURVE",
"403 426 CURVE SMOOTH",
"408 427 OFFCURVE",
"528 552 OFFCURVE",
"533 552 CURVE",
"778 582 OFFCURVE",
"646 607 OFFCURVE",
"659 623 CURVE SMOOTH"
);
}
);
width = 422;
}
);
note = I;
unicode = 0049;
},
{
glyphname = IJ;
layers = (
{
hints = (
{
horizontal = 1;
place = "{-60, 21}";
target = up;
type = BottomGhost;
},
{
horizontal = 1;
place = "{-22, 21}";
target = up;
type = BottomGhost;
},
{
horizontal = 1;
place = "{512, 80}";
type = Stem;
},
{
horizontal = 1;
place = "{636, -20}";
target = down;
type = TopGhost;
},
{
place = "{63, 110}";
type = Stem;
},
{
place = "{184, 11}";
type = Stem;
},
{
horizontal = 1;
place = "{-219, 36}";
type = Stem;
},
{
horizontal = 1;
place = "{-28, 21}";
target = up;
type = BottomGhost;
},
{
horizontal = 1;
place = "{609, 7}";
type = Stem;
},
{
horizontal = 1;
place = "{621, 7}";
type = Stem;
},
{
place = "{287, 15}";
type = Stem;
},
{
place = "{452, 34}";
type = Stem;
},
{
place = "{562, 41}";
type = Stem;
},
{
place = "{922, 13}";
type = Stem;
},
{
place = "{882, 97}";
type = Stem;
}
);
layerId = "B9003040-D3EC-4996-96A5-33D5E21FF9E0";
paths = (
{
closed = 1;
nodes = (
"668 632 OFFCURVE",
"669 643 OFFCURVE",
"658 637 CURVE SMOOTH",
"653 634 OFFCURVE",
"659 600 OFFCURVE",
"490 593 CURVE SMOOTH",
"475 592 LINE",
"458 592 LINE",
"442 602 OFFCURVE",
"425 610 OFFCURVE",
"414 614 CURVE SMOOTH",
"391 621 OFFCURVE",
"394 607 OFFCURVE",
"398 595 CURVE",
"398 594 OFFCURVE",
"398 592 OFFCURVE",
"397 589 CURVE",
"318 586 LINE",
"322 593 OFFCURVE",
"324 600 OFFCURVE",
"322 607 CURVE SMOOTH",
"318 621 OFFCURVE",
"315 618 OFFCURVE",
"310 611 CURVE SMOOTH",
"306 603 OFFCURVE",
"275 598 OFFCURVE",
"252 597 CURVE SMOOTH",
"227 597 OFFCURVE",
"199 611 OFFCURVE",
"198 584 CURVE",
"196 584 LINE",
"178 549 OFFCURVE",
"178 497 OFFCURVE",
"212 516 CURVE",
"377 534 LINE",
"303 435 OFFCURVE",
"91 157 OFFCURVE",
"68 81 CURVE SMOOTH",
"66 75 OFFCURVE",
"64 67 OFFCURVE",
"64 58 CURVE",
"19 53 OFFCURVE",
"-25 49 OFFCURVE",
"-35 47 CURVE SMOOTH",
"-75 41 OFFCURVE",
"-103 7 OFFCURVE",
"-64 12 CURVE SMOOTH",
"-48 14 OFFCURVE",
"30 23 OFFCURVE",
"52 24 CURVE SMOOTH",
"56 24 OFFCURVE",
"60 25 OFFCURVE",
"66 25 CURVE",
"71 9 OFFCURVE",
"81 -5 OFFCURVE",
"103 -9 CURVE",
"132 2 OFFCURVE",
"154 16 OFFCURVE",
"165 31 CURVE",
"196 34 LINE SMOOTH",
"184 33 OFFCURVE",
"174 33 OFFCURVE",
"167 33 CURVE",
"167 34 OFFCURVE",
"168 35 OFFCURVE",
"169 36 CURVE",
"325 46 LINE SMOOTH",
"327 46 OFFCURVE",
"301 6 OFFCURVE",
"278 -22 CURVE",
"303 3 OFFCURVE",
"322 30 OFFCURVE",
"337 46 CURVE",
"333 39 OFFCURVE",
"312 11 OFFCURVE",
"279 -26 CURVE SMOOTH",
"264 -42 OFFCURVE",
"254 -54 OFFCURVE",
"254 -60 CURVE",
"262 -60 OFFCURVE",
"407 51 OFFCURVE",
"407 64 CURVE SMOOTH",
"407 71 OFFCURVE",
"400 91 OFFCURVE",
"389 91 CURVE SMOOTH",
"386 91 OFFCURVE",
"377 100 OFFCURVE",
"370 99 CURVE SMOOTH",
"298 84 OFFCURVE",
"223 75 OFFCURVE",
"175 70 CURVE SMOOTH",
"164 69 LINE",
"157 76 OFFCURVE",
"144 82 OFFCURVE",
"124 85 CURVE",
"125 87 OFFCURVE",
"131 106 OFFCURVE",
"142 120 CURVE SMOOTH",
"208 207 OFFCURVE",
"444 489 OFFCURVE",
"492 540 CURVE",
"493 543 OFFCURVE",
"493 545 OFFCURVE",
"493 548 CURVE",
"508 549 LINE",
"512 550 OFFCURVE",
"399 426 OFFCURVE",
"403 426 CURVE SMOOTH",
"408 427 OFFCURVE",
"528 552 OFFCURVE",
"533 552 CURVE",
"778 582 OFFCURVE",
"646 607 OFFCURVE",
"659 623 CURVE SMOOTH"
);
},
{
closed = 1;
nodes = (
"641 10 LINE SMOOTH",
"681 63 OFFCURVE",
"718 108 OFFCURVE",
"736 133 CURVE SMOOTH",
"797 216 OFFCURVE",
"890 383 OFFCURVE",
"910 418 CURVE SMOOTH",
"911 420 OFFCURVE",
"856 332 OFFCURVE",
"834 300 CURVE SMOOTH",
"733 145 LINE",
"795 243 OFFCURVE",
"854 348 OFFCURVE",
"908 445 CURVE",
"941 480 OFFCURVE",
"1013 556 OFFCURVE",
"961 583 CURVE",
"960 613 OFFCURVE",
"924 637 OFFCURVE",
"897 629 CURVE SMOOTH",
"893 628 OFFCURVE",
"889 625 OFFCURVE",
"886 621 CURVE",
"896 622 OFFCURVE",
"905 622 OFFCURVE",
"915 622 CURVE SMOOTH",
"922 622 OFFCURVE",
"925 616 OFFCURVE",
"918 614 CURVE",
"908 616 OFFCURVE",
"896 616 OFFCURVE",
"883 616 CURVE",
"886 621 LINE",
"811 618 OFFCURVE",
"744 597 OFFCURVE",
"688 564 CURVE",
"737 592 OFFCURVE",
"820 616 OFFCURVE",
"883 616 CURVE",
"883 615 OFFCURVE",
"883 614 OFFCURVE",
"882 613 CURVE",
"711 608 OFFCURVE",
"622 511 OFFCURVE",
"570 430 CURVE",
"570 432 LINE",
"567 427 OFFCURVE",
"565 422 OFFCURVE",
"568 427 CURVE SMOOTH",
"570 430 LINE",
"563 410 OFFCURVE",
"561 389 OFFCURVE",
"563 367 CURVE SMOOTH",
"571 287 OFFCURVE",
"633 283 OFFCURVE",
"603 330 CURVE",
"594 401 OFFCURVE",
"713 494 OFFCURVE",
"731 507 CURVE SMOOTH",
"777 540 OFFCURVE",
"841 580 OFFCURVE",
"889 588 CURVE",
"891 586 LINE",
"890 469 OFFCURVE",
"435 -181 OFFCURVE",
"330 -183 CURVE SMOOTH",
"314 -183 OFFCURVE",
"306 -156 OFFCURVE",
"305 -140 CURVE SMOOTH",
"305 -130 OFFCURVE",
"306 -124 OFFCURVE",
"308 -117 CURVE SMOOTH",
"325 -36 OFFCURVE",
"384 49 OFFCURVE",
"433 75 CURVE SMOOTH",
"471 97 OFFCURVE",
"443 23 OFFCURVE",
"437 9 CURVE SMOOTH",
"419 -33 OFFCURVE",
"428 -31 OFFCURVE",
"437 -23 CURVE SMOOTH",
"477 14 OFFCURVE",
"485 73 OFFCURVE",
"487 85 CURVE SMOOTH",
"489 108 OFFCURVE",
"381 140 OFFCURVE",
"370 142 CURVE",
"322 122 OFFCURVE",
"277 23 OFFCURVE",
"259 -24 CURVE",
"226 -64 OFFCURVE",
"260 -171 OFFCURVE",
"295 -183 CURVE",
"306 -206 OFFCURVE",
"327 -217 OFFCURVE",
"348 -219 CURVE SMOOTH",
"429 -225 OFFCURVE",
"551 -99 OFFCURVE",
"639 8 CURVE",
"601 -43 OFFCURVE",
"562 -90 OFFCURVE",
"523 -128 CURVE",
"546 -118 OFFCURVE",
"589 -59 OFFCURVE",
"641 10 CURVE SMOOTH",
"639 8 LINE",
"645 16 LINE"
);
},
{
closed = 1;
nodes = (
"629 524 OFFCURVE",
"588 484 OFFCURVE",
"570 432 CURVE",
"572 434 OFFCURVE",
"573 437 OFFCURVE",
"574 439 CURVE SMOOTH",
"596 486 OFFCURVE",
"630 527 OFFCURVE",
"675 556 CURVE",
"670 554 OFFCURVE",
"665 551 OFFCURVE",
"662 549 CURVE SMOOTH"
);
},
{
closed = 1;
nodes = (
"688 564 LINE",
"675 556 LINE"
);
}
);
width = 839;
}
);
note = IJ;
unicode = 0132;
},
{
glyphname = J;
layers = (
{
hints = (
{
horizontal = 1;
place = "{-219, 36}";
type = Stem;
},
{
horizontal = 1;
place = "{-28, 21}";
target = up;
type = BottomGhost;
},
{
horizontal = 1;
place = "{609, 7}";
type = Stem;
},
{
horizontal = 1;
place = "{621, 7}";
type = Stem;
},
{
place = "{-12, 15}";
type = Stem;
},
{
place = "{153, 34}";
type = Stem;
},
{
place = "{263, 41}";
type = Stem;
},
{
place = "{623, 13}";
type = Stem;
},
{
place = "{583, 97}";
type = Stem;
}
);
layerId = "B9003040-D3EC-4996-96A5-33D5E21FF9E0";
paths = (
{
closed = 1;
nodes = (
"342 10 LINE SMOOTH",
"382 63 OFFCURVE",
"419 108 OFFCURVE",
"437 133 CURVE SMOOTH",
"498 216 OFFCURVE",
"591 383 OFFCURVE",
"611 418 CURVE SMOOTH",
"612 420 OFFCURVE",
"557 332 OFFCURVE",
"535 300 CURVE SMOOTH",
"434 145 LINE",
"496 243 OFFCURVE",
"555 348 OFFCURVE",
"609 445 CURVE",
"642 480 OFFCURVE",
"714 556 OFFCURVE",
"662 583 CURVE",
"661 613 OFFCURVE",
"625 637 OFFCURVE",
"598 629 CURVE SMOOTH",
"594 628 OFFCURVE",
"590 625 OFFCURVE",
"587 621 CURVE",
"597 622 OFFCURVE",
"606 622 OFFCURVE",
"616 622 CURVE SMOOTH",
"623 622 OFFCURVE",
"626 616 OFFCURVE",
"619 614 CURVE",
"609 616 OFFCURVE",
"597 616 OFFCURVE",
"584 616 CURVE",
"587 621 LINE",
"512 618 OFFCURVE",
"445 597 OFFCURVE",
"389 564 CURVE",
"438 592 OFFCURVE",
"521 616 OFFCURVE",
"584 616 CURVE",
"584 615 OFFCURVE",
"584 614 OFFCURVE",
"583 613 CURVE",
"412 608 OFFCURVE",
"323 511 OFFCURVE",
"271 430 CURVE",
"271 432 LINE",
"268 427 OFFCURVE",
"266 422 OFFCURVE",
"269 427 CURVE SMOOTH",
"271 430 LINE",
"264 410 OFFCURVE",
"262 389 OFFCURVE",
"264 367 CURVE SMOOTH",
"272 287 OFFCURVE",
"334 283 OFFCURVE",
"304 330 CURVE",
"295 401 OFFCURVE",
"414 494 OFFCURVE",
"432 507 CURVE SMOOTH",
"478 540 OFFCURVE",
"542 580 OFFCURVE",
"590 588 CURVE",
"592 586 LINE",
"591 469 OFFCURVE",
"136 -181 OFFCURVE",
"31 -183 CURVE SMOOTH",
"15 -183 OFFCURVE",
"7 -156 OFFCURVE",
"6 -140 CURVE SMOOTH",
"6 -130 OFFCURVE",
"7 -124 OFFCURVE",
"9 -117 CURVE SMOOTH",
"26 -36 OFFCURVE",
"85 49 OFFCURVE",
"134 75 CURVE SMOOTH",
"172 97 OFFCURVE",
"144 23 OFFCURVE",
"138 9 CURVE SMOOTH",
"120 -33 OFFCURVE",
"129 -31 OFFCURVE",
"138 -23 CURVE SMOOTH",
"178 14 OFFCURVE",
"186 73 OFFCURVE",
"188 85 CURVE SMOOTH",
"190 108 OFFCURVE",
"82 140 OFFCURVE",
"71 142 CURVE",
"23 122 OFFCURVE",
"-22 23 OFFCURVE",
"-40 -24 CURVE",
"-73 -64 OFFCURVE",
"-39 -171 OFFCURVE",
"-4 -183 CURVE",
"7 -206 OFFCURVE",
"28 -217 OFFCURVE",
"49 -219 CURVE SMOOTH",
"130 -225 OFFCURVE",
"252 -99 OFFCURVE",
"340 8 CURVE",
"302 -43 OFFCURVE",
"263 -90 OFFCURVE",
"224 -128 CURVE",
"247 -118 OFFCURVE",
"290 -59 OFFCURVE",
"342 10 CURVE SMOOTH",
"340 8 LINE",
"346 16 LINE"
);
},
{
closed = 1;
nodes = (
"330 524 OFFCURVE",
"289 484 OFFCURVE",
"271 432 CURVE",
"273 434 OFFCURVE",
"274 437 OFFCURVE",
"275 439 CURVE SMOOTH",
"297 486 OFFCURVE",
"331 527 OFFCURVE",
"376 556 CURVE",
"371 554 OFFCURVE",
"366 551 OFFCURVE",
"363 549 CURVE SMOOTH"
);
},
{
closed = 1;
nodes = (
"389 564 LINE",
"376 556 LINE"
);
}
);
width = 540;
}
);
note = J;
unicode = 004A;
},
{
glyphname = K;
layers = (
{
hints = (
{
horizontal = 1;
place = "{277, 85}";
type = Stem;
},
{
horizontal = 1;
place = "{552, 9}";
type = Stem;
},
{
horizontal = 1;
place = "{600, 7}";
type = Stem;
},
{
place = "{223, 13}";
type = Stem;
}
);
layerId = "B9003040-D3EC-4996-96A5-33D5E21FF9E0";
paths = (
{
closed = 1;
nodes = (
"721 293 OFFCURVE",
"658 256 OFFCURVE",
"598 233 CURVE",
"628 243 OFFCURVE",
"655 252 OFFCURVE",
"671 261 CURVE SMOOTH",
"785 323 OFFCURVE",
"856 364 OFFCURVE",
"913 445 CURVE",
"879 402 OFFCURVE",
"827 363 OFFCURVE",
"779 333 CURVE",
"873 397 OFFCURVE",
"947 475 OFFCURVE",
"947 546 CURVE SMOOTH",
"947 588 OFFCURVE",
"923 625 OFFCURVE",
"895 625 CURVE SMOOTH",
"846 625 OFFCURVE",
"873 601 OFFCURVE",
"873 576 CURVE SMOOTH",
"873 515 OFFCURVE",
"740 389 OFFCURVE",
"687 351 CURVE SMOOTH",
"609 296 OFFCURVE",
"533 253 OFFCURVE",
"446 229 CURVE",
"499 306 OFFCURVE",
"546 395 OFFCURVE",
"564 426 CURVE SMOOTH",
"565 428 OFFCURVE",
"511 339 OFFCURVE",
"489 307 CURVE SMOOTH",
"424 210 OFFCURVE",
"502 335 OFFCURVE",
"568 445 CURVE",
"601 480 OFFCURVE",
"673 556 OFFCURVE",
"621 583 CURVE",
"620 613 OFFCURVE",
"584 637 OFFCURVE",
"557 629 CURVE SMOOTH",
"543 625 OFFCURVE",
"538 609 OFFCURVE",
"544 596 CURVE",
"477 610 OFFCURVE",
"414 610 OFFCURVE",
"356 597 CURVE",
"410 608 OFFCURVE",
"489 606 OFFCURVE",
"547 590 CURVE",
"544 596 LINE",
"557 593 OFFCURVE",
"570 589 OFFCURVE",
"584 585 CURVE SMOOTH",
"590 583 OFFCURVE",
"592 576 OFFCURVE",
"585 576 CURVE",
"574 582 OFFCURVE",
"561 587 OFFCURVE",
"547 590 CURVE",
"548 589 OFFCURVE",
"549 587 OFFCURVE",
"551 586 CURVE",
"385 631 OFFCURVE",
"272 564 OFFCURVE",
"197 501 CURVE SMOOTH",
"199 503 LINE SMOOTH",
"195 499 OFFCURVE",
"191 496 OFFCURVE",
"195 499 CURVE SMOOTH",
"196 500 LINE SMOOTH",
"185 484 OFFCURVE",
"177 464 OFFCURVE",
"173 443 CURVE SMOOTH",
"158 365 OFFCURVE",
"243 337 OFFCURVE",
"228 391 CURVE",
"240 461 OFFCURVE",
"354 521 OFFCURVE",
"374 529 CURVE SMOOTH",
"427 547 OFFCURVE",
"497 566 OFFCURVE",
"545 561 CURVE",
"514 473 OFFCURVE",
"359 235 OFFCURVE",
"286 143 CURVE SMOOTH",
"252 101 OFFCURVE",
"166 3 OFFCURVE",
"110 -12 CURVE SMOOTH",
"96 -17 OFFCURVE",
"86 14 OFFCURVE",
"86 30 CURVE SMOOTH",
"86 44 OFFCURVE",
"88 49 OFFCURVE",
"89 62 CURVE",
"90 65 OFFCURVE",
"91 68 OFFCURVE",
"91 70 CURVE",
"121 134 OFFCURVE",
"180 194 OFFCURVE",
"222 209 CURVE SMOOTH",
"242 215 OFFCURVE",
"237 192 OFFCURVE",
"229 178 CURVE SMOOTH",
"205 137 OFFCURVE",
"229 144 OFFCURVE",
"239 151 CURVE SMOOTH",
"283 183 OFFCURVE",
"265 197 OFFCURVE",
"268 208 CURVE SMOOTH",
"272 220 OFFCURVE",
"246 226 OFFCURVE",
"223 242 CURVE",
"223 272 OFFCURVE",
"195 278 OFFCURVE",
"183 277 CURVE",
"140 268 OFFCURVE",
"90 213 OFFCURVE",
"66 163 CURVE",
"30 132 OFFCURVE",
"40 9 OFFCURVE",
"70 3 CURVE",
"77 -32 OFFCURVE",
"103 -51 OFFCURVE",
"129 -49 CURVE SMOOTH",
"269 -38 OFFCURVE",
"346 82 OFFCURVE",
"401 165 CURVE",
"419 87 OFFCURVE",
"468 29 OFFCURVE",
"505 0 CURVE",
"506 -12 OFFCURVE",
"514 -26 OFFCURVE",
"550 -35 CURVE SMOOTH",
"566 -39 OFFCURVE",
"621 -3 OFFCURVE",
"614 8 CURVE SMOOTH",
"611 13 OFFCURVE",
"608 16 OFFCURVE",
"605 18 CURVE",
"629 41 OFFCURVE",
"651 68 OFFCURVE",
"659 89 CURVE SMOOTH",
"667 110 OFFCURVE",
"647 99 OFFCURVE",
"640 91 CURVE SMOOTH",
"625 75 OFFCURVE",
"577 -8 OFFCURVE",
"427 191 CURVE",
"434 190 OFFCURVE",
"442 190 OFFCURVE",
"452 191 CURVE",
"446 189 OFFCURVE",
"443 188 OFFCURVE",
"445 188 CURVE",
"456 191 LINE",
"452 191 LINE",
"531 218 LINE SMOOTH",
"560 228 OFFCURVE",
"628 248 OFFCURVE",
"675 274 CURVE SMOOTH",
"691 283 OFFCURVE",
"733 303 OFFCURVE",
"779 333 CURVE"
);
},
{
closed = 1;
nodes = (
"489 195 OFFCURVE",
"533 209 OFFCURVE",
"582 227 CURVE",
"534 210 OFFCURVE",
"482 198 OFFCURVE",
"456 191 CURVE"
);
},
{
closed = 1;
nodes = (
"321 588 LINE SMOOTH",
"282 575 OFFCURVE",
"231 548 OFFCURVE",
"199 503 CURVE",
"201 505 OFFCURVE",
"203 507 OFFCURVE",
"204 509 CURVE",
"238 547 OFFCURVE",
"281 576 OFFCURVE",
"331 591 CURVE SMOOTH"
);
},
{
closed = 1;
nodes = (
"350 596 LINE",
"331 591 LINE"
);
},
{
closed = 1;
nodes = (
"590 230 OFFCURVE",
"594 231 OFFCURVE",
"598 233 CURVE",
"594 231 OFFCURVE",
"590 230 OFFCURVE",
"587 229 CURVE"
);
},
{
closed = 1;
nodes = (
"352 596 OFFCURVE",
"354 597 OFFCURVE",
"356 597 CURVE",
"354 597 OFFCURVE",
"352 596 OFFCURVE",
"350 596 CURVE"
);
},
{
closed = 1;
nodes = (
"583 227 OFFCURVE",
"585 228 OFFCURVE",
"587 229 CURVE",
"585 228 OFFCURVE",
"583 227 OFFCURVE",
"582 227 CURVE"
);
}
);
width = 712;
}
);
note = K;
unicode = 004B;
},
{
glyphname = L;
layers = (
{
hints = (
{
horizontal = 1;
place = "{-18, 21}";
target = up;
type = BottomGhost;
},
{
horizontal = 1;
place = "{51, 73}";
type = Stem;
},
{
horizontal = 1;
place = "{405, -20}";
target = down;
type = TopGhost;
},
{
horizontal = 1;
place = "{643, -20}";
target = down;
type = TopGhost;
},
{
place = "{472, 115}";
type = Stem;
},
{
horizontal = 1;
place = "{-18, 142}";
type = Stem;
},
{
place = "{475, 63}";
type = Stem;
}
);
layerId = "B9003040-D3EC-4996-96A5-33D5E21FF9E0";
paths = (
{
closed = 1;
nodes = (
"587 598 OFFCURVE",
"541 628 OFFCURVE",
"518 639 CURVE",
"459 656 OFFCURVE",
"471 611 OFFCURVE",
"477 592 CURVE",
"374 463 OFFCURVE",
"256 316 OFFCURVE",
"157 190 CURVE SMOOTH",
"122 145 OFFCURVE",
"90 105 OFFCURVE",
"62 61 CURVE",
"56 56 OFFCURVE",
"60 41 OFFCURVE",
"60 32 CURVE",
"62 33 OFFCURVE",
"64 33 OFFCURVE",
"66 33 CURVE",
"65 26 OFFCURVE",
"66 20 OFFCURVE",
"70 16 CURVE SMOOTH",
"78 7 OFFCURVE",
"85 -19 OFFCURVE",
"114 -9 CURVE SMOOTH",
"119 -7 OFFCURVE",
"232 23 OFFCURVE",
"259 29 CURVE SMOOTH",
"262 30 OFFCURVE",
"256 30 OFFCURVE",
"249 29 CURVE SMOOTH",
"225 24 OFFCURVE",
"167 10 OFFCURVE",
"144 4 CURVE",
"192 21 OFFCURVE",
"281 40 OFFCURVE",
"337 47 CURVE SMOOTH",
"440 58 OFFCURVE",
"497 54 OFFCURVE",
"467 0 CURVE SMOOTH",
"446 -37 OFFCURVE",
"490 -6 OFFCURVE",
"499 2 CURVE SMOOTH",
"537 38 OFFCURVE",
"564 86 OFFCURVE",
"500 109 CURVE SMOOTH",
"479 117 OFFCURVE",
"457 122 OFFCURVE",
"433 124 CURVE",
"463 122 OFFCURVE",
"491 117 OFFCURVE",
"515 107 CURVE",
"498 123 OFFCURVE",
"437 130 OFFCURVE",
"409 129 CURVE SMOOTH",
"363 128 OFFCURVE",
"196 105 OFFCURVE",
"168 92 CURVE",
"166 92 OFFCURVE",
"165 91 OFFCURVE",
"164 91 CURVE",
"195 133 OFFCURVE",
"243 189 OFFCURVE",
"298 248 CURVE SMOOTH",
"324 277 OFFCURVE",
"405 385 OFFCURVE",
"418 399 CURVE SMOOTH",
"448 432 OFFCURVE",
"376 335 OFFCURVE",
"362 319 CURVE SMOOTH",
"337 290 OFFCURVE",
"296 242 OFFCURVE",
"295 235 CURVE",
"312 253 OFFCURVE",
"430 397 OFFCURVE",
"493 463 CURVE SMOOTH",
"545 518 OFFCURVE",
"587 556 OFFCURVE",
"587 577 CURVE SMOOTH"
);
},
{
closed = 1;
nodes = (
"384 126 OFFCURVE",
"336 121 OFFCURVE",
"305 115 CURVE SMOOTH",
"275 108 OFFCURVE",
"207 99 OFFCURVE",
"178 94 CURVE",
"219 103 OFFCURVE",
"300 116 OFFCURVE",
"320 119 CURVE SMOOTH",
"365 124 OFFCURVE",
"400 126 OFFCURVE",
"431 124 CURVE"
);
},
{
closed = 1;
nodes = (
"171 93 OFFCURVE",
"169 92 OFFCURVE",
"168 92 CURVE SMOOTH",
"170 92 OFFCURVE",
"171 92 OFFCURVE",
"173 93 CURVE"
);
}
);
width = 544;
}
);
note = L;
unicode = 004C;
},
{
glyphname = M;
layers = (
{
hints = (
{
horizontal = 1;
place = "{599, 45}";
type = Stem;
},
{
place = "{211, 64}";
type = Stem;
},
{
place = "{734, 26}";
type = Stem;
},
{
place = "{722, 43}";
type = Stem;
}
);
layerId = "B9003040-D3EC-4996-96A5-33D5E21FF9E0";
paths = (
{
closed = 1;
nodes = (
"954 419 OFFCURVE",
"886 484 OFFCURVE",
"872 483 CURVE SMOOTH",
"847 480 OFFCURVE",
"665 294 OFFCURVE",
"653 283 CURVE",
"685 331 OFFCURVE",
"757 433 OFFCURVE",
"782 474 CURVE",
"782 495 OFFCURVE",
"732 531 OFFCURVE",
"712 531 CURVE",
"653 485 OFFCURVE",
"496 354 OFFCURVE",
"404 273 CURVE",
"483 382 OFFCURVE",
"579 495 OFFCURVE",
"646 566 CURVE",
"658 597 OFFCURVE",
"594 631 OFFCURVE",
"568 640 CURVE SMOOTH",
"552 645 OFFCURVE",
"549 640 OFFCURVE",
"550 632 CURVE",
"446 653 OFFCURVE",
"299 646 OFFCURVE",
"222 629 CURVE SMOOTH",
"137 610 OFFCURVE",
"17 566 OFFCURVE",
"-9 482 CURVE SMOOTH",
"-33 403 OFFCURVE",
"60 378 OFFCURVE",
"37 433 CURVE",
"56 504 OFFCURVE",
"233 564 OFFCURVE",
"265 572 CURVE SMOOTH",
"364 593 OFFCURVE",
"491 607 OFFCURVE",
"545 599 CURVE",
"538 574 OFFCURVE",
"504 538 OFFCURVE",
"488 520 CURVE",
"501 522 OFFCURVE",
"516 554 OFFCURVE",
"543 575 CURVE",
"482 493 OFFCURVE",
"229 165 OFFCURVE",
"211 81 CURVE SMOOTH",
"205 54 OFFCURVE",
"233 -5 OFFCURVE",
"285 -10 CURVE",
"302 -10 OFFCURVE",
"296 0 OFFCURVE",
"285 10 CURVE SMOOTH",
"257 36 OFFCURVE",
"296 117 OFFCURVE",
"318 140 CURVE SMOOTH",
"340 162 OFFCURVE",
"378 194 OFFCURVE",
"449 260 CURVE",
"452 265 OFFCURVE",
"326 158 OFFCURVE",
"329 164 CURVE",
"422 255 OFFCURVE",
"689 473 OFFCURVE",
"691 475 CURVE",
"662 435 OFFCURVE",
"523 210 OFFCURVE",
"523 162 CURVE SMOOTH",
"523 138 OFFCURVE",
"538 105 OFFCURVE",
"563 103 CURVE",
"589 168 OFFCURVE",
"794 359 OFFCURVE",
"842 405 CURVE",
"829 380 OFFCURVE",
"696 42 OFFCURVE",
"727 -55 CURVE SMOOTH",
"734 -75 LINE",
"736 -108 OFFCURVE",
"741 -139 OFFCURVE",
"787 -148 CURVE",
"870 -139 OFFCURVE",
"885 -99 OFFCURVE",
"804 -85 CURVE",
"804 -83 OFFCURVE",
"782 -77 OFFCURVE",
"762 -74 CURVE",
"765 -48 LINE",
"766 -64 OFFCURVE",
"769 -45 OFFCURVE",
"778 1 CURVE SMOOTH",
"792 82 OFFCURVE",
"887 305 OFFCURVE",
"907 340 CURVE SMOOTH",
"915 354 OFFCURVE",
"917 365 OFFCURVE",
"913 358 CURVE SMOOTH",
"888 317 OFFCURVE",
"846 230 OFFCURVE",
"813 146 CURVE",
"842 232 OFFCURVE",
"885 327 OFFCURVE",
"945 406 CURVE SMOOTH"
);
},
{
closed = 1;
nodes = (
"787 79 OFFCURVE",
"767 14 OFFCURVE",
"766 -27 CURVE SMOOTH",
"765 -35 OFFCURVE",
"765 -42 OFFCURVE",
"765 -46 CURVE",
"773 1 OFFCURVE",
"788 70 OFFCURVE",
"813 146 CURVE"
);
}
);
width = 872;
}
);
note = M;
unicode = 004D;
},
{
glyphname = N;
layers = (
{
hints = (
{
horizontal = 1;
place = "{646, 7}";
type = Stem;
},
{
place = "{298, 194}";
type = Stem;
}
);
layerId = "B9003040-D3EC-4996-96A5-33D5E21FF9E0";
paths = (
{
closed = 1;
nodes = (
"822 514 OFFCURVE",
"774 548 OFFCURVE",
"754 547 CURVE",
"669 507 OFFCURVE",
"494 347 OFFCURVE",
"397 263 CURVE",
"384 247 OFFCURVE",
"369 232 OFFCURVE",
"355 216 CURVE",
"458 347 OFFCURVE",
"623 540 OFFCURVE",
"662 580 CURVE",
"676 612 OFFCURVE",
"614 643 OFFCURVE",
"589 651 CURVE SMOOTH",
"573 656 OFFCURVE",
"570 650 OFFCURVE",
"570 642 CURVE",
"549 646 OFFCURVE",
"526 648 OFFCURVE",
"502 650 CURVE",
"521 648 OFFCURVE",
"541 646 OFFCURVE",
"561 643 CURVE SMOOTH",
"575 642 OFFCURVE",
"580 632 OFFCURVE",
"555 635 CURVE SMOOTH",
"450 649 OFFCURVE",
"366 649 OFFCURVE",
"298 638 CURVE SMOOTH",
"355 647 OFFCURVE",
"427 652 OFFCURVE",
"493 650 CURVE",
"277 665 OFFCURVE",
"125 621 OFFCURVE",
"39 529 CURVE",
"91 580 OFFCURVE",
"178 611 OFFCURVE",
"242 627 CURVE SMOOTH",
"261 631 LINE SMOOTH",
"151 607 OFFCURVE",
"84 557 OFFCURVE",
"27 512 CURVE SMOOTH",
"20 507 OFFCURVE",
"29 518 OFFCURVE",
"35 525 CURVE SMOOTH",
"20 509 OFFCURVE",
"8 492 OFFCURVE",
"1 473 CURVE SMOOTH",
"-28 393 OFFCURVE",
"63 371 OFFCURVE",
"44 425 CURVE",
"68 497 OFFCURVE",
"249 564 OFFCURVE",
"282 572 CURVE SMOOTH",
"382 597 OFFCURVE",
"510 615 OFFCURVE",
"563 610 CURVE",
"554 584 OFFCURVE",
"535 571 OFFCURVE",
"518 553 CURVE",
"531 555 OFFCURVE",
"531 563 OFFCURVE",
"559 586 CURVE",
"492 501 OFFCURVE",
"219 161 OFFCURVE",
"189 79 CURVE SMOOTH",
"179 52 OFFCURVE",
"158 -3 OFFCURVE",
"206 -1 CURVE",
"290 11 OFFCURVE",
"338 58 OFFCURVE",
"258 70 CURVE",
"297 126 OFFCURVE",
"318 143 OFFCURVE",
"390 215 CURVE",
"384 214 OFFCURVE",
"326 153 OFFCURVE",
"315 151 CURVE",
"380 228 OFFCURVE",
"694 488 OFFCURVE",
"729 491 CURVE",
"706 461 OFFCURVE",
"604 306 OFFCURVE",
"552 189 CURVE",
"554 197 OFFCURVE",
"574 245 OFFCURVE",
"573 244 CURVE",
"541 193 OFFCURVE",
"467 -11 OFFCURVE",
"586 -22 CURVE SMOOTH",
"602 -24 OFFCURVE",
"605 -19 OFFCURVE",
"595 -12 CURVE SMOOTH",
"556 15 OFFCURVE",
"597 149 OFFCURVE",
"667 265 CURVE SMOOTH",
"726 363 OFFCURVE",
"798 460 OFFCURVE",
"820 493 CURVE"
);
},
{
closed = 1;
nodes = (
"502 650 LINE",
"493 650 LINE"
);
}
);
width = 679;
}
);
note = N;
unicode = 004E;
},
{
glyphname = Eng;
lastChange = "2021-09-03 20:45:57 +0000";
layers = (
{
background = {
paths = (
{
closed = 1;
nodes = (
"587 598 OFFCURVE",
"541 628 OFFCURVE",
"518 639 CURVE",
"459 656 OFFCURVE",
"471 611 OFFCURVE",
"477 592 CURVE",
"374 463 OFFCURVE",
"256 316 OFFCURVE",
"157 190 CURVE SMOOTH",
"122 145 OFFCURVE",
"90 105 OFFCURVE",
"62 61 CURVE",
"55 55 OFFCURVE",
"64 22 OFFCURVE",
"70 16 CURVE SMOOTH",
"78 7 OFFCURVE",
"85 -19 OFFCURVE",
"114 -9 CURVE SMOOTH",
"112 -10 OFFCURVE",
"167 86 OFFCURVE",
"168 87 CURVE",
"166 87 OFFCURVE",
"165 91 OFFCURVE",
"164 91 CURVE",
"195 133 OFFCURVE",
"243 189 OFFCURVE",
"298 248 CURVE SMOOTH",
"324 277 OFFCURVE",
"405 385 OFFCURVE",
"418 399 CURVE SMOOTH",
"448 432 OFFCURVE",
"376 335 OFFCURVE",
"362 319 CURVE SMOOTH",
"337 290 OFFCURVE",
"296 242 OFFCURVE",
"295 235 CURVE",
"312 253 OFFCURVE",
"430 397 OFFCURVE",
"493 463 CURVE SMOOTH",
"545 518 OFFCURVE",
"587 556 OFFCURVE",
"587 577 CURVE SMOOTH"
);
}
);
};
hints = (
{
horizontal = 1;
place = "{-18, 21}";
target = up;
type = BottomGhost;
},
{
horizontal = 1;
place = "{51, 73}";
type = Stem;
},
{
horizontal = 1;
place = "{405, -20}";
target = down;
type = TopGhost;
},
{
horizontal = 1;
place = "{643, -20}";
target = down;
type = TopGhost;
},
{
place = "{472, 115}";
type = Stem;
},
{
horizontal = 1;
place = "{-18, 142}";
type = Stem;
},
{
place = "{475, 63}";
type = Stem;
},
{
horizontal = 1;
place = "{-219, 36}";
type = Stem;
},
{
horizontal = 1;
place = "{-28, 21}";
target = up;
type = BottomGhost;
},
{
horizontal = 1;
place = "{609, 7}";
type = Stem;
},
{
horizontal = 1;
place = "{621, 7}";
type = Stem;
},
{
place = "{984, 15}";
type = Stem;
},
{
place = "{1149, 34}";
type = Stem;
},
{
place = "{1259, 41}";
type = Stem;
},
{
place = "{1619, 13}";
type = Stem;
},
{
place = "{1579, 97}";
type = Stem;
}
);
layerId = "B9003040-D3EC-4996-96A5-33D5E21FF9E0";
paths = (
{
closed = 1;
nodes = (
"518 604 OFFCURVE",
"511 609 OFFCURVE",
"504 628 CURVE",
"477 663 OFFCURVE",
"461 646 OFFCURVE",
"458 621 CURVE",
"364 486 OFFCURVE",
"256 333 OFFCURVE",
"165 200 CURVE SMOOTH",
"132 153 OFFCURVE",
"104 111 OFFCURVE",
"74 63 CURVE",
"68 57 OFFCURVE",
"63 15 OFFCURVE",
"65 7 CURVE SMOOTH",
"66 -7 OFFCURVE",
"60 -40 OFFCURVE",
"80 -36 CURVE SMOOTH",
"78 -36 OFFCURVE",
"137 70 OFFCURVE",
"138 70 CURVE",
"136 71 OFFCURVE",
"138 76 OFFCURVE",
"136 76 CURVE",
"166 121 OFFCURVE",
"208 179 OFFCURVE",
"257 238 CURVE SMOOTH",
"279 268 OFFCURVE",
"354 383 OFFCURVE",
"366 398 CURVE SMOOTH",
"393 431 OFFCURVE",
"325 328 OFFCURVE",
"311 312 CURVE SMOOTH",
"290 282 OFFCURVE",
"252 232 OFFCURVE",
"251 223 CURVE",
"265 241 OFFCURVE",
"373 392 OFFCURVE",
"427 459 CURVE SMOOTH",
"471 514 OFFCURVE",
"504 553 OFFCURVE",
"511 578 CURVE SMOOTH"
);
},
{
closed = 1;
nodes = (
"460 0 OFFCURVE",
"504 4 OFFCURVE",
"523 9 CURVE",
"569 29 OFFCURVE",
"539 52 OFFCURVE",
"525 61 CURVE",
"525 200 OFFCURVE",
"526 358 OFFCURVE",
"525 492 CURVE SMOOTH",
"524 540 OFFCURVE",
"524 583 OFFCURVE",
"520 627 CURVE",
"521 634 OFFCURVE",
"499 651 OFFCURVE",
"493 652 CURVE SMOOTH",
"483 654 OFFCURVE",
"465 667 OFFCURVE",
"453 645 CURVE SMOOTH",
"453 647 OFFCURVE",
"466 555 OFFCURVE",
"466 555 CURVE",
"468 555 OFFCURVE",
"470 553 OFFCURVE",
"471 554 CURVE",
"473 510 OFFCURVE",
"470 448 OFFCURVE",
"465 381 CURVE SMOOTH",
"464 348 OFFCURVE",
"467 235 OFFCURVE",
"466 219 CURVE SMOOTH",
"464 181 OFFCURVE",
"461 283 OFFCURVE",
"461 300 CURVE SMOOTH",
"462 333 OFFCURVE",
"464 386 OFFCURVE",
"461 391 CURVE",
"459 370 OFFCURVE",
"457 214 OFFCURVE",
"451 138 CURVE SMOOTH",
"446 75 OFFCURVE",
"439 28 OFFCURVE",
"449 13 CURVE SMOOTH"
);
},
{
closed = 1;
nodes = (
"503 -110 LINE SMOOTH",
"470 -167 OFFCURVE",
"566 -4 OFFCURVE",
"579 22 CURVE SMOOTH",
"703 266 OFFCURVE",
"777 445 OFFCURVE",
"792 482 CURVE SMOOTH",
"793 485 OFFCURVE",
"749 391 OFFCURVE",
"732 356 CURVE SMOOTH",
"576 35 LINE",
"701 295 OFFCURVE",
"748 407 OFFCURVE",
"791 511 CURVE",
"817 549 OFFCURVE",
"874 631 OFFCURVE",
"833 660 CURVE",
"814 662 OFFCURVE",
"795 679 OFFCURVE",
"776 665 CURVE",
"764 625 LINE",
"691 361 OFFCURVE",
"340 -315 OFFCURVE",
"257 -317 CURVE SMOOTH",
"245 -317 OFFCURVE",
"219 -293 OFFCURVE",
"213 -271 CURVE SMOOTH",
"211 -262 OFFCURVE",
"209 -242 OFFCURVE",
"211 -216 CURVE SMOOTH",
"214 -178 OFFCURVE",
"268 -102 OFFCURVE",
"308 -79 CURVE SMOOTH",
"340 -59 OFFCURVE",
"350 -80 OFFCURVE",
"353 -69 CURVE SMOOTH",
"354 -49 OFFCURVE",
"266 -20 OFFCURVE",
"256 -19 CURVE",
"217 -36 OFFCURVE",
"179 -125 OFFCURVE",
"165 -167 CURVE",
"138 -203 OFFCURVE",
"185 -304 OFFCURVE",
"213 -317 CURVE",
"221 -342 OFFCURVE",
"255 -353 OFFCURVE",
"272 -356 CURVE SMOOTH",
"336 -362 OFFCURVE",
"432 -227 OFFCURVE",
"502 -112 CURVE",
"472 -167 OFFCURVE",
"441 -217 OFFCURVE",
"410 -258 CURVE",
"428 -247 OFFCURVE",
"540 -36 OFFCURVE",
"503 -110 CURVE SMOOTH",
"502 -112 LINE",
"507 -103 LINE"
);
}
);
width = 697;
}
);
unicode = 014A;
},
{
glyphname = O;
layers = (
{
hints = (
{
horizontal = 1;
place = "{-33, 38}";
type = Stem;
},
{
horizontal = 1;
place = "{-33, 44}";
type = Stem;
},
{
horizontal = 1;
place = "{549, 81}";
type = Stem;
},
{
place = "{44, 111}";
type = Stem;
},
{
place = "{601, 84}";
type = Stem;
}
);
layerId = "B9003040-D3EC-4996-96A5-33D5E21FF9E0";
paths = (
{
closed = 1;
nodes = (
"690 611 OFFCURVE",
"656 632 OFFCURVE",
"623 632 CURVE SMOOTH",
"612 632 OFFCURVE",
"588 637 OFFCURVE",
"578 628 CURVE SMOOTH",
"568 618 OFFCURVE",
"605 622 OFFCURVE",
"602 591 CURVE SMOOTH",
"600 578 OFFCURVE",
"597 564 OFFCURVE",
"592 548 CURVE",
"571 593 OFFCURVE",
"516 631 OFFCURVE",
"476 630 CURVE",
"264 513 OFFCURVE",
"124 357 OFFCURVE",
"52 158 CURVE SMOOTH",
"32 104 OFFCURVE",
"52 1 OFFCURVE",
"114 8 CURVE",
"137 -17 OFFCURVE",
"152 -33 OFFCURVE",
"181 -32 CURVE SMOOTH",
"240 -31 OFFCURVE",
"354 39 OFFCURVE",
"443 143 CURVE SMOOTH",
"450 152 OFFCURVE",
"564 274 OFFCURVE",
"622 402 CURVE SMOOTH",
"624 406 OFFCURVE",
"558 303 OFFCURVE",
"541 279 CURVE SMOOTH",
"513 240 OFFCURVE",
"474 197 OFFCURVE",
"455 179 CURVE",
"521 264 OFFCURVE",
"673 465 OFFCURVE",
"685 570 CURVE SMOOTH"
);
},
{
closed = 1;
nodes = (
"516 400 LINE",
"477 348 OFFCURVE",
"426 274 OFFCURVE",
"391 230 CURVE SMOOTH",
"300 119 OFFCURVE",
"203 38 OFFCURVE",
"164 14 CURVE",
"233 47 OFFCURVE",
"359 176 OFFCURVE",
"455 311 CURVE SMOOTH",
"383 210 OFFCURVE",
"326 131 OFFCURVE",
"280 91 CURVE SMOOTH",
"241 58 OFFCURVE",
"196 25 OFFCURVE",
"172 12 CURVE SMOOTH",
"155 2 OFFCURVE",
"149 5 OFFCURVE",
"163 13 CURVE",
"133 1 OFFCURVE",
"108 52 OFFCURVE",
"117 82 CURVE SMOOTH",
"182 294 OFFCURVE",
"332 435 OFFCURVE",
"432 509 CURVE SMOOTH",
"487 549 OFFCURVE",
"523 558 OFFCURVE",
"546 544 CURVE SMOOTH",
"558 536 OFFCURVE",
"570 526 OFFCURVE",
"580 518 CURVE",
"565 482 OFFCURVE",
"542 442 OFFCURVE",
"516 400 CURVE",
"543 436 LINE",
"505 383 LINE"
);
},
{
closed = 1;
nodes = (
"473 338 LINE SMOOTH",
"467 329 OFFCURVE",
"461 319 OFFCURVE",
"455 311 CURVE"
);
},
{
closed = 1;
nodes = (
"479 346 LINE",
"479 346 OFFCURVE",
"478 345 OFFCURVE",
"478 344 CURVE"
);
},
{
closed = 1;
nodes = (
"475 340 LINE SMOOTH",
"474 339 OFFCURVE",
"474 338 OFFCURVE",
"473 338 CURVE"
);
}
);
width = 516;
}
);
note = O;
unicode = 004F;
},
{
glyphname = Oslash;
layers = (
{
hints = (
{
horizontal = 1;
place = "{-33, 38}";
type = Stem;
},
{
horizontal = 1;
place = "{-33, 44}";
type = Stem;
},
{
horizontal = 1;
place = "{549, 81}";
type = Stem;
},
{
place = "{44, 111}";
type = Stem;
},
{
place = "{601, 84}";
type = Stem;
}
);
layerId = "B9003040-D3EC-4996-96A5-33D5E21FF9E0";
paths = (
{
closed = 1;
nodes = (
"717 682 OFFCURVE",
"720 689 OFFCURVE",
"690 688 CURVE SMOOTH",
"666 687 OFFCURVE",
"652 676 OFFCURVE",
"642 658 CURVE",
"624 633 LINE",
"614 634 OFFCURVE",
"604 633 OFFCURVE",
"598 628 CURVE SMOOTH",
"593 623 OFFCURVE",
"601 621 OFFCURVE",
"610 616 CURVE",
"574 575 LINE",
"548 607 OFFCURVE",
"507 631 OFFCURVE",
"476 630 CURVE",
"264 513 OFFCURVE",
"124 357 OFFCURVE",
"52 158 CURVE SMOOTH",
"38 119 OFFCURVE",
"44 56 OFFCURVE",
"71 25 CURVE",
"69 23 LINE SMOOTH",
"61 14 OFFCURVE",
"-20 -79 OFFCURVE",
"-22 -83 CURVE SMOOTH",
"-30 -103 OFFCURVE",
"7 -140 OFFCURVE",
"46 -79 CURVE SMOOTH",
"53 -68 OFFCURVE",
"81 -32 OFFCURVE",
"112 8 CURVE",
"114 8 LINE",
"137 -17 OFFCURVE",
"172 -33 OFFCURVE",
"201 -32 CURVE SMOOTH",
"260 -31 OFFCURVE",
"374 39 OFFCURVE",
"463 143 CURVE SMOOTH",
"470 152 OFFCURVE",
"584 274 OFFCURVE",
"642 402 CURVE SMOOTH",
"644 406 OFFCURVE",
"578 303 OFFCURVE",
"561 279 CURVE SMOOTH",
"533 240 OFFCURVE",
"494 188 OFFCURVE",
"475 170 CURVE",
"542 255 OFFCURVE",
"693 465 OFFCURVE",
"705 570 CURVE SMOOTH",
"709 601 OFFCURVE",
"690 621 OFFCURVE",
"666 629 CURVE",
"675 638 OFFCURVE",
"680 645 OFFCURVE",
"682 647 CURVE SMOOTH",
"684 650 OFFCURVE",
"709 663 OFFCURVE",
"714 675 CURVE SMOOTH"
);
},
{
closed = 1;
nodes = (
"497 348 OFFCURVE",
"446 274 OFFCURVE",
"411 230 CURVE SMOOTH",
"320 119 OFFCURVE",
"223 38 OFFCURVE",
"184 14 CURVE",
"253 48 OFFCURVE",
"379 176 OFFCURVE",
"475 311 CURVE SMOOTH",
"403 210 OFFCURVE",
"346 131 OFFCURVE",
"300 91 CURVE SMOOTH",
"261 58 OFFCURVE",
"216 25 OFFCURVE",
"192 12 CURVE SMOOTH",
"175 2 OFFCURVE",
"169 5 OFFCURVE",
"183 13 CURVE",
"167 6 OFFCURVE",
"146 18 OFFCURVE",
"133 34 CURVE",
"161 68 OFFCURVE",
"189 103 OFFCURVE",
"206 122 CURVE",
"190 103 OFFCURVE",
"189 98 OFFCURVE",
"160 62 CURVE",
"184 87 OFFCURVE",
"232 147 OFFCURVE",
"243 160 CURVE SMOOTH",
"262 183 OFFCURVE",
"448 387 OFFCURVE",
"572 524 CURVE",
"583 516 OFFCURVE",
"592 508 OFFCURVE",
"596 509 CURVE",
"581 476 OFFCURVE",
"560 439 OFFCURVE",
"536 400 CURVE",
"563 436 LINE",
"545 411 OFFCURVE",
"528 386 OFFCURVE",
"511 363 CURVE SMOOTH",
"520 375 OFFCURVE",
"528 388 OFFCURVE",
"536 400 CURVE"
);
},
{
closed = 1;
nodes = (
"439 423 OFFCURVE",
"279 252 OFFCURVE",
"259 229 CURVE SMOOTH",
"247 216 OFFCURVE",
"179 137 OFFCURVE",
"117 66 CURVE",
"116 67 OFFCURVE",
"116 68 OFFCURVE",
"116 69 CURVE",
"147 105 OFFCURVE",
"175 137 OFFCURVE",
"183 145 CURVE",
"177 140 OFFCURVE",
"145 105 OFFCURVE",
"116 74 CURVE",
"116 77 OFFCURVE",
"116 79 OFFCURVE",
"117 82 CURVE SMOOTH",
"182 294 OFFCURVE",
"332 435 OFFCURVE",
"432 509 CURVE SMOOTH",
"487 549 OFFCURVE",
"523 558 OFFCURVE",
"546 544 CURVE"
);
},
{
closed = 1;
nodes = (
"619 577 LINE",
"616 559 OFFCURVE",
"609 539 OFFCURVE",
"599 517 CURVE",
"599 522 LINE SMOOTH",
"598 530 OFFCURVE",
"596 539 OFFCURVE",
"592 547 CURVE"
);
},
{
closed = 1;
nodes = (
"20 -43 LINE",
"31 -29 OFFCURVE",
"52 -6 OFFCURVE",
"75 21 CURVE",
"76 20 LINE"
);
}
);
width = 532;
}
);
note = Oslash;
unicode = 00D8;
},
{
glyphname = OE;
layers = (
{
hints = (
{
horizontal = 1;
place = "{-33, 38}";
type = Stem;
},
{
horizontal = 1;
place = "{-33, 44}";
type = Stem;
},
{
horizontal = 1;
place = "{549, 81}";
type = Stem;
},
{
place = "{44, 111}";
type = Stem;
},
{
place = "{601, 84}";
type = Stem;
}
);
layerId = "B9003040-D3EC-4996-96A5-33D5E21FF9E0";
paths = (
{
closed = 1;
nodes = (
"741 127 LINE SMOOTH",
"704 108 OFFCURVE",
"638 77 OFFCURVE",
"615 71 CURVE SMOOTH",
"610 70 OFFCURVE",
"643 88 OFFCURVE",
"663 97 CURVE SMOOTH",
"670 100 OFFCURVE",
"679 104 OFFCURVE",
"688 109 CURVE",
"595 68 OFFCURVE",
"506 50 OFFCURVE",
"476 73 CURVE",
"473 102 OFFCURVE",
"624 171 OFFCURVE",
"717 196 CURVE SMOOTH",
"732 200 OFFCURVE",
"784 243 OFFCURVE",
"759 250 CURVE SMOOTH",
"705 266 OFFCURVE",
"629 290 OFFCURVE",
"572 312 CURVE",
"590 340 OFFCURVE",
"607 371 OFFCURVE",
"622 402 CURVE SMOOTH",
"623 405 OFFCURVE",
"590 353 OFFCURVE",
"565 314 CURVE",
"557 317 LINE",
"588 362 OFFCURVE",
"619 411 OFFCURVE",
"643 456 CURVE",
"650 459 OFFCURVE",
"658 461 OFFCURVE",
"666 464 CURVE SMOOTH",
"812 526 OFFCURVE",
"968 548 OFFCURVE",
"1079 550 CURVE SMOOTH",
"1140 551 OFFCURVE",
"1175 546 OFFCURVE",
"1097 488 CURVE SMOOTH",
"1029 436 OFFCURVE",
"897 369 OFFCURVE",
"821 363 CURVE SMOOTH",
"768 360 OFFCURVE",
"844 425 OFFCURVE",
"859 438 CURVE SMOOTH",
"904 475 OFFCURVE",
"894 478 OFFCURVE",
"879 473 CURVE SMOOTH",
"814 452 OFFCURVE",
"768 393 OFFCURVE",
"759 380 CURVE SMOOTH",
"742 356 OFFCURVE",
"787 300 OFFCURVE",
"798 293 CURVE",
"860 290 OFFCURVE",
"1018 376 OFFCURVE",
"1067 418 CURVE",
"1111 410 OFFCURVE",
"1220 499 OFFCURVE",
"1230 545 CURVE SMOOTH",
"1233 562 OFFCURVE",
"1204 594 OFFCURVE",
"1200 589 CURVE SMOOTH",
"1195 582 OFFCURVE",
"1196 576 OFFCURVE",
"1190 567 CURVE SMOOTH",
"1185 558 OFFCURVE",
"1176 548 OFFCURVE",
"1170 545 CURVE",
"1178 557 OFFCURVE",
"1204 580 OFFCURVE",
"1181 627 CURVE",
"1106 659 OFFCURVE",
"934 627 OFFCURVE",
"774 575 CURVE SMOOTH",
"680 544 LINE",
"683 553 OFFCURVE",
"684 562 OFFCURVE",
"685 570 CURVE SMOOTH",
"690 611 OFFCURVE",
"656 632 OFFCURVE",
"623 632 CURVE SMOOTH",
"612 632 OFFCURVE",
"588 637 OFFCURVE",
"578 628 CURVE SMOOTH",
"568 618 OFFCURVE",
"605 622 OFFCURVE",
"602 591 CURVE SMOOTH",
"600 578 OFFCURVE",
"597 564 OFFCURVE",
"592 548 CURVE",
"571 593 OFFCURVE",
"516 631 OFFCURVE",
"476 630 CURVE",
"264 513 OFFCURVE",
"124 357 OFFCURVE",
"52 158 CURVE SMOOTH",
"32 104 OFFCURVE",
"52 1 OFFCURVE",
"114 8 CURVE",
"137 -17 OFFCURVE",
"152 -33 OFFCURVE",
"181 -32 CURVE SMOOTH",
"228 -32 OFFCURVE",
"309 12 OFFCURVE",
"385 82 CURVE",
"384 54 OFFCURVE",
"392 22 OFFCURVE",
"403 -1 CURVE",
"404 -6 OFFCURVE",
"395 5 OFFCURVE",
"391 -6 CURVE SMOOTH",
"384 -27 OFFCURVE",
"406 -44 OFFCURVE",
"434 -48 CURVE SMOOTH",
"457 -52 OFFCURVE",
"508 -47 OFFCURVE",
"530 -32 CURVE SMOOTH",
"535 -29 OFFCURVE",
"538 -19 OFFCURVE",
"538 -14 CURVE",
"691 28 OFFCURVE",
"908 150 OFFCURVE",
"1000 235 CURVE SMOOTH",
"1033 265 OFFCURVE",
"1033 281 OFFCURVE",
"999 263 CURVE SMOOTH",
"972 248 OFFCURVE",
"916 218 OFFCURVE",
"851 186 CURVE",
"908 217 OFFCURVE",
"958 247 OFFCURVE",
"970 258 CURVE",
"936 240 OFFCURVE",
"770 150 OFFCURVE",
"746 138 CURVE SMOOTH",
"733 131 LINE SMOOTH",
"772 150 OFFCURVE",
"813 168 OFFCURVE",
"851 186 CURVE"
);
},
{
closed = 1;
nodes = (
"477 348 OFFCURVE",
"426 274 OFFCURVE",
"391 230 CURVE SMOOTH",
"300 119 OFFCURVE",
"203 38 OFFCURVE",
"164 14 CURVE",
"233 48 OFFCURVE",
"359 176 OFFCURVE",
"455 311 CURVE SMOOTH",
"383 210 OFFCURVE",
"326 131 OFFCURVE",
"280 91 CURVE SMOOTH",
"241 58 OFFCURVE",
"196 25 OFFCURVE",
"172 12 CURVE SMOOTH",
"155 2 OFFCURVE",
"149 5 OFFCURVE",
"163 13 CURVE",
"133 1 OFFCURVE",
"108 52 OFFCURVE",
"117 82 CURVE SMOOTH",
"182 294 OFFCURVE",
"332 435 OFFCURVE",
"432 509 CURVE SMOOTH",
"487 549 OFFCURVE",
"523 558 OFFCURVE",
"546 544 CURVE SMOOTH",
"558 536 OFFCURVE",
"570 526 OFFCURVE",
"580 518 CURVE",
"565 482 OFFCURVE",
"542 442 OFFCURVE",
"516 400 CURVE",
"543 436 LINE",
"525 411 OFFCURVE",
"508 386 OFFCURVE",
"491 363 CURVE SMOOTH",
"500 375 OFFCURVE",
"508 388 OFFCURVE",
"516 400 CURVE"
);
},
{
closed = 1;
nodes = (
"594 225 OFFCURVE",
"569 218 OFFCURVE",
"551 209 CURVE",
"532 205 OFFCURVE",
"508 198 OFFCURVE",
"482 188 CURVE",
"497 207 OFFCURVE",
"515 229 OFFCURVE",
"534 255 CURVE",
"567 244 OFFCURVE",
"599 237 OFFCURVE",
"615 235 CURVE"
);
},
{
closed = 1;
nodes = (
"1128 627 OFFCURVE",
"1130 619 OFFCURVE",
"1102 620 CURVE SMOOTH",
"1017 621 OFFCURVE",
"846 588 OFFCURVE",
"705 544 CURVE",
"732 555 OFFCURVE",
"768 567 OFFCURVE",
"797 575 CURVE SMOOTH",
"924 612 OFFCURVE",
"1040 629 OFFCURVE",
"1113 627 CURVE SMOOTH"
);
},
{
closed = 1;
nodes = (
"616 218 OFFCURVE",
"561 207 OFFCURVE",
"518 195 CURVE",
"535 202 OFFCURVE",
"555 208 OFFCURVE",
"572 214 CURVE",
"599 220 OFFCURVE",
"615 225 OFFCURVE",
"631 228 CURVE SMOOTH",
"639 229 OFFCURVE",
"653 222 OFFCURVE",
"638 220 CURVE SMOOTH"
);
},
{
closed = 1;
nodes = (
"525 258 LINE",
"500 225 OFFCURVE",
"470 194 OFFCURVE",
"455 179 CURVE",
"517 261 LINE"
);
},
{
closed = 1;
nodes = (
"472 177 LINE",
"476 181 LINE",
"484 184 OFFCURVE",
"492 187 OFFCURVE",
"500 189 CURVE"
);
},
{
closed = 1;
nodes = (
"715 123 OFFCURVE",
"701 116 OFFCURVE",
"688 109 CURVE",
"703 116 OFFCURVE",
"718 123 OFFCURVE",
"733 131 CURVE"
);
},
{
closed = 1;
nodes = (
"678 537 LINE",
"679 538 LINE",
"693 543 LINE"
);
}
);
width = 936;
}
);
note = OE;
unicode = 0152;
},
{
glyphname = P;
layers = (
{
hints = (
{
horizontal = 1;
place = "{522, 62}";
type = Stem;
},
{
place = "{60, 56}";
type = Stem;
},
{
place = "{154, 110}";
type = Stem;
},
{
place = "{679, 42}";
type = Stem;
}
);
layerId = "B9003040-D3EC-4996-96A5-33D5E21FF9E0";
paths = (
{
closed = 1;
nodes = (
"392 658 OFFCURVE",
"265 641 OFFCURVE",
"170 609 CURVE SMOOTH",
"113 590 OFFCURVE",
"73 565 OFFCURVE",
"29 541 CURVE SMOOTH",
"32 543 LINE",
"25 539 LINE",
"29 541 LINE",
"12 524 OFFCURVE",
"-2 505 OFFCURVE",
"-9 482 CURVE SMOOTH",
"-33 403 OFFCURVE",
"60 378 OFFCURVE",
"37 433 CURVE",
"56 504 OFFCURVE",
"233 564 OFFCURVE",
"265 572 CURVE SMOOTH",
"364 593 OFFCURVE",
"491 607 OFFCURVE",
"545 599 CURVE",
"538 574 OFFCURVE",
"504 538 OFFCURVE",
"488 520 CURVE",
"501 522 OFFCURVE",
"516 554 OFFCURVE",
"543 575 CURVE",
"482 493 OFFCURVE",
"231 162 OFFCURVE",
"206 81 CURVE SMOOTH",
"198 54 OFFCURVE",
"194 -2 OFFCURVE",
"241 -9 CURVE SMOOTH",
"330 -22 OFFCURVE",
"371 27 OFFCURVE",
"290 41 CURVE",
"268 84 OFFCURVE",
"361 209 OFFCURVE",
"417 282 CURVE SMOOTH",
"507 399 OFFCURVE",
"616 534 OFFCURVE",
"646 566 CURVE",
"716 551 OFFCURVE",
"803 515 OFFCURVE",
"803 460 CURVE SMOOTH",
"803 359 OFFCURVE",
"575 242 OFFCURVE",
"425 210 CURVE SMOOTH",
"422 209 OFFCURVE",
"420 207 OFFCURVE",
"418 206 CURVE SMOOTH",
"413 203 OFFCURVE",
"411 201 OFFCURVE",
"411 197 CURVE",
"414 192 OFFCURVE",
"416 188 OFFCURVE",
"437 188 CURVE SMOOTH",
"476 188 OFFCURVE",
"529 195 OFFCURVE",
"585 209 CURVE SMOOTH",
"570 205 OFFCURVE",
"554 203 OFFCURVE",
"539 201 CURVE",
"541 202 LINE",
"563 208 OFFCURVE",
"650 233 OFFCURVE",
"689 248 CURVE SMOOTH",
"695 250 OFFCURVE",
"735 264 OFFCURVE",
"778 302 CURVE SMOOTH",
"786 309 LINE SMOOTH",
"743 267 OFFCURVE",
"676 235 OFFCURVE",
"609 215 CURVE SMOOTH",
"633 222 OFFCURVE",
"655 227 OFFCURVE",
"668 233 CURVE SMOOTH",
"724 260 OFFCURVE",
"756 272 OFFCURVE",
"787 303 CURVE SMOOTH",
"803 318 OFFCURVE",
"821 335 OFFCURVE",
"833 373 CURVE",
"816 340 OFFCURVE",
"802 324 OFFCURVE",
"788 311 CURVE",
"824 347 OFFCURVE",
"844 391 OFFCURVE",
"834 443 CURVE",
"894 559 OFFCURVE",
"720 617 OFFCURVE",
"613 617 CURVE",
"597 628 OFFCURVE",
"579 636 OFFCURVE",
"568 640 CURVE SMOOTH",
"552 645 OFFCURVE",
"549 640 OFFCURVE",
"550 632 CURVE",
"521 638 OFFCURVE",
"489 641 OFFCURVE",
"457 643 CURVE",
"489 641 OFFCURVE",
"522 636 OFFCURVE",
"556 630 CURVE SMOOTH",
"568 628 OFFCURVE",
"565 624 OFFCURVE",
"557 626 CURVE SMOOTH"
);
},
{
closed = 1;
nodes = (
"336 650 OFFCURVE",
"252 640 OFFCURVE",
"177 617 CURVE SMOOTH",
"193 622 OFFCURVE",
"208 625 OFFCURVE",
"222 629 CURVE SMOOTH",
"273 640 OFFCURVE",
"352 647 OFFCURVE",
"431 644 CURVE"
);
},
{
closed = 1;
nodes = (
"103 590 OFFCURVE",
"61 571 OFFCURVE",
"32 543 CURVE",
"40 549 LINE SMOOTH",
"72 571 OFFCURVE",
"106 591 OFFCURVE",
"144 606 CURVE"
);
},
{
closed = 1;
nodes = (
"166 614 OFFCURVE",
"162 612 OFFCURVE",
"158 611 CURVE",
"162 612 OFFCURVE",
"166 614 OFFCURVE",
"171 615 CURVE"
);
},
{
closed = 1;
nodes = (
"447 643 OFFCURVE",
"439 644 OFFCURVE",
"431 644 CURVE",
"439 644 OFFCURVE",
"447 643 OFFCURVE",
"455 643 CURVE"
);
},
{
closed = 1;
nodes = (
"597 212 LINE",
"609 215 LINE"
);
},
{
closed = 1;
nodes = (
"585 209 LINE",
"597 212 LINE"
);
},
{
closed = 1;
nodes = (
"158 611 LINE",
"149 608 LINE"
);
},
{
closed = 1;
nodes = (
"147 607 OFFCURVE",
"146 606 OFFCURVE",
"144 606 CURVE",
"146 606 OFFCURVE",
"147 607 OFFCURVE",
"149 608 CURVE"
);
}
);
width = 727;
}
);
note = P;
unicode = 0050;
},
{
glyphname = Thorn;
layers = (
{
hints = (
{
horizontal = 1;
place = "{522, 62}";
type = Stem;
},
{
place = "{60, 56}";
type = Stem;
},
{
place = "{154, 110}";
type = Stem;
},
{
place = "{679, 42}";
type = Stem;
}
);
layerId = "B9003040-D3EC-4996-96A5-33D5E21FF9E0";
paths = (
{
closed = 1;
nodes = (
"556 582 OFFCURVE",
"456 459 OFFCURVE",
"370 346 CURVE SMOOTH",
"288 233 OFFCURVE",
"193 96 OFFCURVE",
"180 51 CURVE SMOOTH",
"172 24 OFFCURVE",
"167 -32 OFFCURVE",
"215 -39 CURVE SMOOTH",
"303 -52 OFFCURVE",
"344 -3 OFFCURVE",
"263 11 CURVE",
"239 59 OFFCURVE",
"437 332 OFFCURVE",
"489 390 CURVE SMOOTH",
"508 411 OFFCURVE",
"560 482 OFFCURVE",
"584 512 CURVE",
"585 512 OFFCURVE",
"587 512 OFFCURVE",
"589 511 CURVE",
"575 491 OFFCURVE",
"552 461 OFFCURVE",
"545 453 CURVE SMOOTH",
"523 428 OFFCURVE",
"488 384 OFFCURVE",
"487 378 CURVE",
"497 389 OFFCURVE",
"547 452 OFFCURVE",
"596 510 CURVE",
"667 493 OFFCURVE",
"751 454 OFFCURVE",
"751 407 CURVE SMOOTH",
"751 306 OFFCURVE",
"523 189 OFFCURVE",
"373 157 CURVE SMOOTH",
"370 156 OFFCURVE",
"368 154 OFFCURVE",
"366 153 CURVE SMOOTH",
"361 150 OFFCURVE",
"359 148 OFFCURVE",
"359 144 CURVE",
"362 139 OFFCURVE",
"364 135 OFFCURVE",
"385 135 CURVE SMOOTH",
"424 135 OFFCURVE",
"477 142 OFFCURVE",
"533 156 CURVE SMOOTH",
"518 152 OFFCURVE",
"502 150 OFFCURVE",
"487 148 CURVE",
"489 149 LINE",
"511 155 OFFCURVE",
"598 180 OFFCURVE",
"637 195 CURVE SMOOTH",
"643 197 OFFCURVE",
"683 211 OFFCURVE",
"726 249 CURVE SMOOTH",
"734 256 LINE SMOOTH",
"691 214 OFFCURVE",
"624 182 OFFCURVE",
"557 162 CURVE SMOOTH",
"581 169 OFFCURVE",
"603 174 OFFCURVE",
"616 180 CURVE SMOOTH",
"672 207 OFFCURVE",
"704 219 OFFCURVE",
"735 250 CURVE SMOOTH",
"751 265 OFFCURVE",
"769 282 OFFCURVE",
"781 320 CURVE",
"764 287 OFFCURVE",
"750 271 OFFCURVE",
"736 258 CURVE",
"772 294 OFFCURVE",
"801 347 OFFCURVE",
"791 399 CURVE",
"837 488 OFFCURVE",
"735 541 OFFCURVE",
"642 563 CURVE",
"660 582 LINE SMOOTH",
"705 631 OFFCURVE",
"741 666 OFFCURVE",
"741 685 CURVE SMOOTH",
"741 703 OFFCURVE",
"701 730 OFFCURVE",
"681 740 CURVE",
"630 755 OFFCURVE",
"640 715 OFFCURVE",
"646 698 CURVE"
);
},
{
closed = 1;
nodes = (
"545 159 LINE",
"557 162 LINE"
);
},
{
closed = 1;
nodes = (
"533 156 LINE",
"545 159 LINE"
);
}
);
width = 727;
}
);
note = Thorn;
unicode = 00DE;
},
{
glyphname = Q;
layers = (
{
hints = (
{
horizontal = 1;
place = "{-150, 23}";
type = Stem;
},
{
horizontal = 1;
place = "{-33, 10}";
type = Stem;
},
{
horizontal = 1;
place = "{550, 80}";
type = Stem;
},
{
place = "{-118, 27}";
type = Stem;
},
{
place = "{45, 110}";
type = Stem;
},
{
place = "{602, 83}";
type = Stem;
},
{
horizontal = 1;
place = "{-32, 38}";
type = Stem;
}
);
layerId = "B9003040-D3EC-4996-96A5-33D5E21FF9E0";
paths = (
{
closed = 1;
nodes = (
"690 611 OFFCURVE",
"656 632 OFFCURVE",
"623 632 CURVE SMOOTH",
"612 632 OFFCURVE",
"588 637 OFFCURVE",
"578 628 CURVE SMOOTH",
"568 618 OFFCURVE",
"605 622 OFFCURVE",
"602 591 CURVE SMOOTH",
"600 578 OFFCURVE",
"597 564 OFFCURVE",
"592 548 CURVE",
"571 593 OFFCURVE",
"516 631 OFFCURVE",
"476 630 CURVE",
"264 513 OFFCURVE",
"124 357 OFFCURVE",
"52 158 CURVE SMOOTH",
"32 104 OFFCURVE",
"52 1 OFFCURVE",
"114 8 CURVE",
"137 -17 OFFCURVE",
"152 -33 OFFCURVE",
"181 -32 CURVE SMOOTH",
"240 -31 OFFCURVE",
"354 39 OFFCURVE",
"443 143 CURVE SMOOTH",
"450 152 OFFCURVE",
"564 274 OFFCURVE",
"622 402 CURVE SMOOTH",
"624 406 OFFCURVE",
"558 303 OFFCURVE",
"541 279 CURVE SMOOTH",
"513 240 OFFCURVE",
"474 197 OFFCURVE",
"455 179 CURVE",
"521 264 OFFCURVE",
"673 465 OFFCURVE",
"685 570 CURVE SMOOTH"
);
},
{
closed = 1;
nodes = (
"477 348 OFFCURVE",
"426 274 OFFCURVE",
"391 230 CURVE SMOOTH",
"300 119 OFFCURVE",
"203 38 OFFCURVE",
"164 14 CURVE",
"233 48 OFFCURVE",
"359 176 OFFCURVE",
"455 311 CURVE SMOOTH",
"383 210 OFFCURVE",
"326 131 OFFCURVE",
"280 91 CURVE SMOOTH",
"241 58 OFFCURVE",
"196 25 OFFCURVE",
"172 12 CURVE SMOOTH",
"155 2 OFFCURVE",
"149 5 OFFCURVE",
"163 13 CURVE",
"133 1 OFFCURVE",
"108 52 OFFCURVE",
"117 82 CURVE SMOOTH",
"182 294 OFFCURVE",
"332 435 OFFCURVE",
"432 509 CURVE SMOOTH",
"487 549 OFFCURVE",
"523 558 OFFCURVE",
"546 544 CURVE SMOOTH",
"558 536 OFFCURVE",
"570 526 OFFCURVE",
"580 518 CURVE",
"565 482 OFFCURVE",
"542 442 OFFCURVE",
"516 400 CURVE",
"543 436 LINE",
"525 411 OFFCURVE",
"508 386 OFFCURVE",
"491 363 CURVE SMOOTH",
"500 375 OFFCURVE",
"508 388 OFFCURVE",
"516 400 CURVE"
);
},
{
closed = 1;
nodes = (
"403 -15 OFFCURVE",
"72 -60 OFFCURVE",
"-95 -87 CURVE",
"-132 -77 OFFCURVE",
"-119 -127 OFFCURVE",
"-93 -157 CURVE",
"-91 -156 LINE",
"-84 -182 OFFCURVE",
"-60 -161 OFFCURVE",
"-35 -155 CURVE SMOOTH",
"-14 -150 OFFCURVE",
"18 -148 OFFCURVE",
"24 -153 CURVE",
"30 -160 OFFCURVE",
"34 -161 OFFCURVE",
"35 -147 CURVE SMOOTH",
"35 -140 OFFCURVE",
"31 -133 OFFCURVE",
"24 -127 CURVE",
"164 -93 LINE SMOOTH",
"266 -70 OFFCURVE",
"385 -44 OFFCURVE",
"502 -33 CURVE SMOOTH",
"527 -31 OFFCURVE",
"521 -25 OFFCURVE",
"503 -23 CURVE SMOOTH"
);
}
);
width = 537;
}
);
note = Q;
unicode = 0051;
},
{
glyphname = R;
layers = (
{
hints = (
{
horizontal = 1;
place = "{0, 21}";
target = up;
type = BottomGhost;
},
{
horizontal = 1;
place = "{188, 21}";
type = Stem;
},
{
horizontal = 1;
place = "{373, -20}";
target = down;
type = TopGhost;
},
{
horizontal = 1;
place = "{599, 44}";
type = Stem;
},
{
place = "{201, 86}";
type = Stem;
},
{
place = "{803, 43}";
type = Stem;
},
{
horizontal = 1;
place = "{-9, 21}";
target = up;
type = BottomGhost;
},
{
horizontal = 1;
place = "{566, 51}";
type = Stem;
},
{
horizontal = 1;
place = "{0, 60}";
type = Stem;
},
{
horizontal = 1;
place = "{640, -20}";
target = down;
type = TopGhost;
},
{
horizontal = 1;
place = "{599, 33}";
type = Stem;
},
{
horizontal = 1;
place = "{630, 13}";
type = Stem;
},
{
horizontal = 1;
place = "{599, 45}";
type = Stem;
},
{
horizontal = 1;
place = "{606, 20}";
type = Stem;
},
{
horizontal = 1;
place = "{632, -20}";
target = down;
type = TopGhost;
}
);
layerId = "B9003040-D3EC-4996-96A5-33D5E21FF9E0";
paths = (
{
closed = 1;
nodes = (
"392 658 OFFCURVE",
"265 641 OFFCURVE",
"170 609 CURVE SMOOTH",
"113 590 OFFCURVE",
"73 565 OFFCURVE",
"29 541 CURVE SMOOTH",
"32 543 LINE",
"25 539 LINE",
"29 541 LINE",
"12 524 OFFCURVE",
"-2 505 OFFCURVE",
"-9 482 CURVE SMOOTH",
"-33 403 OFFCURVE",
"60 378 OFFCURVE",
"37 433 CURVE",
"56 504 OFFCURVE",
"233 564 OFFCURVE",
"265 572 CURVE SMOOTH",
"364 593 OFFCURVE",
"491 607 OFFCURVE",
"545 599 CURVE",
"538 574 OFFCURVE",
"504 538 OFFCURVE",
"488 520 CURVE",
"501 522 OFFCURVE",
"516 554 OFFCURVE",
"543 575 CURVE",
"482 493 OFFCURVE",
"231 162 OFFCURVE",
"206 81 CURVE SMOOTH",
"198 54 OFFCURVE",
"194 -2 OFFCURVE",
"241 -9 CURVE SMOOTH",
"330 -22 OFFCURVE",
"371 27 OFFCURVE",
"290 41 CURVE",
"268 84 OFFCURVE",
"361 209 OFFCURVE",
"417 282 CURVE SMOOTH",
"507 399 OFFCURVE",
"616 534 OFFCURVE",
"646 566 CURVE",
"716 551 OFFCURVE",
"803 515 OFFCURVE",
"803 460 CURVE SMOOTH",
"803 359 OFFCURVE",
"575 242 OFFCURVE",
"425 210 CURVE SMOOTH",
"422 209 OFFCURVE",
"420 207 OFFCURVE",
"418 206 CURVE SMOOTH",
"415 204 LINE",
"405 211 OFFCURVE",
"393 213 OFFCURVE",
"396 193 CURVE SMOOTH",
"409 102 OFFCURVE",
"463 33 OFFCURVE",
"505 0 CURVE",
"506 -12 OFFCURVE",
"513 -26 OFFCURVE",
"550 -35 CURVE SMOOTH",
"566 -39 OFFCURVE",
"621 -3 OFFCURVE",
"614 8 CURVE SMOOTH",
"611 13 OFFCURVE",
"608 16 OFFCURVE",
"605 18 CURVE",
"629 41 OFFCURVE",
"651 68 OFFCURVE",
"659 89 CURVE SMOOTH",
"667 110 OFFCURVE",
"647 99 OFFCURVE",
"640 91 CURVE SMOOTH",
"625 75 OFFCURVE",
"578 -7 OFFCURVE",
"429 188 CURVE",
"437 188 LINE SMOOTH",
"476 188 OFFCURVE",
"529 195 OFFCURVE",
"585 209 CURVE SMOOTH",
"570 205 OFFCURVE",
"554 203 OFFCURVE",
"539 201 CURVE",
"541 202 LINE",
"563 208 OFFCURVE",
"650 233 OFFCURVE",
"689 248 CURVE SMOOTH",
"695 250 OFFCURVE",
"735 264 OFFCURVE",
"778 302 CURVE SMOOTH",
"786 309 LINE SMOOTH",
"743 267 OFFCURVE",
"676 235 OFFCURVE",
"609 215 CURVE SMOOTH",
"633 222 OFFCURVE",
"655 227 OFFCURVE",
"668 233 CURVE SMOOTH",
"724 260 OFFCURVE",
"756 272 OFFCURVE",
"787 303 CURVE SMOOTH",
"803 318 OFFCURVE",
"821 335 OFFCURVE",
"833 373 CURVE",
"816 340 OFFCURVE",
"802 324 OFFCURVE",
"788 311 CURVE",
"824 347 OFFCURVE",
"844 391 OFFCURVE",
"834 443 CURVE",
"894 559 OFFCURVE",
"720 617 OFFCURVE",
"613 617 CURVE",
"597 628 OFFCURVE",
"579 636 OFFCURVE",
"568 640 CURVE SMOOTH",
"552 645 OFFCURVE",
"549 640 OFFCURVE",
"550 632 CURVE",
"521 638 OFFCURVE",
"489 641 OFFCURVE",
"457 643 CURVE",
"489 641 OFFCURVE",
"522 636 OFFCURVE",
"556 630 CURVE SMOOTH",
"568 628 OFFCURVE",
"565 624 OFFCURVE",
"557 626 CURVE SMOOTH"
);
},
{
closed = 1;
nodes = (
"336 650 OFFCURVE",
"252 640 OFFCURVE",
"177 617 CURVE SMOOTH",
"193 622 OFFCURVE",
"208 625 OFFCURVE",
"222 629 CURVE SMOOTH",
"273 640 OFFCURVE",
"352 647 OFFCURVE",
"431 644 CURVE"
);
},
{
closed = 1;
nodes = (
"103 590 OFFCURVE",
"61 571 OFFCURVE",
"32 543 CURVE",
"40 549 LINE SMOOTH",
"72 572 OFFCURVE",
"106 591 OFFCURVE",
"144 606 CURVE"
);
},
{
closed = 1;
nodes = (
"166 614 OFFCURVE",
"162 612 OFFCURVE",
"158 611 CURVE",
"162 612 OFFCURVE",
"166 614 OFFCURVE",
"171 615 CURVE"
);
},
{
closed = 1;
nodes = (
"447 643 OFFCURVE",
"439 644 OFFCURVE",
"431 644 CURVE",
"439 644 OFFCURVE",
"447 643 OFFCURVE",
"455 643 CURVE"
);
},
{
closed = 1;
nodes = (
"597 212 LINE",
"609 215 LINE"
);
},
{
closed = 1;
nodes = (
"585 209 LINE",
"597 212 LINE"
);
},
{
closed = 1;
nodes = (
"158 611 LINE",
"149 608 LINE"
);
},
{
closed = 1;
nodes = (
"147 607 OFFCURVE",
"146 606 OFFCURVE",
"144 606 CURVE",
"146 606 OFFCURVE",
"147 607 OFFCURVE",
"149 608 CURVE"
);
}
);
width = 712;
}
);
note = R;
unicode = 0052;
},
{
glyphname = S;
layers = (
{
hints = (
{
horizontal = 1;
place = "{-110, 46}";
type = Stem;
},
{
horizontal = 1;
place = "{403, -20}";
target = down;
type = TopGhost;
},
{
horizontal = 1;
place = "{556, 89}";
type = Stem;
},
{
place = "{32, 109}";
type = Stem;
},
{
place = "{268, 129}";
type = Stem;
},
{
horizontal = 1;
place = "{556, 76}";
type = Stem;
}
);
layerId = "B9003040-D3EC-4996-96A5-33D5E21FF9E0";
paths = (
{
closed = 1;
nodes = (
"160 68 LINE",
"110 31 OFFCURVE",
"60 -9 OFFCURVE",
"48 -24 CURVE SMOOTH",
"43 -30 OFFCURVE",
"50 -15 OFFCURVE",
"55 -9 CURVE",
"83 17 LINE",
"40 -14 OFFCURVE",
"4 -40 OFFCURVE",
"-8 -54 CURVE",
"-16 -66 OFFCURVE",
"-27 -73 OFFCURVE",
"-10 -91 CURVE SMOOTH",
"23 -125 OFFCURVE",
"92 -109 OFFCURVE",
"60 -64 CURVE",
"64 -66 OFFCURVE",
"149 30 OFFCURVE",
"374 76 CURVE SMOOTH",
"397 81 OFFCURVE",
"405 148 OFFCURVE",
"387 167 CURVE SMOOTH",
"350 206 OFFCURVE",
"236 236 OFFCURVE",
"157 308 CURVE SMOOTH",
"110 351 OFFCURVE",
"183 423 OFFCURVE",
"246 457 CURVE",
"376 542 OFFCURVE",
"662 583 OFFCURVE",
"660 538 CURVE",
"634 490 OFFCURVE",
"488 370 OFFCURVE",
"424 341 CURVE SMOOTH",
"414 336 OFFCURVE",
"379 313 OFFCURVE",
"410 313 CURVE SMOOTH",
"460 313 OFFCURVE",
"577 378 OFFCURVE",
"654 446 CURVE",
"642 431 OFFCURVE",
"629 416 OFFCURVE",
"613 403 CURVE",
"649 387 OFFCURVE",
"750 477 OFFCURVE",
"760 528 CURVE SMOOTH",
"764 547 OFFCURVE",
"735 590 OFFCURVE",
"732 585 CURVE SMOOTH",
"728 578 OFFCURVE",
"728 571 OFFCURVE",
"723 562 CURVE",
"722 559 LINE",
"715 591 OFFCURVE",
"695 638 OFFCURVE",
"670 643 CURVE SMOOTH",
"624 652 OFFCURVE",
"544 638 OFFCURVE",
"454 613 CURVE",
"529 632 OFFCURVE",
"595 639 OFFCURVE",
"640 640 CURVE SMOOTH",
"653 640 OFFCURVE",
"655 633 OFFCURVE",
"631 632 CURVE SMOOTH",
"565 630 OFFCURVE",
"436 604 OFFCURVE",
"318 562 CURVE",
"358 580 OFFCURVE",
"398 596 OFFCURVE",
"437 608 CURVE SMOOTH",
"371 588 OFFCURVE",
"297 563 OFFCURVE",
"226 528 CURVE SMOOTH",
"217 523 OFFCURVE",
"202 513 OFFCURVE",
"211 518 CURVE SMOOTH",
"244 534 OFFCURVE",
"280 549 OFFCURVE",
"318 562 CURVE",
"284 547 OFFCURVE",
"250 530 OFFCURVE",
"218 513 CURVE SMOOTH",
"89 440 OFFCURVE",
"-17 344 OFFCURVE",
"56 272 CURVE SMOOTH",
"129 200 OFFCURVE",
"258 168 OFFCURVE",
"289 148 CURVE",
"263 133 OFFCURVE",
"212 102 OFFCURVE",
"160 68 CURVE",
"203 100 OFFCURVE",
"245 129 OFFCURVE",
"261 136 CURVE SMOOTH",
"274 141 OFFCURVE",
"268 149 OFFCURVE",
"262 145 CURVE SMOOTH",
"234 128 OFFCURVE",
"150 68 OFFCURVE",
"83 17 CURVE"
);
},
{
closed = 1;
nodes = (
"443 609 OFFCURVE",
"448 611 OFFCURVE",
"454 613 CURVE",
"448 611 OFFCURVE",
"443 609 OFFCURVE",
"437 608 CURVE"
);
}
);
width = 463;
}
);
note = S;
unicode = 0053;
},
{
glyphname = Germandbls;
lastChange = "2021-09-03 20:36:18 +0000";
layers = (
{
hints = (
{
horizontal = 1;
place = "{-32, 63}";
type = Stem;
},
{
horizontal = 1;
place = "{204, 27}";
type = Stem;
},
{
horizontal = 1;
place = "{611, 41}";
type = Stem;
},
{
place = "{-47, 37}";
type = Stem;
},
{
place = "{823, 62}";
type = Stem;
}
);
layerId = "B9003040-D3EC-4996-96A5-33D5E21FF9E0";
paths = (
{
closed = 1;
nodes = (
"849 448 OFFCURVE",
"826 422 OFFCURVE",
"790 393 CURVE SMOOTH",
"782 386 OFFCURVE",
"774 381 OFFCURVE",
"766 375 CURVE",
"812 405 OFFCURVE",
"844 420 OFFCURVE",
"873 499 CURVE SMOOTH",
"917 621 OFFCURVE",
"795 700 OFFCURVE",
"599 635 CURVE SMOOTH",
"351 553 OFFCURVE",
"145 195 OFFCURVE",
"29 -30 CURVE SMOOTH",
"18 -52 OFFCURVE",
"27 -80 OFFCURVE",
"62 -108 CURVE",
"87 -57 OFFCURVE",
"150 31 OFFCURVE",
"195 84 CURVE SMOOTH",
"204 95 OFFCURVE",
"205 104 OFFCURVE",
"183 78 CURVE SMOOTH",
"164 57 OFFCURVE",
"123 -4 OFFCURVE",
"97 -36 CURVE SMOOTH",
"85 -51 LINE",
"209 148 OFFCURVE",
"404 455 OFFCURVE",
"617 575 CURVE SMOOTH",
"801 680 OFFCURVE",
"918 576 OFFCURVE",
"768 446 CURVE SMOOTH",
"658 350 OFFCURVE",
"459 391 OFFCURVE",
"470 331 CURVE SMOOTH",
"479 280 OFFCURVE",
"534 238 OFFCURVE",
"534 195 CURVE SMOOTH",
"534 113 OFFCURVE",
"335 35 OFFCURVE",
"247 31 CURVE SMOOTH",
"235 31 OFFCURVE",
"202 31 OFFCURVE",
"252 65 CURVE SMOOTH",
"303 100 OFFCURVE",
"183 86 OFFCURVE",
"169 24 CURVE SMOOTH",
"161 -15 OFFCURVE",
"206 -33 OFFCURVE",
"239 -32 CURVE SMOOTH",
"385 -27 OFFCURVE",
"569 69 OFFCURVE",
"576 147 CURVE SMOOTH",
"583 213 OFFCURVE",
"533 266 OFFCURVE",
"533 293 CURVE",
"618 302 OFFCURVE",
"805 372 OFFCURVE",
"862 480 CURVE"
);
},
{
closed = 1;
nodes = (
"756 369 LINE",
"766 375 LINE"
);
}
);
width = 679;
}
);
unicode = 1E9E;
},
{
glyphname = Schwa;
lastChange = "2021-09-05 08:58:48 +0000";
layers = (
{
hints = (
{
horizontal = 1;
place = "{-29, 92}";
type = Stem;
},
{
horizontal = 1;
place = "{285, 72}";
type = Stem;
},
{
horizontal = 1;
place = "{579, 63}";
type = Stem;
},
{
horizontal = 1;
place = "{647, 14}";
type = Stem;
},
{
place = "{17, 85}";
type = Stem;
},
{
place = "{782, 31}";
type = Stem;
},
{
horizontal = 1;
place = "{14, 49}";
type = Stem;
}
);
layerId = "B9003040-D3EC-4996-96A5-33D5E21FF9E0";
paths = (
{
closed = 1;
nodes = (
"353 478 OFFCURVE",
"387 498 OFFCURVE",
"418 514 CURVE SMOOTH",
"453 534 OFFCURVE",
"535 569 OFFCURVE",
"568 568 CURVE SMOOTH",
"573 568 OFFCURVE",
"515 551 OFFCURVE",
"496 542 CURVE SMOOTH",
"482 535 OFFCURVE",
"461 527 OFFCURVE",
"436 515 CURVE SMOOTH",
"749 653 OFFCURVE",
"798 563 OFFCURVE",
"737 433 CURVE SMOOTH",
"628 201 OFFCURVE",
"336 95 OFFCURVE",
"144 68 CURVE SMOOTH",
"84 60 OFFCURVE",
"49 83 OFFCURVE",
"117 147 CURVE SMOOTH",
"177 203 OFFCURVE",
"297 264 OFFCURVE",
"369 290 CURVE SMOOTH",
"515 343 OFFCURVE",
"728 369 OFFCURVE",
"735 382 CURVE SMOOTH",
"748 408 OFFCURVE",
"544 393 OFFCURVE",
"382 362 CURVE SMOOTH",
"277 341 OFFCURVE",
"178 263 OFFCURVE",
"136 218 CURVE",
"92 223 OFFCURVE",
"-1 127 OFFCURVE",
"-4 81 CURVE SMOOTH",
"-5 63 OFFCURVE",
"29 34 OFFCURVE",
"32 39 CURVE SMOOTH",
"35 46 OFFCURVE",
"34 52 OFFCURVE",
"38 61 CURVE SMOOTH",
"42 70 OFFCURVE",
"49 81 OFFCURVE",
"55 85 CURVE",
"48 72 OFFCURVE",
"40 40 OFFCURVE",
"70 -6 CURVE",
"148 -32 OFFCURVE",
"317 2 OFFCURVE",
"464 72 CURVE SMOOTH",
"510 93 OFFCURVE",
"577 125 OFFCURVE",
"621 150 CURVE SMOOTH",
"630 155 OFFCURVE",
"621 155 OFFCURVE",
"612 150 CURVE SMOOTH",
"589 137 OFFCURVE",
"563 124 OFFCURVE",
"537 112 CURVE",
"637 168 OFFCURVE",
"718 228 OFFCURVE",
"788 341 CURVE SMOOTH",
"861 458 OFFCURVE",
"885 600 OFFCURVE",
"723 633 CURVE",
"735 633 OFFCURVE",
"745 638 OFFCURVE",
"748 646 CURVE SMOOTH",
"754 661 OFFCURVE",
"733 672 OFFCURVE",
"706 675 CURVE SMOOTH",
"684 678 OFFCURVE",
"634 675 OFFCURVE",
"614 665 CURVE",
"610 662 OFFCURVE",
"606 660 OFFCURVE",
"607 655 CURVE",
"460 614 OFFCURVE",
"255 492 OFFCURVE",
"171 408 CURVE SMOOTH",
"141 377 OFFCURVE",
"142 362 OFFCURVE",
"174 380 CURVE SMOOTH",
"227 410 OFFCURVE",
"275 436 OFFCURVE",
"320 459 CURVE",
"264 427 OFFCURVE",
"214 396 OFFCURVE",
"203 385 CURVE",
"235 402 OFFCURVE",
"390 492 OFFCURVE",
"414 504 CURVE SMOOTH",
"436 515 LINE",
"401 499 OFFCURVE",
"362 481 OFFCURVE",
"320 459 CURVE"
);
},
{
closed = 1;
nodes = (
"225 5 OFFCURVE",
"397 50 OFFCURVE",
"526 110 CURVE",
"501 96 OFFCURVE",
"468 80 OFFCURVE",
"442 68 CURVE SMOOTH",
"325 17 OFFCURVE",
"195 3 OFFCURVE",
"137 -1 CURVE SMOOTH",
"122 -2 OFFCURVE",
"103 5 OFFCURVE",
"131 5 CURVE SMOOTH"
);
}
);
width = 744;
}
);
unicode = 018F;
},
{
glyphname = T;
layers = (
{
hints = (
{
horizontal = 1;
place = "{568, 56}";
type = Stem;
},
{
place = "{173, 101}";
type = Stem;
},
{
horizontal = 1;
place = "{568, 52}";
type = Stem;
}
);
layerId = "B9003040-D3EC-4996-96A5-33D5E21FF9E0";
paths = (
{
closed = 1;
nodes = (
"656 595 OFFCURVE",
"615 601 OFFCURVE",
"604 603 CURVE SMOOTH",
"339 654 OFFCURVE",
"185 580 OFFCURVE",
"67 515 CURVE",
"68 517 LINE",
"63 513 OFFCURVE",
"60 511 OFFCURVE",
"65 514 CURVE SMOOTH",
"67 515 LINE",
"50 499 OFFCURVE",
"38 480 OFFCURVE",
"31 458 CURVE SMOOTH",
"7 379 OFFCURVE",
"100 354 OFFCURVE",
"77 408 CURVE",
"96 479 OFFCURVE",
"273 540 OFFCURVE",
"305 547 CURVE SMOOTH",
"385 565 OFFCURVE",
"474 568 OFFCURVE",
"546 568 CURVE",
"532 557 OFFCURVE",
"506 536 OFFCURVE",
"501 529 CURVE",
"519 545 OFFCURVE",
"541 560 OFFCURVE",
"547 565 CURVE SMOOTH",
"457 489 OFFCURVE",
"168 187 OFFCURVE",
"173 59 CURVE SMOOTH",
"175 15 OFFCURVE",
"212 -16 OFFCURVE",
"244 -19 CURVE",
"308 -18 OFFCURVE",
"251 1 OFFCURVE",
"249 34 CURVE SMOOTH",
"242 220 OFFCURVE",
"528 447 OFFCURVE",
"661 543 CURVE",
"710 547 OFFCURVE",
"826 530 OFFCURVE",
"874 522 CURVE SMOOTH",
"897 518 OFFCURVE",
"901 537 OFFCURVE",
"875 552 CURVE SMOOTH",
"846 569 OFFCURVE",
"778 588 OFFCURVE",
"714 593 CURVE",
"711 617 OFFCURVE",
"653 621 OFFCURVE",
"639 621 CURVE SMOOTH",
"630 621 OFFCURVE",
"620 618 OFFCURVE",
"603 607 CURVE",
"604 606 OFFCURVE",
"605 606 OFFCURVE",
"607 606 CURVE"
);
},
{
closed = 1;
nodes = (
"159 575 OFFCURVE",
"105 552 OFFCURVE",
"68 517 CURVE",
"80 524 LINE",
"118 551 OFFCURVE",
"162 575 OFFCURVE",
"210 591 CURVE"
);
},
{
closed = 1;
nodes = (
"560 618 OFFCURVE",
"512 623 OFFCURVE",
"463 624 CURVE SMOOTH",
"508 623 OFFCURVE",
"556 616 OFFCURVE",
"603 607 CURVE"
);
},
{
closed = 1;
nodes = (
"363 623 OFFCURVE",
"312 616 OFFCURVE",
"264 606 CURVE",
"308 615 OFFCURVE",
"362 622 OFFCURVE",
"417 624 CURVE"
);
},
{
closed = 1;
nodes = (
"255 604 LINE SMOOTH",
"240 600 OFFCURVE",
"225 596 OFFCURVE",
"210 591 CURVE SMOOTH"
);
},
{
closed = 1;
nodes = (
"256 604 LINE SMOOTH",
"258 604 OFFCURVE",
"261 605 OFFCURVE",
"264 606 CURVE",
"261 605 OFFCURVE",
"258 604 OFFCURVE",
"255 604 CURVE SMOOTH"
);
}
);
width = 578;
}
);
note = T;
unicode = 0054;
},
{
glyphname = U;
layers = (
{
hints = (
{
horizontal = 1;
place = "{-4, 69}";
type = Stem;
},
{
horizontal = 1;
place = "{610, 22}";
type = Stem;
},
{
place = "{73, 56}";
type = Stem;
},
{
place = "{183, 84}";
type = Stem;
},
{
place = "{546, 42}";
type = Stem;
},
{
horizontal = 1;
place = "{637, -20}";
target = down;
type = TopGhost;
}
);
layerId = "B9003040-D3EC-4996-96A5-33D5E21FF9E0";
paths = (
{
closed = 1;
nodes = (
"251 630 OFFCURVE",
"120 495 OFFCURVE",
"84 420 CURVE SMOOTH",
"80 412 OFFCURVE",
"83 429 OFFCURVE",
"87 436 CURVE SMOOTH",
"100 463 OFFCURVE",
"119 489 OFFCURVE",
"147 513 CURVE",
"109 483 OFFCURVE",
"77 448 OFFCURVE",
"73 404 CURVE SMOOTH",
"65 321 OFFCURVE",
"162 309 OFFCURVE",
"129 360 CURVE",
"134 435 OFFCURVE",
"270 507 OFFCURVE",
"300 521 CURVE SMOOTH",
"352 545 OFFCURVE",
"510 615 OFFCURVE",
"563 610 CURVE",
"554 584 OFFCURVE",
"535 571 OFFCURVE",
"518 553 CURVE",
"531 555 OFFCURVE",
"531 563 OFFCURVE",
"559 586 CURVE",
"492 501 OFFCURVE",
"238 249 OFFCURVE",
"189 79 CURVE SMOOTH",
"159 -23 OFFCURVE",
"246 -18 OFFCURVE",
"313 22 CURVE SMOOTH",
"429 92 OFFCURVE",
"503 164 OFFCURVE",
"633 306 CURVE",
"609 268 OFFCURVE",
"590 215 OFFCURVE",
"576 172 CURVE",
"574 176 OFFCURVE",
"579 188 OFFCURVE",
"592 232 CURVE",
"571 190 OFFCURVE",
"491 -27 OFFCURVE",
"610 -39 CURVE SMOOTH",
"626 -40 OFFCURVE",
"629 -30 OFFCURVE",
"619 -24 CURVE SMOOTH",
"580 3 OFFCURVE",
"566 25 OFFCURVE",
"645 166 CURVE SMOOTH",
"711 284 OFFCURVE",
"802 399 OFFCURVE",
"827 439 CURVE",
"828 465 OFFCURVE",
"767 509 OFFCURVE",
"743 508 CURVE",
"685 460 OFFCURVE",
"664 408 OFFCURVE",
"614 355 CURVE SMOOTH",
"503 236 OFFCURVE",
"462 184 OFFCURVE",
"344 93 CURVE SMOOTH",
"323 77 OFFCURVE",
"235 28 OFFCURVE",
"280 115 CURVE SMOOTH",
"344 240 OFFCURVE",
"628 516 OFFCURVE",
"679 568 CURVE",
"693 600 OFFCURVE",
"614 643 OFFCURVE",
"589 651 CURVE SMOOTH",
"573 656 OFFCURVE",
"559 645 OFFCURVE",
"559 637 CURVE",
"573 638 OFFCURVE",
"588 632 OFFCURVE",
"562 632 CURVE SMOOTH"
);
},
{
closed = 1;
nodes = (
"475 644 OFFCURVE",
"346 614 OFFCURVE",
"280 587 CURVE",
"354 614 OFFCURVE",
"447 632 OFFCURVE",
"559 637 CURVE"
);
},
{
closed = 1;
nodes = (
"280 587 LINE",
"232 567 OFFCURVE",
"193 546 OFFCURVE",
"160 523 CURVE SMOOTH",
"196 548 OFFCURVE",
"239 566 OFFCURVE",
"273 583 CURVE SMOOTH"
);
},
{
closed = 1;
nodes = (
"154 518 OFFCURVE",
"151 515 OFFCURVE",
"147 513 CURVE",
"151 515 OFFCURVE",
"154 518 OFFCURVE",
"158 521 CURVE"
);
}
);
width = 716;
}
);
note = U;
unicode = 0055;
},
{
glyphname = V;
layers = (
{
hints = (
{
horizontal = 1;
place = "{0, 21}";
target = up;
type = BottomGhost;
},
{
place = "{530, 81}";
type = Stem;
},
{
horizontal = 1;
place = "{-31, 42}";
type = Stem;
}
);
layerId = "B9003040-D3EC-4996-96A5-33D5E21FF9E0";
paths = (
{
closed = 1;
nodes = (
"893 562 OFFCURVE",
"853 608 OFFCURVE",
"802 624 CURVE SMOOTH",
"782 630 OFFCURVE",
"771 612 OFFCURVE",
"775 593 CURVE SMOOTH",
"777 583 OFFCURVE",
"796 574 OFFCURVE",
"792 566 CURVE SMOOTH",
"747 472 OFFCURVE",
"604 234 OFFCURVE",
"484 124 CURVE SMOOTH",
"478 118 OFFCURVE",
"338 -43 OFFCURVE",
"318 30 CURVE SMOOTH",
"292 127 OFFCURVE",
"548 430 OFFCURVE",
"607 494 CURVE SMOOTH",
"629 517 OFFCURVE",
"564 597 OFFCURVE",
"522 592 CURVE SMOOTH",
"373 574 OFFCURVE",
"153 482 OFFCURVE",
"82 391 CURVE SMOOTH",
"22 317 OFFCURVE",
"90 258 OFFCURVE",
"119 279 CURVE SMOOTH",
"131 289 OFFCURVE",
"140 294 OFFCURVE",
"138 326 CURVE SMOOTH",
"133 407 OFFCURVE",
"418 537 OFFCURVE",
"502 554 CURVE SMOOTH",
"560 566 OFFCURVE",
"511 530 OFFCURVE",
"498 511 CURVE SMOOTH",
"494 505 OFFCURVE",
"351 306 OFFCURVE",
"342 289 CURVE",
"401 366 OFFCURVE",
"476 473 OFFCURVE",
"491 474 CURVE",
"367 308 OFFCURVE",
"215 142 OFFCURVE",
"236 69 CURVE SMOOTH",
"256 0 OFFCURVE",
"305 -60 OFFCURVE",
"378 -16 CURVE",
"393 -14 OFFCURVE",
"410 -8 OFFCURVE",
"427 0 CURVE",
"421 -5 LINE SMOOTH",
"413 -12 OFFCURVE",
"445 6 OFFCURVE",
"455 12 CURVE SMOOTH",
"507 45 OFFCURVE",
"582 112 OFFCURVE",
"671 220 CURVE SMOOTH",
"724 284 OFFCURVE",
"759 333 OFFCURVE",
"799 406 CURVE",
"766 360 OFFCURVE",
"730 306 OFFCURVE",
"690 253 CURVE SMOOTH",
"654 206 OFFCURVE",
"616 165 OFFCURVE",
"579 129 CURVE",
"685 244 OFFCURVE",
"791 398 OFFCURVE",
"843 487 CURVE SMOOTH",
"845 491 OFFCURVE",
"810 419 OFFCURVE",
"808 409 CURVE",
"829 446 OFFCURVE",
"862 500 OFFCURVE",
"880 536 CURVE SMOOTH"
);
},
{
closed = 1;
nodes = (
"528 73 OFFCURVE",
"476 27 OFFCURVE",
"430 2 CURVE",
"453 19 OFFCURVE",
"513 64 OFFCURVE",
"579 129 CURVE"
);
}
);
width = 699;
}
);
note = V;
unicode = 0056;
},
{
glyphname = W;
layers = (
{
hints = (
{
horizontal = 1;
place = "{-27, 21}";
target = up;
type = BottomGhost;
},
{
horizontal = 1;
place = "{0, 64}";
type = Stem;
},
{
place = "{208, 124}";
type = Stem;
},
{
place = "{529, 82}";
type = Stem;
},
{
place = "{560, 74}";
type = Stem;
}
);
layerId = "B9003040-D3EC-4996-96A5-33D5E21FF9E0";
paths = (
{
closed = 1;
nodes = (
"1155 562 OFFCURVE",
"1115 608 OFFCURVE",
"1064 624 CURVE SMOOTH",
"1044 630 OFFCURVE",
"1033 612 OFFCURVE",
"1037 593 CURVE SMOOTH",
"1039 583 OFFCURVE",
"1058 574 OFFCURVE",
"1054 566 CURVE SMOOTH",
"1009 472 OFFCURVE",
"866 234 OFFCURVE",
"746 124 CURVE SMOOTH",
"599 -10 OFFCURVE",
"621 109 OFFCURVE",
"677 234 CURVE SMOOTH",
"708 304 OFFCURVE",
"753 376 OFFCURVE",
"778 407 CURVE SMOOTH",
"791 423 OFFCURVE",
"724 466 OFFCURVE",
"705 464 CURVE SMOOTH",
"655 458 OFFCURVE",
"417 218 OFFCURVE",
"380 183 CURVE SMOOTH",
"296 105 OFFCURVE",
"340 151 OFFCURVE",
"371 200 CURVE SMOOTH",
"420 279 OFFCURVE",
"527 407 OFFCURVE",
"607 494 CURVE SMOOTH",
"629 517 OFFCURVE",
"564 597 OFFCURVE",
"522 592 CURVE SMOOTH",
"373 574 OFFCURVE",
"154 482 OFFCURVE",
"82 391 CURVE SMOOTH",
"22 317 OFFCURVE",
"90 258 OFFCURVE",
"119 279 CURVE SMOOTH",
"131 289 OFFCURVE",
"140 294 OFFCURVE",
"138 326 CURVE SMOOTH",
"133 407 OFFCURVE",
"418 537 OFFCURVE",
"502 554 CURVE SMOOTH",
"560 566 OFFCURVE",
"511 530 OFFCURVE",
"498 511 CURVE SMOOTH",
"415 383 LINE SMOOTH",
"410 376 OFFCURVE",
"496 481 OFFCURVE",
"491 474 CURVE SMOOTH",
"353 276 OFFCURVE",
"214 112 OFFCURVE",
"208 36 CURVE SMOOTH",
"206 6 OFFCURVE",
"222 -23 OFFCURVE",
"252 -26 CURVE SMOOTH",
"273 -29 OFFCURVE",
"308 2 OFFCURVE",
"300 30 CURVE",
"300 32 OFFCURVE",
"354 101 OFFCURVE",
"376 125 CURVE",
"364 116 OFFCURVE",
"315 61 OFFCURVE",
"294 42 CURVE",
"358 131 OFFCURVE",
"567 325 OFFCURVE",
"661 388 CURVE",
"635 356 OFFCURVE",
"587 249 OFFCURVE",
"569 167 CURVE SMOOTH",
"560 126 OFFCURVE",
"557 117 OFFCURVE",
"563 89 CURVE SMOOTH",
"571 48 OFFCURVE",
"629 10 OFFCURVE",
"681 0 CURVE",
"707 2 OFFCURVE",
"737 20 OFFCURVE",
"770 48 CURVE",
"771 45 OFFCURVE",
"773 45 OFFCURVE",
"777 48 CURVE SMOOTH",
"825 88 OFFCURVE",
"899 165 OFFCURVE",
"945 229 CURVE SMOOTH",
"990 291 OFFCURVE",
"1018 333 OFFCURVE",
"1058 406 CURVE",
"1028 364 LINE",
"1058 410 OFFCURVE",
"1085 453 OFFCURVE",
"1105 487 CURVE SMOOTH",
"1107 491 OFFCURVE",
"1072 419 OFFCURVE",
"1070 409 CURVE",
"1091 446 OFFCURVE",
"1124 500 OFFCURVE",
"1142 536 CURVE SMOOTH"
);
},
{
closed = 1;
nodes = (
"1028 364 LINE",
"953 251 OFFCURVE",
"854 117 OFFCURVE",
"770 48 CURVE",
"770 51 OFFCURVE",
"772 57 OFFCURVE",
"777 61 CURVE SMOOTH",
"788 71 OFFCURVE",
"858 126 OFFCURVE",
"935 235 CURVE SMOOTH"
);
}
);
width = 955;
}
);
note = W;
unicode = 0057;
},
{
glyphname = X;
layers = (
{
hints = (
{
horizontal = 1;
place = "{9, 32}";
type = Stem;
},
{
horizontal = 1;
place = "{-5, 21}";
target = up;
type = BottomGhost;
},
{
horizontal = 1;
place = "{497, 35}";
type = Stem;
},
{
place = "{60, 51}";
type = Stem;
},
{
place = "{67, 58}";
type = Stem;
},
{
place = "{340, 64}";
type = Stem;
},
{
place = "{791, 60}";
type = Stem;
}
);
layerId = "B9003040-D3EC-4996-96A5-33D5E21FF9E0";
paths = (
{
closed = 1;
nodes = (
"691 598 OFFCURVE",
"689 598 OFFCURVE",
"686 598 CURVE SMOOTH",
"496 604 OFFCURVE",
"400 501 OFFCURVE",
"344 415 CURVE SMOOTH",
"345 417 LINE",
"342 412 LINE",
"344 415 LINE",
"338 395 OFFCURVE",
"335 374 OFFCURVE",
"338 352 CURVE SMOOTH",
"346 272 OFFCURVE",
"407 268 OFFCURVE",
"378 315 CURVE",
"369 386 OFFCURVE",
"488 479 OFFCURVE",
"505 492 CURVE SMOOTH",
"556 529 OFFCURVE",
"627 572 OFFCURVE",
"676 575 CURVE",
"615 495 OFFCURVE",
"566 408 OFFCURVE",
"526 320 CURVE SMOOTH",
"519 303 OFFCURVE",
"509 280 OFFCURVE",
"500 254 CURVE",
"352 142 OFFCURVE",
"214 48 OFFCURVE",
"83 48 CURVE SMOOTH",
"52 48 OFFCURVE",
"18 57 OFFCURVE",
"18 87 CURVE SMOOTH",
"18 140 OFFCURVE",
"198 209 OFFCURVE",
"271 228 CURVE",
"189 209 OFFCURVE",
"169 204 OFFCURVE",
"137 192 CURVE",
"174 210 OFFCURVE",
"234 226 OFFCURVE",
"294 235 CURVE SMOOTH",
"334 241 OFFCURVE",
"393 276 OFFCURVE",
"248 256 CURVE SMOOTH",
"113 237 OFFCURVE",
"-12 165 OFFCURVE",
"-12 84 CURVE SMOOTH",
"-12 25 OFFCURVE",
"54 -6 OFFCURVE",
"105 -6 CURVE SMOOTH",
"251 -6 OFFCURVE",
"373 104 OFFCURVE",
"485 205 CURVE",
"458 105 OFFCURVE",
"452 -9 OFFCURVE",
"559 -8 CURVE SMOOTH",
"597 -7 OFFCURVE",
"623 15 OFFCURVE",
"650 34 CURVE SMOOTH",
"664 44 OFFCURVE",
"663 61 OFFCURVE",
"652 54 CURVE SMOOTH",
"484 -46 OFFCURVE",
"560 212 OFFCURVE",
"590 278 CURVE",
"731 368 OFFCURVE",
"890 470 OFFCURVE",
"995 535 CURVE",
"1029 527 OFFCURVE",
"1062 563 OFFCURVE",
"1069 582 CURVE SMOOTH",
"1079 608 OFFCURVE",
"1071 650 OFFCURVE",
"1052 637 CURVE SMOOTH",
"1019 613 OFFCURVE",
"728 423 OFFCURVE",
"606 316 CURVE",
"652 406 OFFCURVE",
"751 538 OFFCURVE",
"766 554 CURVE",
"757 581 OFFCURVE",
"725 602 OFFCURVE",
"696 598 CURVE",
"693 599 LINE",
"700 601 OFFCURVE",
"696 607 OFFCURVE",
"689 607 CURVE SMOOTH",
"603 608 OFFCURVE",
"525 587 OFFCURVE",
"463 549 CURVE",
"522 582 OFFCURVE",
"628 611 OFFCURVE",
"693 599 CURVE"
);
},
{
closed = 1;
nodes = (
"404 510 OFFCURVE",
"364 471 OFFCURVE",
"346 421 CURVE",
"348 424 LINE SMOOTH",
"373 476 OFFCURVE",
"411 520 OFFCURVE",
"463 549 CURVE SMOOTH",
"453 544 OFFCURVE",
"444 539 OFFCURVE",
"437 534 CURVE SMOOTH"
);
}
);
width = 660;
}
);
note = X;
unicode = 0058;
},
{
glyphname = Y;
layers = (
{
hints = (
{
horizontal = 1;
place = "{-108, 42}";
type = Stem;
},
{
horizontal = 1;
place = "{74, 51}";
type = Stem;
},
{
horizontal = 1;
place = "{145, 17}";
type = Stem;
},
{
horizontal = 1;
place = "{504, 30}";
type = Stem;
},
{
place = "{60, 56}";
type = Stem;
},
{
place = "{224, 47}";
type = Stem;
},
{
place = "{295, 35}";
type = Stem;
}
);
layerId = "B9003040-D3EC-4996-96A5-33D5E21FF9E0";
paths = (
{
closed = 1;
nodes = (
"558 40 LINE",
"553 33 LINE",
"564 46 LINE",
"584 53 OFFCURVE",
"605 61 OFFCURVE",
"621 66 CURVE SMOOTH",
"640 71 OFFCURVE",
"637 88 OFFCURVE",
"617 86 CURVE SMOOTH",
"591 84 LINE",
"668 192 OFFCURVE",
"718 283 OFFCURVE",
"718 283 CURVE",
"722 294 OFFCURVE",
"670 324 OFFCURVE",
"645 326 CURVE",
"672 358 OFFCURVE",
"685 381 OFFCURVE",
"644 337 CURVE SMOOTH",
"533 218 OFFCURVE",
"462 184 OFFCURVE",
"344 93 CURVE SMOOTH",
"323 77 OFFCURVE",
"235 28 OFFCURVE",
"280 115 CURVE SMOOTH",
"344 240 OFFCURVE",
"628 516 OFFCURVE",
"679 568 CURVE",
"693 600 OFFCURVE",
"614 643 OFFCURVE",
"589 651 CURVE SMOOTH",
"573 656 OFFCURVE",
"559 645 OFFCURVE",
"559 637 CURVE",
"573 638 OFFCURVE",
"588 632 OFFCURVE",
"562 632 CURVE SMOOTH",
"251 630 OFFCURVE",
"120 495 OFFCURVE",
"84 420 CURVE SMOOTH",
"80 412 OFFCURVE",
"83 429 OFFCURVE",
"87 436 CURVE SMOOTH",
"102 466 OFFCURVE",
"124 496 OFFCURVE",
"158 520 CURVE",
"115 489 OFFCURVE",
"78 452 OFFCURVE",
"73 404 CURVE SMOOTH",
"65 321 OFFCURVE",
"162 309 OFFCURVE",
"129 360 CURVE",
"134 435 OFFCURVE",
"270 507 OFFCURVE",
"300 521 CURVE SMOOTH",
"352 545 OFFCURVE",
"510 615 OFFCURVE",
"563 610 CURVE",
"554 584 OFFCURVE",
"535 571 OFFCURVE",
"518 553 CURVE",
"531 555 OFFCURVE",
"531 563 OFFCURVE",
"559 586 CURVE",
"492 501 OFFCURVE",
"238 249 OFFCURVE",
"189 79 CURVE SMOOTH",
"159 -23 OFFCURVE",
"246 -18 OFFCURVE",
"313 22 CURVE SMOOTH",
"409 80 OFFCURVE",
"489 135 OFFCURVE",
"588 234 CURVE",
"566 193 OFFCURVE",
"545 155 OFFCURVE",
"546 155 CURVE",
"529 130 OFFCURVE",
"512 103 OFFCURVE",
"491 75 CURVE",
"342 20 OFFCURVE",
"211 -76 OFFCURVE",
"157 -156 CURVE",
"151 -179 OFFCURVE",
"168 -211 OFFCURVE",
"191 -235 CURVE",
"189 -239 LINE SMOOTH",
"176 -268 OFFCURVE",
"211 -282 OFFCURVE",
"231 -288 CURVE SMOOTH",
"246 -293 OFFCURVE",
"332 -228 OFFCURVE",
"321 -222 CURVE SMOOTH",
"318 -220 OFFCURVE",
"314 -219 OFFCURVE",
"310 -219 CURVE",
"335 -203 OFFCURVE",
"439 -112 OFFCURVE",
"477 -67 CURVE SMOOTH",
"508 -30 OFFCURVE",
"530 2 OFFCURVE",
"545 23 CURVE",
"533 8 OFFCURVE",
"518 -7 OFFCURVE",
"509 -20 CURVE SMOOTH",
"445 -100 OFFCURVE",
"380 -166 OFFCURVE",
"310 -219 CURVE",
"304 -222 OFFCURVE",
"440 -95 OFFCURVE",
"490 -37 CURVE SMOOTH",
"504 -21 OFFCURVE",
"559 42 OFFCURVE",
"559 42 CURVE"
);
},
{
closed = 1;
nodes = (
"471 18 OFFCURVE",
"451 -2 OFFCURVE",
"434 -21 CURVE SMOOTH",
"375 -88 OFFCURVE",
"285 -190 OFFCURVE",
"232 -244 CURVE",
"176 -196 OFFCURVE",
"387 -17 OFFCURVE",
"453 8 CURVE",
"454 8 OFFCURVE",
"460 10 OFFCURVE",
"484 39 CURVE"
);
},
{
closed = 1;
nodes = (
"475 644 OFFCURVE",
"346 614 OFFCURVE",
"280 587 CURVE",
"354 614 OFFCURVE",
"447 632 OFFCURVE",
"559 637 CURVE"
);
},
{
closed = 1;
nodes = (
"280 587 LINE",
"232 567 OFFCURVE",
"193 546 OFFCURVE",
"160 522 CURVE",
"196 548 OFFCURVE",
"239 566 OFFCURVE",
"273 583 CURVE SMOOTH"
);
},
{
closed = 1;
nodes = (
"545 23 LINE",
"550 29 LINE"
);
},
{
closed = 1;
nodes = (
"552 31 OFFCURVE",
"551 31 OFFCURVE",
"551 30 CURVE",
"551 31 OFFCURVE",
"552 31 OFFCURVE",
"553 32 CURVE"
);
}
);
width = 679;
}
);
note = Y;
unicode = 0059;
},
{
glyphname = Z;
layers = (
{
hints = (
{
horizontal = 1;
place = "{49, 37}";
type = Stem;
},
{
horizontal = 1;
place = "{395, 79}";
type = Stem;
},
{
horizontal = 1;
place = "{461, 39}";
type = Stem;
},
{
place = "{60, 625}";
type = Stem;
}
);
layerId = "B9003040-D3EC-4996-96A5-33D5E21FF9E0";
paths = (
{
closed = 1;
nodes = (
"362 88 OFFCURVE",
"303 83 OFFCURVE",
"268 81 CURVE SMOOTH",
"240 80 OFFCURVE",
"199 73 OFFCURVE",
"147 56 CURVE",
"194 83 OFFCURVE",
"306 90 OFFCURVE",
"345 92 CURVE",
"262 97 OFFCURVE",
"169 78 OFFCURVE",
"127 50 CURVE",
"193 103 OFFCURVE",
"314 190 OFFCURVE",
"451 300 CURVE SMOOTH",
"518 354 OFFCURVE",
"691 468 OFFCURVE",
"732 510 CURVE SMOOTH",
"756 534 OFFCURVE",
"709 618 OFFCURVE",
"681 618 CURVE SMOOTH",
"599 617 OFFCURVE",
"251 557 OFFCURVE",
"212 602 CURVE SMOOTH",
"209 605 OFFCURVE",
"185 622 OFFCURVE",
"185 607 CURVE SMOOTH",
"185 577 OFFCURVE",
"233 481 OFFCURVE",
"284 481 CURVE SMOOTH",
"329 481 OFFCURVE",
"380 494 OFFCURVE",
"435 510 CURVE",
"317 486 OFFCURVE",
"305 483 OFFCURVE",
"451 520 CURVE SMOOTH",
"517 537 OFFCURVE",
"588 558 OFFCURVE",
"659 569 CURVE",
"534 462 OFFCURVE",
"21 51 OFFCURVE",
"19 36 CURVE SMOOTH",
"15 7 OFFCURVE",
"41 -43 OFFCURVE",
"67 -43 CURVE SMOOTH",
"79 -43 OFFCURVE",
"94 -39 OFFCURVE",
"130 -17 CURVE SMOOTH",
"326 105 OFFCURVE",
"465 13 OFFCURVE",
"486 6 CURVE",
"493 -3 OFFCURVE",
"500 8 OFFCURVE",
"496 19 CURVE SMOOTH",
"484 51 OFFCURVE",
"451 71 OFFCURVE",
"409 82 CURVE",
"424 80 OFFCURVE",
"438 76 OFFCURVE",
"450 71 CURVE",
"436 85 OFFCURVE",
"369 92 OFFCURVE",
"347 92 CURVE SMOOTH",
"346 92 LINE SMOOTH",
"368 90 OFFCURVE",
"389 87 OFFCURVE",
"409 82 CURVE"
);
}
);
width = 520;
}
);
note = Z;
unicode = 005A;
},
{
glyphname = A.ss01;
lastChange = "2021-09-03 20:22:06 +0000";
layers = (
{
hints = (
{
horizontal = 1;
place = "{-43, 21}";
target = up;
type = BottomGhost;
},
{
horizontal = 1;
place = "{353, 50}";
type = Stem;
},
{
horizontal = 1;
place = "{596, 9}";
type = Stem;
},
{
horizontal = 1;
place = "{614, 14}";
type = Stem;
},
{
horizontal = 1;
place = "{614, 35}";
type = Stem;
},
{
place = "{487, 37}";
type = Stem;
}
);
layerId = "B9003040-D3EC-4996-96A5-33D5E21FF9E0";
paths = (
{
closed = 1;
nodes = (
"4 268 OFFCURVE",
"-17 202 OFFCURVE",
"20 217 CURVE",
"90 208 OFFCURVE",
"240 210 OFFCURVE",
"447 216 CURVE SMOOTH",
"516 218 OFFCURVE",
"589 222 OFFCURVE",
"661 228 CURVE",
"646 214 LINE SMOOTH",
"595 165 OFFCURVE",
"384 9 OFFCURVE",
"251 -22 CURVE SMOOTH",
"158 -45 OFFCURVE",
"58 -18 OFFCURVE",
"131 68 CURVE SMOOTH",
"161 103 OFFCURVE",
"208 127 OFFCURVE",
"240 142 CURVE",
"191 122 OFFCURVE",
"176 117 OFFCURVE",
"157 106 CURVE",
"182 124 OFFCURVE",
"221 140 OFFCURVE",
"260 151 CURVE",
"287 156 OFFCURVE",
"320 183 OFFCURVE",
"226 162 CURVE SMOOTH",
"185 152 OFFCURVE",
"144 137 OFFCURVE",
"114 114 CURVE SMOOTH",
"47 64 OFFCURVE",
"40 -52 OFFCURVE",
"147 -78 CURVE SMOOTH",
"178 -86 OFFCURVE",
"214 -87 OFFCURVE",
"247 -87 CURVE SMOOTH",
"294 -87 OFFCURVE",
"343 -69 OFFCURVE",
"389 -48 CURVE SMOOTH",
"412 -37 OFFCURVE",
"441 -19 OFFCURVE",
"462 -3 CURVE",
"441 -14 OFFCURVE",
"409 -36 OFFCURVE",
"375 -51 CURVE SMOOTH",
"335 -69 OFFCURVE",
"293 -84 OFFCURVE",
"244 -84 CURVE SMOOTH",
"241 -84 OFFCURVE",
"295 -76 OFFCURVE",
"314 -70 CURVE SMOOTH",
"405 -42 OFFCURVE",
"458 -4 OFFCURVE",
"523 44 CURVE SMOOTH",
"580 87 OFFCURVE",
"659 159 OFFCURVE",
"739 235 CURVE",
"789 240 OFFCURVE",
"839 246 OFFCURVE",
"886 253 CURVE",
"829 143 OFFCURVE",
"780 35 OFFCURVE",
"803 -27 CURVE SMOOTH",
"810 -45 LINE",
"811 -72 OFFCURVE",
"816 -99 OFFCURVE",
"864 -112 CURVE",
"952 -115 OFFCURVE",
"969 -83 OFFCURVE",
"884 -61 CURVE",
"884 -60 OFFCURVE",
"860 -52 OFFCURVE",
"839 -47 CURVE",
"840 -40 OFFCURVE",
"841 -33 OFFCURVE",
"844 -23 CURVE",
"844 -40 OFFCURVE",
"848 -26 OFFCURVE",
"858 15 CURVE SMOOTH",
"870 64 OFFCURVE",
"929 193 OFFCURVE",
"966 265 CURVE",
"1005 272 OFFCURVE",
"1089 299 OFFCURVE",
"1023 292 CURVE SMOOTH",
"1018 291 OFFCURVE",
"1002 290 OFFCURVE",
"979 289 CURVE",
"984 299 OFFCURVE",
"989 307 OFFCURVE",
"992 312 CURVE SMOOTH",
"1000 325 OFFCURVE",
"1002 335 OFFCURVE",
"998 329 CURVE SMOOTH",
"990 318 OFFCURVE",
"982 305 OFFCURVE",
"972 288 CURVE",
"968 288 LINE",
"986 318 OFFCURVE",
"1007 347 OFFCURVE",
"1030 373 CURVE",
"1089 453 OFFCURVE",
"1157 542 OFFCURVE",
"1158 552 CURVE SMOOTH",
"1160 591 OFFCURVE",
"1120 626 OFFCURVE",
"1083 610 CURVE",
"1077 614 OFFCURVE",
"1069 617 OFFCURVE",
"1061 620 CURVE",
"1072 620 OFFCURVE",
"1069 627 OFFCURVE",
"1059 629 CURVE SMOOTH",
"882 664 OFFCURVE",
"734 654 OFFCURVE",
"614 607 CURVE SMOOTH",
"640 617 OFFCURVE",
"666 623 OFFCURVE",
"689 629 CURVE SMOOTH",
"778 648 OFFCURVE",
"960 655 OFFCURVE",
"1061 620 CURVE",
"1058 620 OFFCURVE",
"1055 620 OFFCURVE",
"1050 621 CURVE SMOOTH",
"768 682 OFFCURVE",
"617 608 OFFCURVE",
"496 541 CURVE",
"498 543 LINE",
"491 539 OFFCURVE",
"485 535 OFFCURVE",
"492 539 CURVE SMOOTH",
"496 541 LINE",
"478 524 OFFCURVE",
"465 505 OFFCURVE",
"458 482 CURVE SMOOTH",
"434 403 OFFCURVE",
"521 370 OFFCURVE",
"498 425 CURVE",
"517 496 OFFCURVE",
"700 564 OFFCURVE",
"732 572 CURVE SMOOTH",
"836 595 OFFCURVE",
"981 619 OFFCURVE",
"1049 596 CURVE",
"955 522 LINE",
"965 522 OFFCURVE",
"1019 566 OFFCURVE",
"1034 576 CURVE",
"999 547 OFFCURVE",
"919 475 OFFCURVE",
"710 275 CURVE",
"634 271 OFFCURVE",
"543 266 OFFCURVE",
"481 265 CURVE SMOOTH",
"394 263 OFFCURVE",
"258 261 OFFCURVE",
"148 273 CURVE",
"212 287 OFFCURVE",
"275 312 OFFCURVE",
"273 326 CURVE SMOOTH",
"270 339 OFFCURVE",
"267 338 OFFCURVE",
"261 330 CURVE SMOOTH",
"256 324 OFFCURVE",
"182 309 OFFCURVE",
"159 305 CURVE SMOOTH",
"124 298 OFFCURVE",
"47 320 OFFCURVE",
"29 299 CURVE",
"28 299 OFFCURVE",
"27 299 OFFCURVE",
"26 300 CURVE"
);
},
{
closed = 1;
nodes = (
"933 343 OFFCURVE",
"917 314 OFFCURVE",
"902 284 CURVE",
"865 281 OFFCURVE",
"825 279 OFFCURVE",
"782 276 CURVE",
"782 277 OFFCURVE",
"783 278 OFFCURVE",
"784 278 CURVE SMOOTH",
"824 281 OFFCURVE",
"852 283 OFFCURVE",
"842 284 CURVE SMOOTH",
"839 284 OFFCURVE",
"817 282 OFFCURVE",
"786 280 CURVE",
"887 377 OFFCURVE",
"984 471 OFFCURVE",
"1036 507 CURVE",
"1017 489 OFFCURVE",
"972 420 OFFCURVE",
"948 372 CURVE SMOOTH"
);
},
{
closed = 1;
nodes = (
"867 59 OFFCURVE",
"853 15 OFFCURVE",
"844 -23 CURVE",
"844 -20 OFFCURVE",
"844 -14 OFFCURVE",
"845 -7 CURVE SMOOTH",
"847 26 OFFCURVE",
"866 69 OFFCURVE",
"894 132 CURVE"
);
},
{
closed = 1;
nodes = (
"909 174 OFFCURVE",
"929 219 OFFCURVE",
"953 263 CURVE",
"955 263 OFFCURVE",
"957 263 OFFCURVE",
"958 264 CURVE",
"937 225 OFFCURVE",
"914 178 OFFCURVE",
"894 132 CURVE"
);
},
{
closed = 1;
nodes = (
"708 273 LINE SMOOTH",
"707 273 OFFCURVE",
"706 272 OFFCURVE",
"706 272 CURVE",
"673 270 OFFCURVE",
"617 267 OFFCURVE",
"595 267 CURVE"
);
},
{
closed = 1;
nodes = (
"559 585 OFFCURVE",
"524 567 OFFCURVE",
"498 543 CURVE",
"507 549 LINE SMOOTH",
"534 568 OFFCURVE",
"563 586 OFFCURVE",
"595 599 CURVE"
);
},
{
closed = 1;
nodes = (
"604 603 LINE",
"595 599 LINE"
);
}
);
width = 973;
}
);
note = A.1;
},
{
glyphname = AE.ss01;
lastChange = "2021-09-05 08:54:09 +0000";
layers = (
{
background = {
hints = (
{
horizontal = 1;
place = "{-43, 21}";
target = up;
type = BottomGhost;
},
{
horizontal = 1;
place = "{353, 50}";
type = Stem;
},
{
horizontal = 1;
place = "{596, 9}";
type = Stem;
},
{
horizontal = 1;
place = "{614, 14}";
type = Stem;
},
{
horizontal = 1;
place = "{614, 35}";
type = Stem;
},
{
place = "{487, 37}";
type = Stem;
}
);
paths = (
{
closed = 1;
nodes = (
"1101 127 LINE SMOOTH",
"1064 108 OFFCURVE",
"998 77 OFFCURVE",
"975 71 CURVE SMOOTH",
"970 70 OFFCURVE",
"1004 88 OFFCURVE",
"1023 97 CURVE SMOOTH",
"1030 100 OFFCURVE",
"1039 104 OFFCURVE",
"1048 109 CURVE",
"955 68 OFFCURVE",
"866 50 OFFCURVE",
"836 73 CURVE",
"833 102 OFFCURVE",
"985 171 OFFCURVE",
"1077 196 CURVE SMOOTH",
"1092 200 OFFCURVE",
"1144 243 OFFCURVE",
"1119 250 CURVE SMOOTH",
"1055 269 OFFCURVE",
"957 293 OFFCURVE",
"902 324 CURVE SMOOTH",
"896 327 OFFCURVE",
"893 332 OFFCURVE",
"893 338 CURVE",
"955 420 LINE",
"978 439 OFFCURVE",
"1003 455 OFFCURVE",
"1026 464 CURVE SMOOTH",
"1172 526 OFFCURVE",
"1328 548 OFFCURVE",
"1439 550 CURVE SMOOTH",
"1500 551 OFFCURVE",
"1535 546 OFFCURVE",
"1458 488 CURVE SMOOTH",
"1389 436 OFFCURVE",
"1257 369 OFFCURVE",
"1181 363 CURVE SMOOTH",
"1128 360 OFFCURVE",
"1204 425 OFFCURVE",
"1219 438 CURVE SMOOTH",
"1264 475 OFFCURVE",
"1254 478 OFFCURVE",
"1239 473 CURVE SMOOTH",
"1175 452 OFFCURVE",
"1128 393 OFFCURVE",
"1119 380 CURVE SMOOTH",
"1102 356 OFFCURVE",
"1148 300 OFFCURVE",
"1158 293 CURVE",
"1220 290 OFFCURVE",
"1378 376 OFFCURVE",
"1427 418 CURVE",
"1471 410 OFFCURVE",
"1580 499 OFFCURVE",
"1590 545 CURVE SMOOTH",
"1593 562 OFFCURVE",
"1564 594 OFFCURVE",
"1560 589 CURVE SMOOTH",
"1555 582 OFFCURVE",
"1556 576 OFFCURVE",
"1550 567 CURVE SMOOTH",
"1545 558 OFFCURVE",
"1536 548 OFFCURVE",
"1530 545 CURVE",
"1538 557 OFFCURVE",
"1564 580 OFFCURVE",
"1542 627 CURVE",
"1466 659 OFFCURVE",
"1294 627 OFFCURVE",
"1134 575 CURVE SMOOTH",
"1104 565 OFFCURVE",
"1076 557 OFFCURVE",
"1047 548 CURVE",
"1048 550 OFFCURVE",
"1048 551 OFFCURVE",
"1048 552 CURVE SMOOTH",
"1050 591 OFFCURVE",
"1010 626 OFFCURVE",
"973 610 CURVE",
"967 614 OFFCURVE",
"959 617 OFFCURVE",
"951 620 CURVE",
"962 620 OFFCURVE",
"959 627 OFFCURVE",
"949 629 CURVE SMOOTH",
"773 664 OFFCURVE",
"624 654 OFFCURVE",
"504 607 CURVE SMOOTH",
"530 617 OFFCURVE",
"556 623 OFFCURVE",
"579 629 CURVE SMOOTH",
"668 648 OFFCURVE",
"850 655 OFFCURVE",
"951 620 CURVE",
"948 620 OFFCURVE",
"945 620 OFFCURVE",
"940 621 CURVE SMOOTH",
"658 682 OFFCURVE",
"507 608 OFFCURVE",
"386 541 CURVE",
"388 543 LINE",
"381 539 OFFCURVE",
"375 535 OFFCURVE",
"382 539 CURVE SMOOTH",
"386 541 LINE",
"368 524 OFFCURVE",
"355 505 OFFCURVE",
"348 482 CURVE SMOOTH",
"324 403 OFFCURVE",
"417 378 OFFCURVE",
"394 433 CURVE",
"413 504 OFFCURVE",
"590 564 OFFCURVE",
"622 572 CURVE SMOOTH",
"726 594 OFFCURVE",
"871 619 OFFCURVE",
"939 596 CURVE",
"845 522 LINE",
"855 522 OFFCURVE",
"909 566 OFFCURVE",
"924 576 CURVE",
"886 545 OFFCURVE",
"805 474 OFFCURVE",
"604 285 CURVE",
"514 284 OFFCURVE",
"495 248 OFFCURVE",
"575 253 CURVE",
"496 177 OFFCURVE",
"286 37 OFFCURVE",
"167 37 CURVE SMOOTH",
"129 37 OFFCURVE",
"87 51 OFFCURVE",
"87 95 CURVE SMOOTH",
"87 173 OFFCURVE",
"311 275 OFFCURVE",
"401 304 CURVE",
"300 276 OFFCURVE",
"275 268 OFFCURVE",
"235 250 CURVE",
"281 277 OFFCURVE",
"355 301 OFFCURVE",
"430 314 CURVE SMOOTH",
"480 323 OFFCURVE",
"553 374 OFFCURVE",
"373 345 CURVE SMOOTH",
"205 317 OFFCURVE",
"49 210 OFFCURVE",
"49 90 CURVE SMOOTH",
"49 4 OFFCURVE",
"130 -42 OFFCURVE",
"193 -43 CURVE",
"196 -42 OFFCURVE",
"233 -34 OFFCURVE",
"252 -28 CURVE SMOOTH",
"356 5 OFFCURVE",
"451 62 OFFCURVE",
"538 137 CURVE",
"501 102 OFFCURVE",
"461 66 OFFCURVE",
"419 38 CURVE",
"476 75 OFFCURVE",
"537 123 OFFCURVE",
"599 190 CURVE SMOOTH",
"606 197 OFFCURVE",
"617 212 OFFCURVE",
"609 204 CURVE SMOOTH",
"586 181 OFFCURVE",
"563 158 OFFCURVE",
"538 137 CURVE",
"582 178 OFFCURVE",
"621 220 OFFCURVE",
"654 255 CURVE",
"693 251 OFFCURVE",
"741 244 OFFCURVE",
"750 243 CURVE",
"749 241 OFFCURVE",
"731 192 OFFCURVE",
"724 179 CURVE",
"725 185 OFFCURVE",
"735 216 OFFCURVE",
"739 228 CURVE",
"711 165 OFFCURVE",
"701 113 OFFCURVE",
"701 74 CURVE SMOOTH",
"701 27 OFFCURVE",
"720 -22 OFFCURVE",
"760 -23 CURVE SMOOTH",
"768 -24 OFFCURVE",
"771 -22 OFFCURVE",
"772 -18 CURVE",
"804 -32 OFFCURVE",
"843 -29 OFFCURVE",
"898 -14 CURVE SMOOTH",
"1051 27 OFFCURVE",
"1268 150 OFFCURVE",
"1360 235 CURVE SMOOTH",
"1393 265 OFFCURVE",
"1393 281 OFFCURVE",
"1359 263 CURVE SMOOTH",
"1332 248 OFFCURVE",
"1276 218 OFFCURVE",
"1211 186 CURVE",
"1268 217 OFFCURVE",
"1318 247 OFFCURVE",
"1330 258 CURVE",
"1296 240 OFFCURVE",
"1130 150 OFFCURVE",
"1106 138 CURVE SMOOTH",
"1093 131 LINE",
"1211 186 LINE"
);
},
{
closed = 1;
nodes = (
"881 449 OFFCURVE",
"798 338 OFFCURVE",
"766 271 CURVE",
"750 273 OFFCURVE",
"687 280 OFFCURVE",
"672 280 CURVE",
"817 430 OFFCURVE",
"854 458 OFFCURVE",
"928 509 CURVE"
);
},
{
closed = 1;
nodes = (
"954 225 OFFCURVE",
"929 218 OFFCURVE",
"911 209 CURVE",
"880 202 OFFCURVE",
"836 189 OFFCURVE",
"792 166 CURVE",
"802 189 OFFCURVE",
"815 216 OFFCURVE",
"831 247 CURVE SMOOTH",
"838 260 OFFCURVE",
"849 277 OFFCURVE",
"863 297 CURVE",
"873 254 OFFCURVE",
"937 240 OFFCURVE",
"975 235 CURVE"
);
},
{
closed = 1;
nodes = (
"1489 627 OFFCURVE",
"1490 619 OFFCURVE",
"1462 620 CURVE SMOOTH",
"1377 621 OFFCURVE",
"1206 588 OFFCURVE",
"1065 544 CURVE",
"1092 555 OFFCURVE",
"1128 567 OFFCURVE",
"1157 575 CURVE SMOOTH",
"1284 612 OFFCURVE",
"1400 629 OFFCURVE",
"1474 627 CURVE SMOOTH"
);
},
{
closed = 1;
nodes = (
"266 -43 OFFCURVE",
"334 -13 OFFCURVE",
"400 26 CURVE SMOOTH",
"329 -16 OFFCURVE",
"259 -35 OFFCURVE",
"195 -43 CURVE"
);
},
{
closed = 1;
nodes = (
"983 226 OFFCURVE",
"922 207 OFFCURVE",
"878 195 CURVE",
"895 202 OFFCURVE",
"915 208 OFFCURVE",
"933 214 CURVE SMOOTH",
"959 220 OFFCURVE",
"963 226 OFFCURVE",
"980 228 CURVE SMOOTH",
"988 229 OFFCURVE",
"1020 230 OFFCURVE",
"1005 228 CURVE SMOOTH"
);
},
{
closed = 1;
nodes = (
"834 178 OFFCURVE",
"809 166 OFFCURVE",
"785 150 CURVE",
"788 157 LINE",
"810 170 OFFCURVE",
"835 182 OFFCURVE",
"860 189 CURVE"
);
},
{
closed = 1;
nodes = (
"460 590 OFFCURVE",
"418 570 OFFCURVE",
"388 543 CURVE",
"397 549 LINE SMOOTH",
"428 571 OFFCURVE",
"463 591 OFFCURVE",
"501 606 CURVE"
);
},
{
closed = 1;
nodes = (
"1075 123 OFFCURVE",
"1061 116 OFFCURVE",
"1048 109 CURVE",
"1063 116 OFFCURVE",
"1078 123 OFFCURVE",
"1093 131 CURVE"
);
},
{
closed = 1;
nodes = (
"1053 543 LINE",
"1049 541 OFFCURVE",
"1045 540 OFFCURVE",
"1042 538 CURVE",
"1043 540 LINE"
);
},
{
closed = 1;
nodes = (
"400 26 LINE",
"419 38 LINE"
);
},
{
closed = 1;
nodes = (
"742 233 OFFCURVE",
"741 232 OFFCURVE",
"740 229 CURVE",
"740 230 OFFCURVE",
"741 231 OFFCURVE",
"742 233 CURVE"
);
}
);
};
hints = (
{
horizontal = 1;
place = "{254, 11}";
type = Stem;
},
{
horizontal = 1;
place = "{599, 25}";
type = Stem;
},
{
horizontal = 1;
place = "{607, 17}";
type = Stem;
},
{
place = "{1274, 936}";
type = Stem;
}
);
layerId = "B9003040-D3EC-4996-96A5-33D5E21FF9E0";
paths = (
{
closed = 1;
nodes = (
"992 664 OFFCURVE",
"844 654 OFFCURVE",
"724 607 CURVE SMOOTH",
"750 617 OFFCURVE",
"776 623 OFFCURVE",
"799 629 CURVE SMOOTH",
"888 648 OFFCURVE",
"1070 655 OFFCURVE",
"1171 620 CURVE",
"1182 620 OFFCURVE",
"1179 627 OFFCURVE",
"1169 629 CURVE SMOOTH"
);
},
{
closed = 1;
nodes = (
"1506 569 OFFCURVE",
"1438 588 OFFCURVE",
"1374 593 CURVE",
"1371 617 OFFCURVE",
"1319 621 OFFCURVE",
"1299 621 CURVE SMOOTH",
"1281 621 OFFCURVE",
"1263 608 OFFCURVE",
"1254 603 CURVE SMOOTH",
"1248 599 LINE",
"1234 612 OFFCURVE",
"1213 618 OFFCURVE",
"1193 610 CURVE",
"1187 614 OFFCURVE",
"1179 617 OFFCURVE",
"1171 620 CURVE",
"1168 620 OFFCURVE",
"1165 620 OFFCURVE",
"1160 621 CURVE SMOOTH",
"878 682 OFFCURVE",
"727 608 OFFCURVE",
"606 541 CURVE",
"588 524 OFFCURVE",
"575 505 OFFCURVE",
"568 482 CURVE SMOOTH",
"544 403 OFFCURVE",
"631 370 OFFCURVE",
"608 425 CURVE",
"627 496 OFFCURVE",
"810 564 OFFCURVE",
"842 572 CURVE SMOOTH",
"946 595 OFFCURVE",
"1091 619 OFFCURVE",
"1159 596 CURVE",
"1091 581 OFFCURVE",
"984 532 OFFCURVE",
"896 474 CURVE",
"906 474 OFFCURVE",
"1091 581 OFFCURVE",
"1144 576 CURVE",
"1041 557 OFFCURVE",
"919 475 OFFCURVE",
"710 275 CURVE",
"634 271 OFFCURVE",
"543 266 OFFCURVE",
"481 265 CURVE SMOOTH",
"394 263 OFFCURVE",
"258 261 OFFCURVE",
"148 273 CURVE",
"212 287 OFFCURVE",
"275 312 OFFCURVE",
"273 326 CURVE SMOOTH",
"270 339 OFFCURVE",
"267 338 OFFCURVE",
"261 330 CURVE SMOOTH",
"256 324 OFFCURVE",
"182 309 OFFCURVE",
"159 305 CURVE SMOOTH",
"124 298 OFFCURVE",
"47 320 OFFCURVE",
"29 299 CURVE",
"28 299 OFFCURVE",
"27 299 OFFCURVE",
"26 300 CURVE",
"4 268 OFFCURVE",
"-17 202 OFFCURVE",
"20 217 CURVE",
"90 208 OFFCURVE",
"240 210 OFFCURVE",
"447 216 CURVE SMOOTH",
"516 218 OFFCURVE",
"589 222 OFFCURVE",
"661 228 CURVE",
"646 214 LINE SMOOTH",
"594 166 OFFCURVE",
"384 9 OFFCURVE",
"251 -22 CURVE SMOOTH",
"158 -45 OFFCURVE",
"58 -18 OFFCURVE",
"131 68 CURVE SMOOTH",
"161 103 OFFCURVE",
"208 127 OFFCURVE",
"240 142 CURVE",
"191 122 OFFCURVE",
"176 117 OFFCURVE",
"157 106 CURVE",
"182 124 OFFCURVE",
"221 140 OFFCURVE",
"260 151 CURVE",
"287 156 OFFCURVE",
"320 183 OFFCURVE",
"226 162 CURVE SMOOTH",
"185 152 OFFCURVE",
"144 137 OFFCURVE",
"114 114 CURVE SMOOTH",
"47 64 OFFCURVE",
"40 -52 OFFCURVE",
"147 -78 CURVE SMOOTH",
"178 -86 OFFCURVE",
"214 -87 OFFCURVE",
"247 -87 CURVE SMOOTH",
"294 -87 OFFCURVE",
"343 -69 OFFCURVE",
"389 -48 CURVE SMOOTH",
"412 -37 OFFCURVE",
"441 -19 OFFCURVE",
"462 -3 CURVE",
"441 -14 OFFCURVE",
"409 -36 OFFCURVE",
"375 -51 CURVE SMOOTH",
"335 -69 OFFCURVE",
"293 -84 OFFCURVE",
"244 -84 CURVE SMOOTH",
"241 -84 OFFCURVE",
"295 -76 OFFCURVE",
"314 -70 CURVE SMOOTH",
"405 -42 OFFCURVE",
"458 -4 OFFCURVE",
"523 44 CURVE SMOOTH",
"580 87 OFFCURVE",
"659 159 OFFCURVE",
"739 235 CURVE",
"789 240 OFFCURVE",
"839 246 OFFCURVE",
"886 253 CURVE SMOOTH",
"908 256 LINE",
"897 244 LINE",
"857 191 OFFCURVE",
"812 119 OFFCURVE",
"812 69 CURVE SMOOTH",
"812 63 OFFCURVE",
"812 57 OFFCURVE",
"813 52 CURVE",
"855 -2 LINE",
"863 -7 OFFCURVE",
"872 -9 OFFCURVE",
"880 -10 CURVE",
"918 -10 OFFCURVE",
"913 -3 OFFCURVE",
"903 9 CURVE",
"957 22 LINE SMOOTH",
"960 23 OFFCURVE",
"954 24 OFFCURVE",
"947 22 CURVE SMOOTH",
"901 12 LINE",
"901 13 OFFCURVE",
"900 13 OFFCURVE",
"899 14 CURVE",
"947 27 OFFCURVE",
"1004 41 OFFCURVE",
"1053 47 CURVE SMOOTH",
"1180 61 OFFCURVE",
"1219 45 OFFCURVE",
"1189 -9 CURVE SMOOTH",
"1168 -46 OFFCURVE",
"1200 -20 OFFCURVE",
"1209 -12 CURVE SMOOTH",
"1247 24 OFFCURVE",
"1281 65 OFFCURVE",
"1217 88 CURVE SMOOTH",
"1199 95 OFFCURVE",
"1179 99 OFFCURVE",
"1158 102 CURVE",
"1070 108 OFFCURVE",
"954 86 OFFCURVE",
"889 71 CURVE",
"895 106 OFFCURVE",
"916 169 OFFCURVE",
"990 254 CURVE",
"1000 255 OFFCURVE",
"1146 266 OFFCURVE",
"1187 268 CURVE",
"1167 257 OFFCURVE",
"1224 267 OFFCURVE",
"1252 284 CURVE SMOOTH",
"1258 288 OFFCURVE",
"1245 311 OFFCURVE",
"1234 311 CURVE SMOOTH",
"1231 311 OFFCURVE",
"1222 320 OFFCURVE",
"1215 319 CURVE SMOOTH",
"1153 306 OFFCURVE",
"1088 300 OFFCURVE",
"1040 293 CURVE SMOOTH",
"1037 293 OFFCURVE",
"1031 293 OFFCURVE",
"1023 292 CURVE SMOOTH",
"1022 292 LINE",
"1085 362 OFFCURVE",
"1232 479 OFFCURVE",
"1321 543 CURVE",
"1370 547 OFFCURVE",
"1486 530 OFFCURVE",
"1534 522 CURVE SMOOTH",
"1557 518 OFFCURVE",
"1561 537 OFFCURVE",
"1535 552 CURVE SMOOTH"
);
},
{
closed = 1;
nodes = (
"669 585 OFFCURVE",
"634 567 OFFCURVE",
"608 543 CURVE",
"617 549 LINE SMOOTH",
"644 567 OFFCURVE",
"673 586 OFFCURVE",
"705 599 CURVE"
);
},
{
closed = 1;
nodes = (
"860 280 OFFCURVE",
"822 279 OFFCURVE",
"782 276 CURVE",
"782 277 OFFCURVE",
"783 278 OFFCURVE",
"784 278 CURVE SMOOTH",
"824 281 OFFCURVE",
"852 283 OFFCURVE",
"842 284 CURVE",
"786 280 LINE",
"975 462 OFFCURVE",
"1120 521 OFFCURVE",
"1205 567 CURVE",
"1191 556 OFFCURVE",
"1166 536 OFFCURVE",
"1161 529 CURVE",
"1179 545 OFFCURVE",
"1201 559 OFFCURVE",
"1207 564 CURVE SMOOTH",
"1112 485 OFFCURVE",
"982 345 OFFCURVE",
"934 286 CURVE"
);
},
{
closed = 1;
nodes = (
"608 543 LINE",
"601 539 OFFCURVE",
"595 535 OFFCURVE",
"602 539 CURVE SMOOTH",
"606 541 LINE"
);
},
{
closed = 1;
nodes = (
"673 270 OFFCURVE",
"617 267 OFFCURVE",
"595 267 CURVE",
"708 273 LINE SMOOTH",
"709 273 OFFCURVE",
"706 272 OFFCURVE",
"706 272 CURVE"
);
}
);
width = 1294;
}
);
note = AE;
},
{
glyphname = B.ss01;
lastChange = "2021-09-03 20:22:06 +0000";
layers = (
{
hints = (
{
horizontal = 1;
place = "{-32, 63}";
type = Stem;
},
{
horizontal = 1;
place = "{204, 27}";
type = Stem;
},
{
horizontal = 1;
place = "{425, 96}";
type = Stem;
},
{
horizontal = 1;
place = "{587, 67}";
type = Stem;
},
{
place = "{1085, 53}";
type = Stem;
},
{
horizontal = 1;
place = "{582, 72}";
type = Stem;
},
{
place = "{443, 31}";
type = Stem;
},
{
place = "{269, 36}";
type = Stem;
},
{
place = "{627, 16}";
type = Stem;
}
);
layerId = "B9003040-D3EC-4996-96A5-33D5E21FF9E0";
paths = (
{
closed = 1;
nodes = (
"1092 544 OFFCURVE",
"1087 516 OFFCURVE",
"1071 500 CURVE SMOOTH",
"993 422 OFFCURVE",
"792 290 OFFCURVE",
"604 235 CURVE",
"595 234 OFFCURVE",
"590 228 OFFCURVE",
"588 220 CURVE SMOOTH",
"587 211 OFFCURVE",
"589 206 OFFCURVE",
"597 204 CURVE",
"693 209 OFFCURVE",
"752 200 OFFCURVE",
"747 177 CURVE SMOOTH",
"734 107 OFFCURVE",
"584 35 OFFCURVE",
"496 31 CURVE SMOOTH",
"484 31 OFFCURVE",
"451 31 OFFCURVE",
"501 65 CURVE SMOOTH",
"552 100 OFFCURVE",
"642 138 OFFCURVE",
"687 150 CURVE",
"696 154 OFFCURVE",
"710 170 OFFCURVE",
"701 170 CURVE SMOOTH",
"636 166 OFFCURVE",
"432 86 OFFCURVE",
"418 24 CURVE SMOOTH",
"410 -15 OFFCURVE",
"455 -33 OFFCURVE",
"488 -32 CURVE SMOOTH",
"634 -27 OFFCURVE",
"807 69 OFFCURVE",
"820 136 CURVE SMOOTH",
"832 197 OFFCURVE",
"736 231 OFFCURVE",
"685 231 CURVE",
"748 247 OFFCURVE",
"815 265 OFFCURVE",
"879 289 CURVE",
"862 280 OFFCURVE",
"846 274 OFFCURVE",
"837 271 CURVE SMOOTH",
"818 265 OFFCURVE",
"784 253 OFFCURVE",
"788 253 CURVE SMOOTH",
"811 255 OFFCURVE",
"902 291 OFFCURVE",
"937 310 CURVE SMOOTH",
"953 319 LINE",
"964 325 LINE SMOOTH",
"996 342 OFFCURVE",
"1025 359 OFFCURVE",
"1051 380 CURVE SMOOTH",
"1064 391 OFFCURVE",
"1076 400 OFFCURVE",
"1087 410 CURVE SMOOTH",
"1099 421 OFFCURVE",
"1109 430 OFFCURVE",
"1114 437 CURVE SMOOTH",
"1142 469 OFFCURVE",
"1147 496 OFFCURVE",
"1121 531 CURVE",
"1088 775 OFFCURVE",
"607 584 OFFCURVE",
"486 560 CURVE SMOOTH",
"392 541 OFFCURVE",
"78 494 OFFCURVE",
"39 539 CURVE SMOOTH",
"36 542 OFFCURVE",
"12 559 OFFCURVE",
"12 544 CURVE SMOOTH",
"12 514 OFFCURVE",
"47 425 OFFCURVE",
"98 425 CURVE SMOOTH",
"143 425 OFFCURVE",
"194 438 OFFCURVE",
"249 454 CURVE",
"131 430 OFFCURVE",
"119 427 OFFCURVE",
"265 464 CURVE SMOOTH",
"331 481 OFFCURVE",
"399 489 OFFCURVE",
"469 505 CURVE SMOOTH",
"553 524 OFFCURVE",
"768 568 OFFCURVE",
"856 581 CURVE SMOOTH",
"896 587 OFFCURVE",
"1029 600 OFFCURVE",
"1076 556 CURVE",
"1037 582 OFFCURVE",
"993 585 OFFCURVE",
"950 585 CURVE SMOOTH",
"902 585 OFFCURVE",
"803 572 OFFCURVE",
"746 558 CURVE",
"763 560 OFFCURVE",
"814 568 OFFCURVE",
"840 572 CURVE SMOOTH",
"857 575 OFFCURVE",
"935 585 OFFCURVE",
"981 582 CURVE SMOOTH",
"1032 579 OFFCURVE",
"1061 563 OFFCURVE",
"1072 556 CURVE SMOOTH"
);
},
{
closed = 1;
nodes = (
"753 471 OFFCURVE",
"674 519 OFFCURVE",
"659 513 CURVE",
"659 513 OFFCURVE",
"647 499 OFFCURVE",
"632 480 CURVE SMOOTH",
"622 468 OFFCURVE",
"626 462 OFFCURVE",
"643 471 CURVE",
"567 379 OFFCURVE",
"303 83 OFFCURVE",
"272 -8 CURVE SMOOTH",
"265 -32 OFFCURVE",
"271 -58 OFFCURVE",
"305 -86 CURVE",
"331 -35 OFFCURVE",
"393 38 OFFCURVE",
"437 92 CURVE SMOOTH",
"446 102 OFFCURVE",
"447 111 OFFCURVE",
"425 86 CURVE SMOOTH",
"340 -15 LINE SMOOTH",
"335 -20 OFFCURVE",
"331 -24 OFFCURVE",
"328 -28 CURVE SMOOTH",
"423 122 OFFCURVE",
"631 341 OFFCURVE",
"743 450 CURVE"
);
}
);
width = 928;
}
);
note = B.1;
},
{
glyphname = C.ss01;
lastChange = "2021-09-03 20:22:06 +0000";
layers = (
{
hints = (
{
horizontal = 1;
place = "{-72, 49}";
type = Stem;
},
{
horizontal = 1;
place = "{633, -20}";
target = down;
type = TopGhost;
},
{
place = "{0, 94}";
type = Stem;
},
{
place = "{782, 25}";
type = Stem;
},
{
place = "{830, 36}";
type = Stem;
},
{
horizontal = 1;
place = "{579, 86}";
type = Stem;
},
{
horizontal = 1;
place = "{285, 72}";
type = Stem;
}
);
layerId = "B9003040-D3EC-4996-96A5-33D5E21FF9E0";
paths = (
{
closed = 1;
nodes = (
"867 584 OFFCURVE",
"833 613 OFFCURVE",
"830 608 CURVE SMOOTH",
"827 601 OFFCURVE",
"828 595 OFFCURVE",
"824 586 CURVE SMOOTH",
"820 577 OFFCURVE",
"813 566 OFFCURVE",
"807 562 CURVE",
"814 575 OFFCURVE",
"801 618 OFFCURVE",
"771 664 CURVE",
"762 664 OFFCURVE",
"754 665 OFFCURVE",
"745 665 CURVE SMOOTH",
"614 658 OFFCURVE",
"527 614 OFFCURVE",
"370 541 CURVE",
"395 555 OFFCURVE",
"410 564 OFFCURVE",
"436 576 CURVE SMOOTH",
"485 597 OFFCURVE",
"526 617 OFFCURVE",
"565 633 CURVE",
"517 617 OFFCURVE",
"465 596 OFFCURVE",
"409 569 CURVE SMOOTH",
"314 524 OFFCURVE",
"163 409 OFFCURVE",
"107 343 CURVE",
"121 362 OFFCURVE",
"149 391 OFFCURVE",
"207 440 CURVE SMOOTH",
"268 492 OFFCURVE",
"321 520 OFFCURVE",
"352 541 CURVE",
"258 494 OFFCURVE",
"143 403 OFFCURVE",
"57 293 CURVE SMOOTH",
"-60 145 OFFCURVE",
"18 -23 OFFCURVE",
"161 -43 CURVE",
"209 -98 OFFCURVE",
"363 -62 OFFCURVE",
"413 -43 CURVE SMOOTH",
"511 -5 OFFCURVE",
"674 80 OFFCURVE",
"758 164 CURVE SMOOTH",
"788 195 OFFCURVE",
"787 210 OFFCURVE",
"755 192 CURVE SMOOTH",
"607 109 LINE",
"663 144 OFFCURVE",
"715 173 OFFCURVE",
"726 185 CURVE",
"694 167 OFFCURVE",
"538 72 OFFCURVE",
"515 58 CURVE SMOOTH",
"507 53 OFFCURVE",
"500 49 OFFCURVE",
"493 46 CURVE SMOOTH",
"366 -18 OFFCURVE",
"258 -31 OFFCURVE",
"207 -22 CURVE SMOOTH",
"88 -1 OFFCURVE",
"67 118 OFFCURVE",
"125 214 CURVE SMOOTH",
"258 433 OFFCURVE",
"526 552 OFFCURVE",
"718 579 CURVE SMOOTH",
"778 587 OFFCURVE",
"813 564 OFFCURVE",
"745 500 CURVE SMOOTH",
"685 444 OFFCURVE",
"566 368 OFFCURVE",
"493 357 CURVE SMOOTH",
"441 350 OFFCURVE",
"506 421 OFFCURVE",
"519 434 CURVE SMOOTH",
"557 474 OFFCURVE",
"547 476 OFFCURVE",
"533 470 CURVE SMOOTH",
"472 445 OFFCURVE",
"436 383 OFFCURVE",
"429 370 CURVE SMOOTH",
"416 344 OFFCURVE",
"469 292 OFFCURVE",
"480 285 CURVE",
"542 287 OFFCURVE",
"684 384 OFFCURVE",
"726 429 CURVE",
"770 424 OFFCURVE",
"863 520 OFFCURVE",
"866 566 CURVE SMOOTH"
);
},
{
closed = 1;
nodes = (
"569 86 OFFCURVE",
"541 66 OFFCURVE",
"511 48 CURVE SMOOTH",
"475 27 OFFCURVE",
"343 -23 OFFCURVE",
"310 -23 CURVE",
"347 -16 OFFCURVE",
"451 21 OFFCURVE",
"494 44 CURVE SMOOTH",
"529 61 OFFCURVE",
"560 83 OFFCURVE",
"602 106 CURVE"
);
},
{
closed = 1;
nodes = (
"663 664 OFFCURVE",
"614 652 OFFCURVE",
"565 633 CURVE",
"625 652 OFFCURVE",
"679 663 OFFCURVE",
"727 665 CURVE"
);
}
);
width = 758;
}
);
note = C.1;
},
{
glyphname = D.ss01;
lastChange = "2021-09-03 20:22:06 +0000";
layers = (
{
hints = (
{
horizontal = 1;
place = "{-3, 21}";
target = up;
type = BottomGhost;
},
{
horizontal = 1;
place = "{425, 96}";
type = Stem;
},
{
horizontal = 1;
place = "{587, 67}";
type = Stem;
},
{
place = "{825, 64}";
type = Stem;
},
{
horizontal = 1;
place = "{-32, 63}";
type = Stem;
},
{
horizontal = 1;
place = "{582, 72}";
type = Stem;
},
{
place = "{194, 31}";
type = Stem;
},
{
horizontal = 1;
place = "{-14, 21}";
target = up;
type = BottomGhost;
},
{
place = "{20, 36}";
type = Stem;
},
{
place = "{378, 16}";
type = Stem;
}
);
layerId = "B9003040-D3EC-4996-96A5-33D5E21FF9E0";
paths = (
{
closed = 1;
nodes = (
"832 332 OFFCURVE",
"783 268 OFFCURVE",
"716 204 CURVE",
"847 326 OFFCURVE",
"926 462 OFFCURVE",
"872 531 CURVE",
"839 775 OFFCURVE",
"358 584 OFFCURVE",
"237 560 CURVE SMOOTH",
"143 541 OFFCURVE",
"-171 494 OFFCURVE",
"-210 539 CURVE SMOOTH",
"-213 542 OFFCURVE",
"-237 559 OFFCURVE",
"-237 544 CURVE SMOOTH",
"-237 514 OFFCURVE",
"-202 425 OFFCURVE",
"-151 425 CURVE SMOOTH",
"-106 425 OFFCURVE",
"-55 438 OFFCURVE",
"0 454 CURVE",
"-118 430 OFFCURVE",
"-130 427 OFFCURVE",
"16 464 CURVE SMOOTH",
"82 481 OFFCURVE",
"150 489 OFFCURVE",
"220 505 CURVE SMOOTH",
"304 524 OFFCURVE",
"519 568 OFFCURVE",
"607 581 CURVE SMOOTH",
"647 587 OFFCURVE",
"777 599 OFFCURVE",
"825 553 CURVE",
"786 579 OFFCURVE",
"744 585 OFFCURVE",
"701 585 CURVE SMOOTH",
"653 585 OFFCURVE",
"554 572 OFFCURVE",
"497 558 CURVE",
"514 560 OFFCURVE",
"565 568 OFFCURVE",
"591 572 CURVE SMOOTH",
"608 575 OFFCURVE",
"686 585 OFFCURVE",
"732 582 CURVE SMOOTH",
"783 579 OFFCURVE",
"810 560 OFFCURVE",
"821 553 CURVE SMOOTH",
"860 530 OFFCURVE",
"573 44 OFFCURVE",
"247 31 CURVE SMOOTH",
"235 31 OFFCURVE",
"202 31 OFFCURVE",
"252 65 CURVE SMOOTH",
"303 100 OFFCURVE",
"393 138 OFFCURVE",
"438 150 CURVE",
"447 154 OFFCURVE",
"461 170 OFFCURVE",
"452 170 CURVE SMOOTH",
"387 166 OFFCURVE",
"183 86 OFFCURVE",
"169 24 CURVE SMOOTH",
"161 -15 OFFCURVE",
"206 -33 OFFCURVE",
"239 -32 CURVE SMOOTH",
"285 -30 OFFCURVE",
"334 -20 OFFCURVE",
"383 -3 CURVE",
"369 -11 OFFCURVE",
"361 -15 OFFCURVE",
"364 -14 CURVE SMOOTH",
"399 2 OFFCURVE",
"558 66 OFFCURVE",
"611 111 CURVE SMOOTH",
"637 133 OFFCURVE",
"662 155 OFFCURVE",
"685 176 CURVE SMOOTH",
"597 100 OFFCURVE",
"488 33 OFFCURVE",
"383 -3 CURVE",
"401 7 OFFCURVE",
"429 23 OFFCURVE",
"458 38 CURVE SMOOTH",
"489 55 OFFCURVE",
"564 89 OFFCURVE",
"615 133 CURVE SMOOTH",
"649 163 OFFCURVE",
"802 279 OFFCURVE",
"875 426 CURVE"
);
},
{
closed = 1;
nodes = (
"504 471 OFFCURVE",
"425 519 OFFCURVE",
"410 513 CURVE",
"410 513 OFFCURVE",
"398 499 OFFCURVE",
"383 480 CURVE SMOOTH",
"373 468 OFFCURVE",
"377 462 OFFCURVE",
"394 471 CURVE",
"318 379 OFFCURVE",
"54 83 OFFCURVE",
"23 -8 CURVE SMOOTH",
"16 -32 OFFCURVE",
"22 -58 OFFCURVE",
"56 -86 CURVE",
"82 -35 OFFCURVE",
"144 38 OFFCURVE",
"188 92 CURVE SMOOTH",
"197 102 OFFCURVE",
"198 111 OFFCURVE",
"176 86 CURVE SMOOTH",
"91 -15 LINE",
"79 -29 LINE",
"175 122 OFFCURVE",
"382 341 OFFCURVE",
"494 450 CURVE"
);
},
{
closed = 1;
nodes = (
"685 176 LINE",
"703 192 LINE"
);
},
{
closed = 1;
nodes = (
"709 198 LINE",
"716 204 LINE"
);
},
{
closed = 1;
nodes = (
"703 192 LINE",
"709 198 LINE"
);
}
);
width = 733;
}
);
note = D.1;
},
{
glyphname = E.ss01;
lastChange = "2021-09-03 20:22:06 +0000";
layers = (
{
hints = (
{
horizontal = 1;
place = "{254, 11}";
type = Stem;
},
{
horizontal = 1;
place = "{599, 25}";
type = Stem;
},
{
horizontal = 1;
place = "{607, 17}";
type = Stem;
},
{
place = "{27, 936}";
type = Stem;
}
);
layerId = "B9003040-D3EC-4996-96A5-33D5E21FF9E0";
paths = (
{
closed = 1;
nodes = (
"656 595 OFFCURVE",
"615 601 OFFCURVE",
"604 603 CURVE SMOOTH",
"339 654 OFFCURVE",
"185 580 OFFCURVE",
"67 515 CURVE",
"68 517 LINE",
"63 513 OFFCURVE",
"60 511 OFFCURVE",
"65 514 CURVE SMOOTH",
"67 515 LINE",
"50 499 OFFCURVE",
"38 480 OFFCURVE",
"31 458 CURVE SMOOTH",
"7 379 OFFCURVE",
"100 354 OFFCURVE",
"77 408 CURVE",
"96 479 OFFCURVE",
"273 540 OFFCURVE",
"305 547 CURVE SMOOTH",
"385 565 OFFCURVE",
"474 568 OFFCURVE",
"546 568 CURVE",
"532 557 OFFCURVE",
"506 536 OFFCURVE",
"501 529 CURVE",
"519 545 OFFCURVE",
"541 559 OFFCURVE",
"547 564 CURVE SMOOTH",
"451 484 OFFCURVE",
"318 341 OFFCURVE",
"272 283 CURVE",
"150 267 LINE SMOOTH",
"110 261 OFFCURVE",
"82 227 OFFCURVE",
"121 232 CURVE SMOOTH",
"137 234 OFFCURVE",
"215 243 OFFCURVE",
"237 244 CURVE",
"197 191 OFFCURVE",
"152 119 OFFCURVE",
"152 69 CURVE SMOOTH",
"152 63 OFFCURVE",
"152 57 OFFCURVE",
"153 52 CURVE",
"122 45 OFFCURVE",
"84 35 OFFCURVE",
"71 30 CURVE",
"54 20 OFFCURVE",
"72 -35 OFFCURVE",
"109 -24 CURVE SMOOTH",
"195 -2 LINE",
"203 -7 OFFCURVE",
"212 -9 OFFCURVE",
"220 -10 CURVE",
"258 -10 OFFCURVE",
"253 -3 OFFCURVE",
"243 9 CURVE",
"297 22 LINE SMOOTH",
"300 23 OFFCURVE",
"294 23 OFFCURVE",
"287 22 CURVE SMOOTH",
"241 12 LINE",
"241 13 OFFCURVE",
"240 13 OFFCURVE",
"239 14 CURVE",
"287 27 OFFCURVE",
"344 41 OFFCURVE",
"393 47 CURVE SMOOTH",
"520 61 OFFCURVE",
"559 45 OFFCURVE",
"529 -9 CURVE SMOOTH",
"508 -46 OFFCURVE",
"540 -20 OFFCURVE",
"549 -12 CURVE SMOOTH",
"587 24 OFFCURVE",
"621 65 OFFCURVE",
"557 88 CURVE SMOOTH",
"539 95 OFFCURVE",
"519 99 OFFCURVE",
"498 102 CURVE",
"410 108 OFFCURVE",
"294 86 OFFCURVE",
"229 71 CURVE",
"235 106 OFFCURVE",
"256 169 OFFCURVE",
"330 254 CURVE",
"340 255 OFFCURVE",
"486 266 OFFCURVE",
"527 268 CURVE",
"507 257 OFFCURVE",
"564 267 OFFCURVE",
"592 284 CURVE SMOOTH",
"598 288 OFFCURVE",
"585 311 OFFCURVE",
"574 311 CURVE SMOOTH",
"571 311 OFFCURVE",
"562 320 OFFCURVE",
"555 319 CURVE SMOOTH",
"483 304 OFFCURVE",
"408 298 OFFCURVE",
"360 290 CURVE",
"422 360 OFFCURVE",
"571 478 OFFCURVE",
"661 543 CURVE",
"710 547 OFFCURVE",
"826 530 OFFCURVE",
"874 522 CURVE SMOOTH",
"897 518 OFFCURVE",
"901 537 OFFCURVE",
"875 552 CURVE SMOOTH",
"846 569 OFFCURVE",
"778 588 OFFCURVE",
"714 593 CURVE",
"711 617 OFFCURVE",
"653 621 OFFCURVE",
"639 621 CURVE SMOOTH",
"630 621 OFFCURVE",
"620 618 OFFCURVE",
"603 607 CURVE",
"604 606 OFFCURVE",
"605 606 OFFCURVE",
"607 606 CURVE"
);
},
{
closed = 1;
nodes = (
"159 575 OFFCURVE",
"105 552 OFFCURVE",
"68 517 CURVE",
"80 524 LINE",
"118 551 OFFCURVE",
"162 575 OFFCURVE",
"210 591 CURVE"
);
},
{
closed = 1;
nodes = (
"560 618 OFFCURVE",
"512 623 OFFCURVE",
"463 624 CURVE SMOOTH",
"508 623 OFFCURVE",
"556 616 OFFCURVE",
"603 607 CURVE"
);
},
{
closed = 1;
nodes = (
"363 623 OFFCURVE",
"312 616 OFFCURVE",
"264 606 CURVE",
"308 615 OFFCURVE",
"362 622 OFFCURVE",
"417 624 CURVE"
);
},
{
closed = 1;
nodes = (
"550 94 OFFCURVE",
"534 98 OFFCURVE",
"516 100 CURVE",
"533 98 OFFCURVE",
"549 94 OFFCURVE",
"564 89 CURVE"
);
},
{
closed = 1;
nodes = (
"191 0 LINE",
"192 0 LINE",
"182 -3 LINE"
);
},
{
closed = 1;
nodes = (
"255 604 LINE SMOOTH",
"240 600 OFFCURVE",
"225 596 OFFCURVE",
"210 591 CURVE SMOOTH"
);
},
{
closed = 1;
nodes = (
"516 100 LINE",
"490 103 LINE",
"493 102 OFFCURVE",
"495 102 OFFCURVE",
"498 102 CURVE SMOOTH"
);
},
{
closed = 1;
nodes = (
"256 604 LINE SMOOTH",
"258 604 OFFCURVE",
"261 605 OFFCURVE",
"264 606 CURVE",
"261 605 OFFCURVE",
"258 604 OFFCURVE",
"255 604 CURVE SMOOTH"
);
},
{
closed = 1;
nodes = (
"572 86 LINE",
"564 89 LINE"
);
}
);
width = 634;
}
);
note = E.1;
},
{
glyphname = F.ss01;
lastChange = "2021-09-03 20:22:06 +0000";
layers = (
{
hints = (
{
horizontal = 1;
place = "{-10, 21}";
target = up;
type = BottomGhost;
},
{
horizontal = 1;
place = "{308, 30}";
type = Stem;
},
{
horizontal = 1;
place = "{566, 73}";
type = Stem;
},
{
place = "{152, 75}";
type = Stem;
},
{
horizontal = 1;
place = "{248, 49}";
type = Stem;
},
{
horizontal = 1;
place = "{254, 46}";
type = Stem;
},
{
horizontal = 1;
place = "{472, 89}";
type = Stem;
},
{
horizontal = 1;
place = "{297, 24}";
type = Stem;
},
{
horizontal = 1;
place = "{571, 68}";
type = Stem;
}
);
layerId = "B9003040-D3EC-4996-96A5-33D5E21FF9E0";
paths = (
{
closed = 1;
nodes = (
"25 318 OFFCURVE",
"27 313 OFFCURVE",
"32 308 CURVE",
"23 276 OFFCURVE",
"20 238 OFFCURVE",
"37 250 CURVE",
"75 241 OFFCURVE",
"155 243 OFFCURVE",
"265 248 CURVE",
"217 182 OFFCURVE",
"177 119 OFFCURVE",
"152 69 CURVE",
"152 25 OFFCURVE",
"188 -7 OFFCURVE",
"220 -10 CURVE",
"284 -10 OFFCURVE",
"227 10 OFFCURVE",
"227 43 CURVE SMOOTH",
"227 63 OFFCURVE",
"268 146 OFFCURVE",
"353 254 CURVE",
"434 262 OFFCURVE",
"517 278 OFFCURVE",
"587 297 CURVE SMOOTH",
"608 302 OFFCURVE",
"666 333 OFFCURVE",
"625 325 CURVE SMOOTH",
"616 324 OFFCURVE",
"529 314 OFFCURVE",
"448 306 CURVE SMOOTH",
"437 304 OFFCURVE",
"411 302 OFFCURVE",
"391 300 CURVE",
"392 301 OFFCURVE",
"392 301 OFFCURVE",
"392 302 CURVE",
"437 306 OFFCURVE",
"531 315 OFFCURVE",
"519 317 CURVE",
"514 317 OFFCURVE",
"454 309 OFFCURVE",
"394 304 CURVE",
"463 384 OFFCURVE",
"555 474 OFFCURVE",
"671 561 CURVE",
"689 563 LINE SMOOTH",
"706 565 OFFCURVE",
"785 569 OFFCURVE",
"830 563 CURVE SMOOTH",
"881 556 OFFCURVE",
"917 538 OFFCURVE",
"932 524 CURVE SMOOTH",
"970 487 OFFCURVE",
"962 462 OFFCURVE",
"966 501 CURVE SMOOTH",
"990 746 OFFCURVE",
"457 592 OFFCURVE",
"335 577 CURVE SMOOTH",
"240 565 OFFCURVE",
"-77 542 OFFCURVE",
"-112 590 CURVE",
"-115 593 OFFCURVE",
"-138 612 OFFCURVE",
"-139 597 CURVE SMOOTH",
"-141 567 OFFCURVE",
"-113 475 OFFCURVE",
"-62 472 CURVE SMOOTH",
"-17 468 OFFCURVE",
"35 477 OFFCURVE",
"91 489 CURVE",
"21 480 LINE SMOOTH",
"40 483 OFFCURVE",
"83 490 OFFCURVE",
"155 503 CURVE SMOOTH",
"256 521 OFFCURVE",
"392 540 OFFCURVE",
"530 555 CURVE",
"494 525 OFFCURVE",
"511 538 OFFCURVE",
"535 555 CURVE",
"537 555 LINE",
"464 492 OFFCURVE",
"378 395 OFFCURVE",
"303 298 CURVE",
"272 297 OFFCURVE",
"231 295 OFFCURVE",
"190 297 CURVE",
"229 304 OFFCURVE",
"259 316 OFFCURVE",
"259 326 CURVE SMOOTH",
"259 339 OFFCURVE",
"256 338 OFFCURVE",
"249 331 CURVE SMOOTH",
"244 326 OFFCURVE",
"174 321 OFFCURVE",
"152 321 CURVE SMOOTH",
"114 318 OFFCURVE",
"33 361 OFFCURVE",
"26 323 CURVE SMOOTH"
);
},
{
closed = 1;
nodes = (
"771 570 OFFCURVE",
"722 569 OFFCURVE",
"676 565 CURVE",
"681 569 LINE",
"706 571 LINE SMOOTH",
"746 574 OFFCURVE",
"891 573 OFFCURVE",
"936 524 CURVE",
"899 552 OFFCURVE",
"842 565 OFFCURVE",
"800 568 CURVE SMOOTH"
);
}
);
width = 547;
}
);
note = F.1;
},
{
glyphname = G.ss01;
lastChange = "2021-09-03 20:22:06 +0000";
layers = (
{
hints = (
{
horizontal = 1;
place = "{-122, 76}";
type = Stem;
},
{
horizontal = 1;
place = "{3, 21}";
target = up;
type = BottomGhost;
},
{
horizontal = 1;
place = "{633, -20}";
target = down;
type = TopGhost;
},
{
place = "{-49, 109}";
type = Stem;
},
{
place = "{782, 25}";
type = Stem;
},
{
horizontal = 1;
place = "{-5, 21}";
target = up;
type = BottomGhost;
},
{
place = "{830, 36}";
type = Stem;
},
{
horizontal = 1;
place = "{153, 43}";
type = Stem;
},
{
place = "{53, 137}";
type = Stem;
},
{
horizontal = 1;
place = "{220, 28}";
type = Stem;
},
{
horizontal = 1;
place = "{254, 28}";
type = Stem;
}
);
layerId = "B9003040-D3EC-4996-96A5-33D5E21FF9E0";
paths = (
{
closed = 1;
nodes = (
"427 60 OFFCURVE",
"393 39 OFFCURVE",
"362 22 CURVE SMOOTH",
"327 0 OFFCURVE",
"245 -37 OFFCURVE",
"212 -37 CURVE",
"207 -38 OFFCURVE",
"265 -18 OFFCURVE",
"284 -9 CURVE SMOOTH",
"286 -8 OFFCURVE",
"288 -6 OFFCURVE",
"291 -5 CURVE SMOOTH",
"-8 -136 OFFCURVE",
"39 73 OFFCURVE",
"125 214 CURVE SMOOTH",
"258 433 OFFCURVE",
"526 552 OFFCURVE",
"718 579 CURVE SMOOTH",
"888 602 OFFCURVE",
"675 440 OFFCURVE",
"642 416 CURVE SMOOTH",
"602 387 OFFCURVE",
"560 338 OFFCURVE",
"638 370 CURVE SMOOTH",
"672 384 OFFCURVE",
"735 439 OFFCURVE",
"751 456 CURVE",
"795 451 OFFCURVE",
"863 520 OFFCURVE",
"866 566 CURVE SMOOTH",
"867 584 OFFCURVE",
"833 613 OFFCURVE",
"830 608 CURVE SMOOTH",
"827 601 OFFCURVE",
"828 595 OFFCURVE",
"824 586 CURVE SMOOTH",
"820 577 OFFCURVE",
"813 566 OFFCURVE",
"807 562 CURVE",
"814 575 OFFCURVE",
"801 618 OFFCURVE",
"771 664 CURVE",
"762 664 OFFCURVE",
"754 665 OFFCURVE",
"745 665 CURVE SMOOTH",
"614 658 OFFCURVE",
"527 614 OFFCURVE",
"370 541 CURVE",
"395 555 OFFCURVE",
"410 564 OFFCURVE",
"436 576 CURVE SMOOTH",
"485 597 OFFCURVE",
"526 617 OFFCURVE",
"565 633 CURVE",
"517 617 OFFCURVE",
"465 596 OFFCURVE",
"409 569 CURVE SMOOTH",
"314 524 OFFCURVE",
"163 409 OFFCURVE",
"107 343 CURVE",
"121 362 OFFCURVE",
"149 391 OFFCURVE",
"207 440 CURVE SMOOTH",
"268 492 OFFCURVE",
"321 520 OFFCURVE",
"352 541 CURVE",
"258 494 OFFCURVE",
"143 403 OFFCURVE",
"57 293 CURVE SMOOTH",
"-60 145 OFFCURVE",
"-107 -20 OFFCURVE",
"57 -87 CURVE",
"27 -127 OFFCURVE",
"178 -130 OFFCURVE",
"188 -110 CURVE",
"192 -107 OFFCURVE",
"191 -102 OFFCURVE",
"190 -97 CURVE",
"337 -56 OFFCURVE",
"549 35 OFFCURVE",
"656 151 CURVE SMOOTH",
"657 152 LINE",
"697 153 OFFCURVE",
"736 156 OFFCURVE",
"771 161 CURVE SMOOTH",
"789 163 OFFCURVE",
"841 186 OFFCURVE",
"807 184 CURVE SMOOTH",
"799 184 OFFCURVE",
"727 187 OFFCURVE",
"659 191 CURVE",
"647 190 OFFCURVE",
"611 193 OFFCURVE",
"597 196 CURVE",
"620 195 OFFCURVE",
"731 187 OFFCURVE",
"719 191 CURVE",
"713 192 OFFCURVE",
"601 195 OFFCURVE",
"543 204 CURVE SMOOTH",
"517 207 OFFCURVE",
"482 212 OFFCURVE",
"448 220 CURVE",
"480 221 OFFCURVE",
"505 228 OFFCURVE",
"506 238 CURVE SMOOTH",
"508 251 OFFCURVE",
"505 250 OFFCURVE",
"500 245 CURVE SMOOTH",
"495 240 OFFCURVE",
"436 246 OFFCURVE",
"419 249 CURVE",
"387 251 OFFCURVE",
"326 306 OFFCURVE",
"315 269 CURVE SMOOTH",
"314 264 OFFCURVE",
"315 259 OFFCURVE",
"318 254 CURVE",
"308 223 OFFCURVE",
"300 186 OFFCURVE",
"316 195 CURVE",
"348 180 OFFCURVE",
"420 170 OFFCURVE",
"520 158 CURVE SMOOTH",
"536 156 OFFCURVE",
"551 154 OFFCURVE",
"568 153 CURVE",
"523 127 OFFCURVE",
"387 45 OFFCURVE",
"366 32 CURVE SMOOTH",
"353 24 LINE",
"386 40 OFFCURVE",
"422 59 OFFCURVE",
"460 80 CURVE"
);
},
{
closed = 1;
nodes = (
"509 110 OFFCURVE",
"553 139 OFFCURVE",
"571 153 CURVE",
"583 153 LINE",
"539 127 OFFCURVE",
"498 101 OFFCURVE",
"460 80 CURVE"
);
},
{
closed = 1;
nodes = (
"663 664 OFFCURVE",
"614 652 OFFCURVE",
"565 633 CURVE",
"625 652 OFFCURVE",
"679 663 OFFCURVE",
"727 665 CURVE"
);
},
{
closed = 1;
nodes = (
"308 3 LINE SMOOTH",
"319 8 OFFCURVE",
"331 13 OFFCURVE",
"344 20 CURVE"
);
},
{
closed = 1;
nodes = (
"302 0 OFFCURVE",
"296 -2 OFFCURVE",
"291 -5 CURVE",
"296 -2 OFFCURVE",
"302 0 OFFCURVE",
"308 3 CURVE"
);
},
{
closed = 1;
nodes = (
"344 20 LINE",
"347 21 OFFCURVE",
"350 22 OFFCURVE",
"353 24 CURVE"
);
}
);
width = 718;
}
);
note = G.1;
},
{
glyphname = H.ss01;
lastChange = "2021-09-03 20:22:06 +0000";
layers = (
{
hints = (
{
horizontal = 1;
place = "{-219, 36}";
type = Stem;
},
{
horizontal = 1;
place = "{-28, 21}";
target = up;
type = BottomGhost;
},
{
horizontal = 1;
place = "{609, 7}";
type = Stem;
},
{
horizontal = 1;
place = "{621, 7}";
type = Stem;
},
{
place = "{-12, 15}";
type = Stem;
},
{
place = "{153, 34}";
type = Stem;
},
{
place = "{263, 41}";
type = Stem;
},
{
place = "{583, 97}";
type = Stem;
},
{
place = "{623, 13}";
type = Stem;
}
);
layerId = "B9003040-D3EC-4996-96A5-33D5E21FF9E0";
paths = (
{
closed = 1;
nodes = (
"631 624 OFFCURVE",
"631 623 OFFCURVE",
"630 622 CURVE",
"459 617 OFFCURVE",
"391 537 OFFCURVE",
"345 468 CURVE",
"345 470 LINE",
"342 466 OFFCURVE",
"340 462 OFFCURVE",
"343 466 CURVE SMOOTH",
"345 468 LINE",
"339 452 OFFCURVE",
"337 434 OFFCURVE",
"339 415 CURVE SMOOTH",
"346 347 OFFCURVE",
"401 344 OFFCURVE",
"374 384 CURVE",
"366 444 OFFCURVE",
"472 523 OFFCURVE",
"489 534 CURVE SMOOTH",
"530 562 OFFCURVE",
"589 589 OFFCURVE",
"637 597 CURVE",
"639 595 LINE",
"638 549 OFFCURVE",
"568 418 OFFCURVE",
"476 278 CURVE",
"333 271 OFFCURVE",
"182 269 OFFCURVE",
"129 283 CURVE",
"135 291 OFFCURVE",
"170 299 OFFCURVE",
"178 306 CURVE SMOOTH",
"195 320 OFFCURVE",
"187 317 OFFCURVE",
"172 310 CURVE SMOOTH",
"156 302 OFFCURVE",
"88 297 OFFCURVE",
"65 296 CURVE SMOOTH",
"40 296 OFFCURVE",
"19 312 OFFCURVE",
"5 283 CURVE SMOOTH",
"-17 239 OFFCURVE",
"-13 207 OFFCURVE",
"38 202 CURVE",
"109 202 OFFCURVE",
"214 204 OFFCURVE",
"443 228 CURVE",
"365 109 OFFCURVE",
"252 -54 OFFCURVE",
"132 -130 CURVE SMOOTH",
"59 -176 OFFCURVE",
"-30 -172 OFFCURVE",
"13 -69 CURVE SMOOTH",
"31 -27 OFFCURVE",
"64 6 OFFCURVE",
"89 28 CURVE",
"52 0 OFFCURVE",
"40 -8 OFFCURVE",
"27 -24 CURVE",
"45 0 OFFCURVE",
"75 22 OFFCURVE",
"104 43 CURVE",
"125 54 OFFCURVE",
"147 89 OFFCURVE",
"73 45 CURVE SMOOTH",
"40 25 OFFCURVE",
"8 1 OFFCURVE",
"-11 -27 CURVE SMOOTH",
"-56 -94 OFFCURVE",
"-39 -211 OFFCURVE",
"56 -211 CURVE SMOOTH",
"144 -211 OFFCURVE",
"225 -165 OFFCURVE",
"296 -104 CURVE",
"313 -87 OFFCURVE",
"334 -63 OFFCURVE",
"349 -41 CURVE",
"333 -58 OFFCURVE",
"309 -87 OFFCURVE",
"284 -110 CURVE SMOOTH",
"255 -137 OFFCURVE",
"223 -162 OFFCURVE",
"182 -174 CURVE SMOOTH",
"179 -175 OFFCURVE",
"223 -154 OFFCURVE",
"238 -143 CURVE SMOOTH",
"333 -77 OFFCURVE",
"424 58 OFFCURVE",
"484 142 CURVE SMOOTH",
"503 168 OFFCURVE",
"526 203 OFFCURVE",
"549 240 CURVE",
"606 246 OFFCURVE",
"669 254 OFFCURVE",
"740 263 CURVE",
"729 242 OFFCURVE",
"689 156 OFFCURVE",
"674 113 CURVE",
"675 121 OFFCURVE",
"704 191 OFFCURVE",
"703 189 CURVE SMOOTH",
"668 132 OFFCURVE",
"603 -56 OFFCURVE",
"715 -74 CURVE SMOOTH",
"730 -76 OFFCURVE",
"733 -65 OFFCURVE",
"723 -58 CURVE SMOOTH",
"657 -14 OFFCURVE",
"794 222 OFFCURVE",
"834 275 CURVE",
"891 285 OFFCURVE",
"946 305 OFFCURVE",
"960 311 CURVE SMOOTH",
"982 321 OFFCURVE",
"987 332 OFFCURVE",
"956 326 CURVE SMOOTH",
"927 320 OFFCURVE",
"896 314 OFFCURVE",
"864 310 CURVE",
"946 436 OFFCURVE",
"1036 550 OFFCURVE",
"1036 552 CURVE SMOOTH",
"1038 591 OFFCURVE",
"988 636 OFFCURVE",
"961 610 CURVE SMOOTH",
"946 596 OFFCURVE",
"909 565 OFFCURVE",
"897 536 CURVE SMOOTH",
"889 517 OFFCURVE",
"867 479 OFFCURVE",
"863 473 CURVE",
"903 517 LINE",
"862 464 OFFCURVE",
"803 363 OFFCURVE",
"762 297 CURVE",
"736 294 OFFCURVE",
"663 288 OFFCURVE",
"575 283 CURVE",
"613 347 OFFCURVE",
"647 407 OFFCURVE",
"658 427 CURVE SMOOTH",
"659 429 OFFCURVE",
"604 341 OFFCURVE",
"582 309 CURVE SMOOTH",
"564 282 LINE",
"559 282 LINE",
"593 340 OFFCURVE",
"625 398 OFFCURVE",
"656 454 CURVE",
"689 489 OFFCURVE",
"761 565 OFFCURVE",
"709 592 CURVE",
"708 622 OFFCURVE",
"672 646 OFFCURVE",
"645 638 CURVE SMOOTH",
"641 637 OFFCURVE",
"637 634 OFFCURVE",
"634 630 CURVE",
"644 631 OFFCURVE",
"653 631 OFFCURVE",
"663 631 CURVE SMOOTH",
"670 631 OFFCURVE",
"673 625 OFFCURVE",
"666 623 CURVE",
"656 625 OFFCURVE",
"644 625 OFFCURVE",
"631 625 CURVE",
"634 630 LINE",
"562 627 OFFCURVE",
"506 611 OFFCURVE",
"457 586 CURVE",
"502 608 OFFCURVE",
"571 625 OFFCURVE",
"631 625 CURVE"
);
},
{
closed = 1;
nodes = (
"398 548 OFFCURVE",
"361 514 OFFCURVE",
"345 470 CURVE",
"347 472 OFFCURVE",
"348 474 OFFCURVE",
"348 476 CURVE",
"368 517 OFFCURVE",
"401 553 OFFCURVE",
"442 577 CURVE",
"436 575 OFFCURVE",
"431 572 OFFCURVE",
"427 569 CURVE SMOOTH"
);
},
{
closed = 1;
nodes = (
"481 154 LINE SMOOTH",
"498 181 OFFCURVE",
"515 209 OFFCURVE",
"532 238 CURVE",
"535 238 LINE"
);
},
{
closed = 1;
nodes = (
"450 582 LINE SMOOTH",
"447 580 OFFCURVE",
"444 579 OFFCURVE",
"442 577 CURVE"
);
},
{
closed = 1;
nodes = (
"93 31 LINE",
"89 28 LINE"
);
},
{
closed = 1;
nodes = (
"455 584 OFFCURVE",
"452 583 OFFCURVE",
"450 582 CURVE",
"452 583 OFFCURVE",
"455 584 OFFCURVE",
"457 586 CURVE"
);
}
);
width = 822;
}
);
note = H.1;
},
{
glyphname = I.ss01;
lastChange = "2021-09-03 20:22:06 +0000";
layers = (
{
hints = (
{
horizontal = 1;
place = "{646, 7}";
type = Stem;
},
{
place = "{298, 194}";
type = Stem;
}
);
layerId = "B9003040-D3EC-4996-96A5-33D5E21FF9E0";
paths = (
{
closed = 1;
nodes = (
"-207 -102 OFFCURVE",
"-127 -68 OFFCURVE",
"-30 -40 CURVE",
"-51 -77 OFFCURVE",
"-55 -92 OFFCURVE",
"-21 -91 CURVE",
"13 -73 OFFCURVE",
"30 -55 OFFCURVE",
"58 -19 CURVE",
"124 -5 OFFCURVE",
"231 14 OFFCURVE",
"243 -35 CURVE",
"216 -98 OFFCURVE",
"273 -38 OFFCURVE",
"282 6 CURVE SMOOTH",
"289 40 OFFCURVE",
"275 59 OFFCURVE",
"181 50 CURVE SMOOTH",
"161 48 OFFCURVE",
"126 42 OFFCURVE",
"99 37 CURVE",
"102 40 LINE",
"127 46 OFFCURVE",
"167 52 OFFCURVE",
"223 56 CURVE",
"188 56 OFFCURVE",
"147 51 OFFCURVE",
"103 42 CURVE",
"145 103 OFFCURVE",
"217 205 OFFCURVE",
"274 270 CURVE",
"268 269 OFFCURVE",
"182 157 OFFCURVE",
"145 115 CURVE",
"257 263 LINE SMOOTH",
"360 394 OFFCURVE",
"473 540 OFFCURVE",
"512 580 CURVE",
"526 612 OFFCURVE",
"464 643 OFFCURVE",
"439 651 CURVE SMOOTH",
"423 656 OFFCURVE",
"420 643 OFFCURVE",
"420 637 CURVE",
"406 640 OFFCURVE",
"392 640 OFFCURVE",
"377 642 CURVE",
"389 640 OFFCURVE",
"402 640 OFFCURVE",
"414 637 CURVE",
"423 637 OFFCURVE",
"433 631 OFFCURVE",
"416 633 CURVE SMOOTH",
"212 667 OFFCURVE",
"125 594 OFFCURVE",
"61 536 CURVE SMOOTH",
"56 532 OFFCURVE",
"60 538 OFFCURVE",
"63 544 CURVE",
"53 531 OFFCURVE",
"49 521 OFFCURVE",
"44 505 CURVE SMOOTH",
"25 443 OFFCURVE",
"85 426 OFFCURVE",
"73 468 CURVE",
"88 525 OFFCURVE",
"208 576 OFFCURVE",
"230 583 CURVE SMOOTH",
"296 602 OFFCURVE",
"360 615 OFFCURVE",
"413 610 CURVE",
"404 584 OFFCURVE",
"341 513 OFFCURVE",
"323 485 CURVE",
"339 501 OFFCURVE",
"377 553 OFFCURVE",
"409 586 CURVE",
"382 551 OFFCURVE",
"356 519 OFFCURVE",
"314 466 CURVE SMOOTH",
"205 327 OFFCURVE",
"46 87 OFFCURVE",
"6 21 CURVE",
"-55 6 OFFCURVE",
"-116 -11 OFFCURVE",
"-165 -23 CURVE",
"-154 -13 OFFCURVE",
"-147 -4 OFFCURVE",
"-148 1 CURVE SMOOTH",
"-151 12 OFFCURVE",
"-152 11 OFFCURVE",
"-155 3 CURVE SMOOTH",
"-157 -3 OFFCURVE",
"-196 -22 OFFCURVE",
"-208 -27 CURVE SMOOTH",
"-229 -38 OFFCURVE",
"-282 -21 OFFCURVE",
"-280 -53 CURVE SMOOTH",
"-280 -64 OFFCURVE",
"-276 -101 OFFCURVE",
"-270 -112 CURVE"
);
},
{
closed = 1;
nodes = (
"102 580 OFFCURVE",
"163 616 OFFCURVE",
"207 628 CURVE SMOOTH",
"246 640 OFFCURVE",
"310 646 OFFCURVE",
"369 643 CURVE",
"225 655 OFFCURVE",
"110 604 OFFCURVE",
"63 544 CURVE"
);
},
{
closed = 1;
nodes = (
"375 643 LINE",
"369 643 LINE"
);
}
);
width = 359;
}
);
note = I.1;
},
{
glyphname = J.ss01;
lastChange = "2021-09-03 20:22:06 +0000";
layers = (
{
hints = (
{
horizontal = 1;
place = "{-225, 50}";
type = Stem;
},
{
horizontal = 1;
place = "{641, 7}";
type = Stem;
},
{
place = "{719, 32}";
type = Stem;
},
{
horizontal = 1;
place = "{643, -20}";
target = down;
type = TopGhost;
},
{
horizontal = 1;
place = "{642, -20}";
target = down;
type = TopGhost;
},
{
horizontal = 1;
place = "{592, 50}";
type = Stem;
},
{
horizontal = 1;
place = "{641, 11}";
type = Stem;
}
);
layerId = "B9003040-D3EC-4996-96A5-33D5E21FF9E0";
paths = (
{
closed = 1;
nodes = (
"751 710 OFFCURVE",
"730 698 OFFCURVE",
"724 665 CURVE SMOOTH",
"723 658 OFFCURVE",
"721 650 OFFCURVE",
"719 642 CURVE",
"700 642 OFFCURVE",
"680 642 OFFCURVE",
"660 643 CURVE SMOOTH",
"644 643 OFFCURVE",
"624 645 OFFCURVE",
"620 646 CURVE",
"633 654 OFFCURVE",
"641 662 OFFCURVE",
"644 670 CURVE SMOOTH",
"651 685 OFFCURVE",
"645 682 OFFCURVE",
"636 675 CURVE SMOOTH",
"630 669 OFFCURVE",
"599 666 OFFCURVE",
"580 666 CURVE",
"556 671 OFFCURVE",
"539 690 OFFCURVE",
"519 652 CURVE SMOOTH",
"518 650 OFFCURVE",
"518 646 OFFCURVE",
"521 642 CURVE",
"500 616 OFFCURVE",
"488 596 OFFCURVE",
"511 591 CURVE",
"536 591 OFFCURVE",
"610 587 OFFCURVE",
"703 592 CURVE",
"669 502 OFFCURVE",
"602 386 OFFCURVE",
"536 288 CURVE SMOOTH",
"461 178 OFFCURVE",
"344 7 OFFCURVE",
"141 -133 CURVE SMOOTH",
"67 -184 OFFCURVE",
"-23 -192 OFFCURVE",
"-37 -137 CURVE SMOOTH",
"-56 -63 OFFCURVE",
"52 62 OFFCURVE",
"110 109 CURVE SMOOTH",
"231 210 OFFCURVE",
"395 272 OFFCURVE",
"482 314 CURVE",
"495 325 OFFCURVE",
"477 331 OFFCURVE",
"376 299 CURVE SMOOTH",
"298 273 OFFCURVE",
"173 226 OFFCURVE",
"75 154 CURVE SMOOTH",
"-9 92 OFFCURVE",
"-107 -25 OFFCURVE",
"-85 -129 CURVE SMOOTH",
"-74 -183 OFFCURVE",
"-24 -225 OFFCURVE",
"45 -225 CURVE SMOOTH",
"185 -225 OFFCURVE",
"267 -141 OFFCURVE",
"359 -68 CURVE SMOOTH",
"382 -48 OFFCURVE",
"409 -20 OFFCURVE",
"428 8 CURVE",
"406 -12 OFFCURVE",
"375 -46 OFFCURVE",
"345 -74 CURVE SMOOTH",
"307 -108 OFFCURVE",
"270 -142 OFFCURVE",
"216 -159 CURVE SMOOTH",
"214 -160 OFFCURVE",
"269 -131 OFFCURVE",
"287 -118 CURVE SMOOTH",
"405 -32 OFFCURVE",
"501 95 OFFCURVE",
"552 173 CURVE SMOOTH",
"619 276 OFFCURVE",
"703 414 OFFCURVE",
"718 450 CURVE",
"713 444 OFFCURVE",
"670 371 OFFCURVE",
"650 341 CURVE SMOOTH",
"629 311 OFFCURVE",
"598 259 OFFCURVE",
"558 201 CURVE",
"618 290 OFFCURVE",
"668 377 OFFCURVE",
"714 469 CURVE SMOOTH",
"725 492 OFFCURVE",
"737 546 OFFCURVE",
"744 594 CURVE",
"789 598 OFFCURVE",
"837 605 OFFCURVE",
"886 615 CURVE SMOOTH",
"923 624 OFFCURVE",
"966 658 OFFCURVE",
"918 652 CURVE SMOOTH",
"874 647 OFFCURVE",
"819 644 OFFCURVE",
"766 641 CURVE",
"781 644 OFFCURVE",
"828 646 OFFCURVE",
"834 648 CURVE",
"750 643 LINE",
"752 662 OFFCURVE",
"752 676 OFFCURVE",
"751 683 CURVE"
);
}
);
width = 604;
}
);
note = J.1;
},
{
glyphname = K.ss01;
lastChange = "2021-09-03 20:22:06 +0000";
layers = (
{
hints = (
{
horizontal = 1;
place = "{-146, 52}";
type = Stem;
},
{
horizontal = 1;
place = "{604, 25}";
type = Stem;
},
{
place = "{-130, 42}";
type = Stem;
},
{
place = "{589, 50}";
type = Stem;
},
{
place = "{925, 26}";
type = Stem;
},
{
horizontal = 1;
place = "{597, 10}";
type = Stem;
},
{
horizontal = 1;
place = "{593, 7}";
type = Stem;
}
);
layerId = "B9003040-D3EC-4996-96A5-33D5E21FF9E0";
paths = (
{
closed = 1;
nodes = (
"1238 689 OFFCURVE",
"1220 691 OFFCURVE",
"1186 687 CURVE",
"1178 685 OFFCURVE",
"1169 684 OFFCURVE",
"1171 686 CURVE",
"1181 688 OFFCURVE",
"1197 689 OFFCURVE",
"1206 690 CURVE",
"1184 693 OFFCURVE",
"1145 682 OFFCURVE",
"1138 681 CURVE SMOOTH",
"915 634 OFFCURVE",
"537 324 OFFCURVE",
"468 257 CURVE SMOOTH",
"467 256 OFFCURVE",
"465 256 OFFCURVE",
"464 256 CURVE",
"510 326 OFFCURVE",
"548 398 OFFCURVE",
"564 426 CURVE SMOOTH",
"565 428 OFFCURVE",
"511 339 OFFCURVE",
"489 307 CURVE SMOOTH",
"424 210 OFFCURVE",
"502 335 OFFCURVE",
"568 445 CURVE",
"601 480 OFFCURVE",
"673 556 OFFCURVE",
"621 583 CURVE",
"620 613 OFFCURVE",
"584 637 OFFCURVE",
"557 629 CURVE SMOOTH",
"543 625 OFFCURVE",
"538 609 OFFCURVE",
"544 596 CURVE",
"477 610 OFFCURVE",
"414 610 OFFCURVE",
"356 597 CURVE",
"410 608 OFFCURVE",
"489 606 OFFCURVE",
"547 590 CURVE",
"544 596 LINE",
"557 593 OFFCURVE",
"570 589 OFFCURVE",
"584 585 CURVE SMOOTH",
"590 583 OFFCURVE",
"592 576 OFFCURVE",
"585 576 CURVE",
"574 582 OFFCURVE",
"561 587 OFFCURVE",
"547 590 CURVE",
"548 589 OFFCURVE",
"549 587 OFFCURVE",
"551 586 CURVE",
"385 631 OFFCURVE",
"272 564 OFFCURVE",
"197 501 CURVE SMOOTH",
"199 503 LINE SMOOTH",
"195 499 OFFCURVE",
"191 496 OFFCURVE",
"195 499 CURVE SMOOTH",
"196 500 LINE SMOOTH",
"185 484 OFFCURVE",
"177 464 OFFCURVE",
"173 443 CURVE SMOOTH",
"158 365 OFFCURVE",
"243 337 OFFCURVE",
"228 391 CURVE",
"240 461 OFFCURVE",
"354 521 OFFCURVE",
"374 529 CURVE SMOOTH",
"427 547 OFFCURVE",
"497 566 OFFCURVE",
"545 561 CURVE",
"514 473 OFFCURVE",
"359 235 OFFCURVE",
"286 143 CURVE SMOOTH",
"221 66 OFFCURVE",
"133 -26 OFFCURVE",
"64 -64 CURVE SMOOTH",
"-20 -111 OFFCURVE",
"-123 -112 OFFCURVE",
"-76 -9 CURVE SMOOTH",
"-55 35 OFFCURVE",
"-14 72 OFFCURVE",
"14 95 CURVE",
"-30 61 OFFCURVE",
"-44 52 OFFCURVE",
"-59 36 CURVE",
"-40 59 OFFCURVE",
"-8 84 OFFCURVE",
"26 105 CURVE",
"51 117 OFFCURVE",
"75 152 OFFCURVE",
"-10 107 CURVE SMOOTH",
"-46 86 OFFCURVE",
"-82 61 OFFCURVE",
"-105 30 CURVE SMOOTH",
"-156 -36 OFFCURVE",
"-131 -149 OFFCURVE",
"-21 -146 CURVE SMOOTH",
"11 -145 OFFCURVE",
"46 -136 OFFCURVE",
"77 -127 CURVE SMOOTH",
"123 -115 OFFCURVE",
"165 -84 OFFCURVE",
"204 -52 CURVE SMOOTH",
"223 -35 OFFCURVE",
"294 30 OFFCURVE",
"310 51 CURVE",
"293 35 OFFCURVE",
"220 -35 OFFCURVE",
"191 -58 CURVE SMOOTH",
"157 -86 OFFCURVE",
"121 -112 OFFCURVE",
"74 -125 CURVE SMOOTH",
"71 -126 OFFCURVE",
"121 -104 OFFCURVE",
"137 -93 CURVE SMOOTH",
"202 -51 OFFCURVE",
"295 36 OFFCURVE",
"384 147 CURVE",
"392 136 OFFCURVE",
"400 126 OFFCURVE",
"409 118 CURVE",
"422 102 OFFCURVE",
"432 92 OFFCURVE",
"442 77 CURVE SMOOTH",
"514 -29 OFFCURVE",
"593 -132 OFFCURVE",
"720 -249 CURVE",
"664 -210 OFFCURVE",
"565 -102 OFFCURVE",
"497 -11 CURVE SMOOTH",
"482 8 OFFCURVE",
"461 38 OFFCURVE",
"448 56 CURVE",
"469 23 OFFCURVE",
"502 -26 OFFCURVE",
"571 -112 CURVE SMOOTH",
"622 -175 OFFCURVE",
"793 -337 OFFCURVE",
"886 -344 CURVE SMOOTH",
"914 -347 OFFCURVE",
"951 -334 OFFCURVE",
"951 -291 CURVE SMOOTH",
"950 -247 OFFCURVE",
"909 -202 OFFCURVE",
"920 -236 CURVE",
"921 -248 OFFCURVE",
"924 -253 OFFCURVE",
"925 -268 CURVE SMOOTH",
"925 -283 OFFCURVE",
"916 -313 OFFCURVE",
"902 -308 CURVE",
"848 -296 OFFCURVE",
"761 -206 OFFCURVE",
"726 -167 CURVE SMOOTH",
"664 -96 OFFCURVE",
"545 70 OFFCURVE",
"487 172 CURVE",
"495 171 OFFCURVE",
"503 174 OFFCURVE",
"512 181 CURVE SMOOTH",
"546 203 OFFCURVE",
"602 287 OFFCURVE",
"661 338 CURVE SMOOTH",
"752 412 LINE",
"735 395 OFFCURVE",
"622 289 OFFCURVE",
"611 276 CURVE",
"636 288 OFFCURVE",
"701 355 OFFCURVE",
"733 385 CURVE SMOOTH",
"829 476 OFFCURVE",
"973 611 OFFCURVE",
"1216 680 CURVE"
);
},
{
closed = 1;
nodes = (
"238 547 OFFCURVE",
"281 576 OFFCURVE",
"331 591 CURVE SMOOTH",
"321 588 LINE SMOOTH",
"282 575 OFFCURVE",
"231 548 OFFCURVE",
"199 503 CURVE",
"201 505 OFFCURVE",
"203 507 OFFCURVE",
"204 509 CURVE"
);
},
{
closed = 1;
nodes = (
"438 73 LINE",
"437 73 OFFCURVE",
"441 66 OFFCURVE",
"448 56 CURVE"
);
},
{
closed = 1;
nodes = (
"331 591 LINE",
"350 596 LINE"
);
},
{
closed = 1;
nodes = (
"352 596 OFFCURVE",
"354 597 OFFCURVE",
"356 597 CURVE",
"354 597 OFFCURVE",
"352 596 OFFCURVE",
"350 596 CURVE"
);
}
);
width = 712;
}
);
note = K.1;
},
{
glyphname = L.ss01;
lastChange = "2021-09-03 20:22:06 +0000";
layers = (
{
hints = (
{
horizontal = 1;
place = "{-158, 46}";
type = Stem;
},
{
horizontal = 1;
place = "{3, 21}";
target = up;
type = BottomGhost;
},
{
place = "{-130, 42}";
type = Stem;
},
{
place = "{-19, 11}";
type = Stem;
},
{
place = "{811, 39}";
type = Stem;
},
{
horizontal = 1;
place = "{-146, 52}";
type = Stem;
}
);
layerId = "B9003040-D3EC-4996-96A5-33D5E21FF9E0";
paths = (
{
closed = 1;
nodes = (
"161 -77 OFFCURVE",
"188 -55 OFFCURVE",
"217 -27 CURVE",
"263 -47 OFFCURVE",
"328 -72 OFFCURVE",
"450 -109 CURVE SMOOTH",
"551 -138 OFFCURVE",
"735 -179 OFFCURVE",
"819 -145 CURVE SMOOTH",
"845 -135 OFFCURVE",
"866 -110 OFFCURVE",
"833 -74 CURVE SMOOTH",
"798 -37 OFFCURVE",
"724 -18 OFFCURVE",
"762 -43 CURVE",
"771 -52 OFFCURVE",
"779 -55 OFFCURVE",
"789 -66 CURVE",
"804 -78 OFFCURVE",
"820 -106 OFFCURVE",
"804 -109 CURVE SMOOTH",
"749 -122 OFFCURVE",
"604 -83 OFFCURVE",
"541 -67 CURVE SMOOTH",
"471 -46 OFFCURVE",
"365 -9 OFFCURVE",
"269 28 CURVE",
"295 59 OFFCURVE",
"319 98 OFFCURVE",
"334 115 CURVE",
"468 202 OFFCURVE",
"767 501 OFFCURVE",
"761 615 CURVE SMOOTH",
"760 631 OFFCURVE",
"734 642 OFFCURVE",
"732 658 CURVE SMOOTH",
"732 660 OFFCURVE",
"731 661 OFFCURVE",
"730 662 CURVE",
"718 683 OFFCURVE",
"683 708 OFFCURVE",
"670 712 CURVE",
"667 712 OFFCURVE",
"464 435 OFFCURVE",
"297 179 CURVE SMOOTH",
"272 141 OFFCURVE",
"232 93 OFFCURVE",
"206 53 CURVE",
"127 86 OFFCURVE",
"63 115 OFFCURVE",
"46 132 CURVE",
"47 148 OFFCURVE",
"25 167 OFFCURVE",
"6 163 CURVE SMOOTH",
"-19 158 OFFCURVE",
"-27 129 OFFCURVE",
"-12 106 CURVE",
"-47 85 OFFCURVE",
"-82 60 OFFCURVE",
"-105 30 CURVE SMOOTH",
"-156 -36 OFFCURVE",
"-131 -149 OFFCURVE",
"-21 -146 CURVE SMOOTH",
"11 -145 OFFCURVE",
"46 -136 OFFCURVE",
"77 -127 CURVE SMOOTH",
"123 -115 OFFCURVE",
"165 -84 OFFCURVE",
"204 -52 CURVE SMOOTH",
"215 -42 OFFCURVE",
"215 -39 OFFCURVE",
"191 -58 CURVE SMOOTH",
"156 -85 OFFCURVE",
"121 -112 OFFCURVE",
"74 -125 CURVE SMOOTH",
"71 -126 OFFCURVE",
"121 -104 OFFCURVE",
"137 -93 CURVE SMOOTH"
);
},
{
closed = 1;
nodes = (
"-59 25 OFFCURVE",
"-31 55 OFFCURVE",
"-6 77 CURVE",
"9 46 OFFCURVE",
"82 22 OFFCURVE",
"127 12 CURVE",
"137 8 OFFCURVE",
"145 6 OFFCURVE",
"154 3 CURVE",
"123 -24 OFFCURVE",
"92 -49 OFFCURVE",
"64 -64 CURVE SMOOTH",
"-20 -111 OFFCURVE",
"-123 -112 OFFCURVE",
"-76 -9 CURVE SMOOTH"
);
},
{
closed = 1;
nodes = (
"707 573 OFFCURVE",
"652 480 OFFCURVE",
"569 383 CURVE SMOOTH",
"530 335 OFFCURVE",
"404 206 OFFCURVE",
"356 166 CURVE",
"363 177 OFFCURVE",
"466 305 OFFCURVE",
"470 309 CURVE",
"555 423 OFFCURVE",
"672 572 OFFCURVE",
"718 629 CURVE"
);
},
{
closed = 1;
nodes = (
"224 -21 LINE",
"345 -69 OFFCURVE",
"415 -97 OFFCURVE",
"601 -137 CURVE",
"523 -129 OFFCURVE",
"435 -104 OFFCURVE",
"306 -58 CURVE SMOOTH",
"219 -25 LINE"
);
},
{
closed = 1;
nodes = (
"-47 51 OFFCURVE",
"-29 67 OFFCURVE",
"-8 82 CURVE",
"-8 81 OFFCURVE",
"-7 80 OFFCURVE",
"-7 79 CURVE",
"-35 58 OFFCURVE",
"-47 49 OFFCURVE",
"-59 36 CURVE"
);
}
);
width = 544;
}
);
note = L.1;
},
{
color = 11;
glyphname = Lslash.ss01;
lastChange = "2021-09-05 08:50:19 +0000";
layers = (
{
hints = (
{
horizontal = 1;
place = "{-18, 21}";
target = up;
type = BottomGhost;
},
{
horizontal = 1;
place = "{51, 73}";
type = Stem;
},
{
horizontal = 1;
place = "{405, -20}";
target = down;
type = TopGhost;
},
{
horizontal = 1;
place = "{643, -20}";
target = down;
type = TopGhost;
},
{
place = "{475, 63}";
type = Stem;
},
{
horizontal = 1;
place = "{-18, 142}";
type = Stem;
},
{
place = "{472, 115}";
type = Stem;
}
);
layerId = "B9003040-D3EC-4996-96A5-33D5E21FF9E0";
paths = (
{
closed = 1;
nodes = (
"353 261 OFFCURVE",
"333 258 OFFCURVE",
"313 256 CURVE",
"353 302 OFFCURVE",
"441 409 OFFCURVE",
"493 463 CURVE SMOOTH",
"545 518 OFFCURVE",
"587 556 OFFCURVE",
"587 577 CURVE SMOOTH",
"587 598 OFFCURVE",
"541 628 OFFCURVE",
"518 639 CURVE",
"459 656 OFFCURVE",
"471 611 OFFCURVE",
"477 592 CURVE",
"390 483 OFFCURVE",
"291 360 OFFCURVE",
"203 249 CURVE",
"185 249 OFFCURVE",
"167 249 OFFCURVE",
"150 251 CURVE",
"135 262 OFFCURVE",
"131 259 OFFCURVE",
"105 259 CURVE SMOOTH",
"38 259 OFFCURVE",
"62 194 OFFCURVE",
"77 191 CURVE",
"91 192 OFFCURVE",
"120 191 OFFCURVE",
"159 192 CURVE",
"157 190 LINE SMOOTH",
"122 145 OFFCURVE",
"90 105 OFFCURVE",
"62 61 CURVE",
"56 56 OFFCURVE",
"60 41 OFFCURVE",
"60 32 CURVE",
"62 33 OFFCURVE",
"64 33 OFFCURVE",
"66 33 CURVE",
"65 26 OFFCURVE",
"66 20 OFFCURVE",
"70 16 CURVE SMOOTH",
"78 7 OFFCURVE",
"85 -19 OFFCURVE",
"114 -9 CURVE SMOOTH",
"119 -7 OFFCURVE",
"232 23 OFFCURVE",
"259 29 CURVE SMOOTH",
"262 30 OFFCURVE",
"256 30 OFFCURVE",
"249 29 CURVE SMOOTH",
"225 24 OFFCURVE",
"167 10 OFFCURVE",
"144 4 CURVE",
"192 21 OFFCURVE",
"281 40 OFFCURVE",
"337 47 CURVE SMOOTH",
"440 58 OFFCURVE",
"497 54 OFFCURVE",
"467 0 CURVE SMOOTH",
"446 -37 OFFCURVE",
"490 -6 OFFCURVE",
"499 2 CURVE SMOOTH",
"537 38 OFFCURVE",
"564 86 OFFCURVE",
"500 109 CURVE SMOOTH",
"479 117 OFFCURVE",
"457 122 OFFCURVE",
"433 124 CURVE",
"463 122 OFFCURVE",
"491 117 OFFCURVE",
"515 107 CURVE",
"498 123 OFFCURVE",
"437 130 OFFCURVE",
"409 129 CURVE SMOOTH",
"363 128 OFFCURVE",
"196 105 OFFCURVE",
"168 92 CURVE",
"167 91 OFFCURVE",
"165 91 OFFCURVE",
"164 91 CURVE",
"187 122 OFFCURVE",
"218 160 OFFCURVE",
"255 201 CURVE",
"287 206 OFFCURVE",
"321 214 OFFCURVE",
"355 226 CURVE SMOOTH",
"382 236 OFFCURVE",
"405 272 OFFCURVE",
"373 265 CURVE SMOOTH"
);
},
{
closed = 1;
nodes = (
"303 254 LINE",
"334 290 OFFCURVE",
"406 386 OFFCURVE",
"418 399 CURVE SMOOTH",
"448 432 OFFCURVE",
"376 335 OFFCURVE",
"362 319 CURVE SMOOTH",
"308 255 LINE"
);
},
{
closed = 1;
nodes = (
"384 126 OFFCURVE",
"336 121 OFFCURVE",
"305 115 CURVE SMOOTH",
"275 108 OFFCURVE",
"207 99 OFFCURVE",
"178 94 CURVE",
"219 103 OFFCURVE",
"300 116 OFFCURVE",
"320 119 CURVE SMOOTH",
"365 124 OFFCURVE",
"400 126 OFFCURVE",
"431 124 CURVE"
);
},
{
closed = 1;
nodes = (
"171 93 OFFCURVE",
"169 92 OFFCURVE",
"168 92 CURVE SMOOTH",
"170 92 OFFCURVE",
"171 92 OFFCURVE",
"173 93 CURVE"
);
}
);
width = 544;
}
);
note = Lslash;
},
{
glyphname = M.ss01;
lastChange = "2021-09-03 20:22:06 +0000";
layers = (
{
hints = (
{
horizontal = 1;
place = "{-10, 21}";
target = up;
type = BottomGhost;
},
{
horizontal = 1;
place = "{425, 96}";
type = Stem;
},
{
horizontal = 1;
place = "{586, 68}";
type = Stem;
},
{
place = "{727, 64}";
type = Stem;
},
{
place = "{1239, 42}";
type = Stem;
},
{
horizontal = 1;
place = "{582, 72}";
type = Stem;
},
{
place = "{1281, 93}";
type = Stem;
}
);
layerId = "B9003040-D3EC-4996-96A5-33D5E21FF9E0";
paths = (
{
closed = 1;
nodes = (
"1470 419 OFFCURVE",
"1402 484 OFFCURVE",
"1388 483 CURVE SMOOTH",
"1363 480 OFFCURVE",
"1181 294 OFFCURVE",
"1169 283 CURVE",
"1201 331 OFFCURVE",
"1273 433 OFFCURVE",
"1298 474 CURVE",
"1298 495 OFFCURVE",
"1248 531 OFFCURVE",
"1228 531 CURVE",
"1169 485 OFFCURVE",
"1012 354 OFFCURVE",
"920 273 CURVE",
"999 382 OFFCURVE",
"1095 495 OFFCURVE",
"1162 566 CURVE",
"1166 576 OFFCURVE",
"1162 586 OFFCURVE",
"1154 595 CURVE",
"1085 737 OFFCURVE",
"604 582 OFFCURVE",
"490 560 CURVE SMOOTH",
"396 541 OFFCURVE",
"82 494 OFFCURVE",
"43 539 CURVE SMOOTH",
"40 542 OFFCURVE",
"16 559 OFFCURVE",
"16 544 CURVE SMOOTH",
"16 514 OFFCURVE",
"51 425 OFFCURVE",
"102 425 CURVE SMOOTH",
"147 425 OFFCURVE",
"198 438 OFFCURVE",
"253 454 CURVE",
"135 430 OFFCURVE",
"123 427 OFFCURVE",
"269 464 CURVE SMOOTH",
"335 481 OFFCURVE",
"403 489 OFFCURVE",
"473 505 CURVE SMOOTH",
"557 524 OFFCURVE",
"772 568 OFFCURVE",
"860 581 CURVE SMOOTH",
"894 586 OFFCURVE",
"996 595 OFFCURVE",
"1054 568 CURVE",
"1053 568 OFFCURVE",
"1053 567 OFFCURVE",
"1053 567 CURVE",
"1021 581 OFFCURVE",
"988 585 OFFCURVE",
"954 585 CURVE SMOOTH",
"906 585 OFFCURVE",
"807 572 OFFCURVE",
"750 558 CURVE",
"767 560 OFFCURVE",
"818 568 OFFCURVE",
"844 572 CURVE SMOOTH",
"861 575 OFFCURVE",
"939 585 OFFCURVE",
"985 582 CURVE SMOOTH",
"1015 580 OFFCURVE",
"1037 572 OFFCURVE",
"1052 565 CURVE",
"981 471 OFFCURVE",
"744 162 OFFCURVE",
"727 81 CURVE SMOOTH",
"721 54 OFFCURVE",
"749 -5 OFFCURVE",
"801 -10 CURVE",
"818 -10 OFFCURVE",
"812 0 OFFCURVE",
"801 10 CURVE SMOOTH",
"773 36 OFFCURVE",
"812 117 OFFCURVE",
"834 140 CURVE SMOOTH",
"856 162 OFFCURVE",
"894 194 OFFCURVE",
"965 260 CURVE",
"968 265 OFFCURVE",
"842 158 OFFCURVE",
"845 164 CURVE",
"938 255 OFFCURVE",
"1205 473 OFFCURVE",
"1207 475 CURVE",
"1178 435 OFFCURVE",
"1039 210 OFFCURVE",
"1039 162 CURVE SMOOTH",
"1039 138 OFFCURVE",
"1054 105 OFFCURVE",
"1079 103 CURVE",
"1105 168 OFFCURVE",
"1310 359 OFFCURVE",
"1358 405 CURVE",
"1345 380 OFFCURVE",
"1212 42 OFFCURVE",
"1243 -55 CURVE SMOOTH",
"1250 -75 LINE",
"1252 -108 OFFCURVE",
"1257 -139 OFFCURVE",
"1303 -148 CURVE",
"1386 -139 OFFCURVE",
"1401 -99 OFFCURVE",
"1320 -85 CURVE",
"1320 -83 OFFCURVE",
"1298 -77 OFFCURVE",
"1278 -74 CURVE",
"1281 -48 LINE",
"1282 -64 OFFCURVE",
"1285 -45 OFFCURVE",
"1294 1 CURVE SMOOTH",
"1308 82 OFFCURVE",
"1403 305 OFFCURVE",
"1423 340 CURVE SMOOTH",
"1431 354 OFFCURVE",
"1433 365 OFFCURVE",
"1429 358 CURVE SMOOTH",
"1404 317 OFFCURVE",
"1362 230 OFFCURVE",
"1329 146 CURVE",
"1358 232 OFFCURVE",
"1401 327 OFFCURVE",
"1461 406 CURVE SMOOTH"
);
},
{
closed = 1;
nodes = (
"1303 79 OFFCURVE",
"1283 14 OFFCURVE",
"1282 -27 CURVE SMOOTH",
"1281 -35 OFFCURVE",
"1281 -42 OFFCURVE",
"1281 -46 CURVE",
"1289 1 OFFCURVE",
"1304 70 OFFCURVE",
"1329 146 CURVE"
);
}
);
width = 1388;
}
);
note = M.1;
},
{
glyphname = N.ss01;
lastChange = "2021-09-03 20:22:06 +0000";
layers = (
{
hints = (
{
horizontal = 1;
place = "{-1, 21}";
target = up;
type = BottomGhost;
},
{
horizontal = 1;
place = "{425, 96}";
type = Stem;
},
{
horizontal = 1;
place = "{587, 67}";
type = Stem;
},
{
place = "{685, 123}";
type = Stem;
},
{
place = "{1030, 59}";
type = Stem;
},
{
horizontal = 1;
place = "{491, 56}";
type = Stem;
},
{
horizontal = 1;
place = "{582, 72}";
type = Stem;
}
);
layerId = "B9003040-D3EC-4996-96A5-33D5E21FF9E0";
paths = (
{
closed = 1;
nodes = (
"1331 514 OFFCURVE",
"1283 548 OFFCURVE",
"1263 547 CURVE",
"1178 507 OFFCURVE",
"1003 347 OFFCURVE",
"906 263 CURVE",
"893 247 OFFCURVE",
"878 232 OFFCURVE",
"864 216 CURVE",
"967 347 OFFCURVE",
"1123 526 OFFCURVE",
"1162 566 CURVE",
"1146 757 OFFCURVE",
"611 584 OFFCURVE",
"490 560 CURVE SMOOTH",
"396 541 OFFCURVE",
"82 494 OFFCURVE",
"43 539 CURVE SMOOTH",
"40 542 OFFCURVE",
"16 559 OFFCURVE",
"16 544 CURVE SMOOTH",
"16 514 OFFCURVE",
"51 425 OFFCURVE",
"102 425 CURVE SMOOTH",
"147 425 OFFCURVE",
"198 438 OFFCURVE",
"253 454 CURVE",
"135 430 OFFCURVE",
"123 427 OFFCURVE",
"269 464 CURVE SMOOTH",
"335 481 OFFCURVE",
"403 489 OFFCURVE",
"473 505 CURVE SMOOTH",
"557 524 OFFCURVE",
"772 568 OFFCURVE",
"860 581 CURVE SMOOTH",
"894 586 OFFCURVE",
"996 596 OFFCURVE",
"1054 568 CURVE",
"1053 567 LINE",
"1021 581 OFFCURVE",
"988 585 OFFCURVE",
"954 585 CURVE SMOOTH",
"906 585 OFFCURVE",
"807 572 OFFCURVE",
"750 558 CURVE",
"767 560 OFFCURVE",
"818 568 OFFCURVE",
"844 572 CURVE SMOOTH",
"861 575 OFFCURVE",
"939 585 OFFCURVE",
"985 582 CURVE SMOOTH",
"1015 580 OFFCURVE",
"1037 573 OFFCURVE",
"1052 566 CURVE",
"966 457 OFFCURVE",
"726 155 OFFCURVE",
"698 79 CURVE SMOOTH",
"688 52 OFFCURVE",
"667 -3 OFFCURVE",
"715 -1 CURVE",
"799 11 OFFCURVE",
"847 58 OFFCURVE",
"767 70 CURVE",
"806 126 OFFCURVE",
"827 143 OFFCURVE",
"899 215 CURVE",
"893 214 OFFCURVE",
"835 153 OFFCURVE",
"824 151 CURVE",
"889 228 OFFCURVE",
"1203 488 OFFCURVE",
"1238 491 CURVE",
"1215 461 OFFCURVE",
"1113 306 OFFCURVE",
"1061 189 CURVE",
"1063 197 OFFCURVE",
"1083 245 OFFCURVE",
"1082 244 CURVE",
"1050 193 OFFCURVE",
"976 -11 OFFCURVE",
"1095 -22 CURVE SMOOTH",
"1111 -24 OFFCURVE",
"1114 -19 OFFCURVE",
"1104 -12 CURVE SMOOTH",
"1065 15 OFFCURVE",
"1106 149 OFFCURVE",
"1176 265 CURVE SMOOTH",
"1235 363 OFFCURVE",
"1307 460 OFFCURVE",
"1329 493 CURVE"
);
}
);
width = 1188;
}
);
note = N.1;
},
{
glyphname = O.ss01;
lastChange = "2021-09-03 20:22:06 +0000";
layers = (
{
hints = (
{
horizontal = 1;
place = "{-8, 21}";
target = up;
type = BottomGhost;
},
{
horizontal = 1;
place = "{381, 57}";
type = Stem;
},
{
horizontal = 1;
place = "{648, 14}";
type = Stem;
},
{
place = "{51, 84}";
type = Stem;
},
{
place = "{834, 12}";
type = Stem;
},
{
place = "{863, 36}";
type = Stem;
},
{
horizontal = 1;
place = "{-24, 87}";
type = Stem;
},
{
place = "{144, 144}";
type = Stem;
},
{
horizontal = 1;
place = "{579, 63}";
type = Stem;
}
);
layerId = "B9003040-D3EC-4996-96A5-33D5E21FF9E0";
paths = (
{
closed = 1;
nodes = (
"896 584 OFFCURVE",
"866 613 OFFCURVE",
"863 608 CURVE SMOOTH",
"860 601 OFFCURVE",
"861 595 OFFCURVE",
"857 586 CURVE SMOOTH",
"853 577 OFFCURVE",
"846 566 OFFCURVE",
"840 562 CURVE",
"847 575 OFFCURVE",
"855 607 OFFCURVE",
"825 653 CURVE",
"747 679 OFFCURVE",
"578 645 OFFCURVE",
"431 575 CURVE SMOOTH",
"385 554 OFFCURVE",
"318 522 OFFCURVE",
"274 497 CURVE SMOOTH",
"265 492 OFFCURVE",
"274 492 OFFCURVE",
"283 497 CURVE SMOOTH",
"306 510 OFFCURVE",
"332 523 OFFCURVE",
"358 535 CURVE",
"327 518 OFFCURVE",
"298 500 OFFCURVE",
"271 481 CURVE",
"183 502 OFFCURVE",
"118 521 OFFCURVE",
"114 515 CURVE SMOOTH",
"98 490 OFFCURVE",
"144 463 OFFCURVE",
"219 440 CURVE",
"178 404 OFFCURVE",
"141 361 OFFCURVE",
"107 306 CURVE SMOOTH",
"44 205 OFFCURVE",
"18 85 OFFCURVE",
"116 33 CURVE SMOOTH",
"132 25 OFFCURVE",
"150 19 OFFCURVE",
"172 14 CURVE",
"67 -20 OFFCURVE",
"286 -39 OFFCURVE",
"288 -8 CURVE",
"313 -1 OFFCURVE",
"342 10 OFFCURVE",
"374 25 CURVE SMOOTH",
"531 97 OFFCURVE",
"752 248 OFFCURVE",
"824 358 CURVE SMOOTH",
"841 385 OFFCURVE",
"858 417 OFFCURVE",
"869 444 CURVE",
"892 475 OFFCURVE",
"906 527 OFFCURVE",
"899 566 CURVE SMOOTH"
);
},
{
closed = 1;
nodes = (
"497 141 OFFCURVE",
"415 98 OFFCURVE",
"323 78 CURVE",
"318 78 OFFCURVE",
"380 96 OFFCURVE",
"399 105 CURVE SMOOTH",
"413 112 OFFCURVE",
"434 120 OFFCURVE",
"459 132 CURVE SMOOTH",
"146 -6 OFFCURVE",
"97 84 OFFCURVE",
"158 214 CURVE SMOOTH",
"196 295 OFFCURVE",
"256 361 OFFCURVE",
"326 413 CURVE",
"494 378 OFFCURVE",
"714 364 OFFCURVE",
"804 406 CURVE",
"748 320 OFFCURVE",
"622 215 OFFCURVE",
"580 190 CURVE",
"638 227 OFFCURVE",
"769 358 OFFCURVE",
"789 388 CURVE",
"592 181 OFFCURVE",
"504 156 OFFCURVE",
"481 143 CURVE SMOOTH",
"459 132 LINE",
"494 148 OFFCURVE",
"533 166 OFFCURVE",
"575 188 CURVE"
);
},
{
closed = 1;
nodes = (
"486 441 OFFCURVE",
"438 447 OFFCURVE",
"392 456 CURVE",
"511 526 OFFCURVE",
"646 564 OFFCURVE",
"751 579 CURVE SMOOTH",
"811 587 OFFCURVE",
"861 560 OFFCURVE",
"818 492 CURVE SMOOTH",
"811 480 OFFCURVE",
"676 429 OFFCURVE",
"533 438 CURVE SMOOTH"
);
},
{
closed = 1;
nodes = (
"670 642 OFFCURVE",
"498 597 OFFCURVE",
"369 537 CURVE",
"394 551 OFFCURVE",
"427 567 OFFCURVE",
"453 579 CURVE SMOOTH",
"570 630 OFFCURVE",
"700 644 OFFCURVE",
"758 648 CURVE SMOOTH",
"773 649 OFFCURVE",
"792 642 OFFCURVE",
"764 642 CURVE SMOOTH"
);
},
{
closed = 1;
nodes = (
"576 189 OFFCURVE",
"578 189 OFFCURVE",
"580 190 CURVE",
"578 189 OFFCURVE",
"576 188 OFFCURVE",
"575 188 CURVE"
);
}
);
width = 701;
}
);
note = O.1;
},
{
glyphname = OE.ss01;
lastChange = "2021-09-05 08:52:01 +0000";
layers = (
{
hints = (
{
horizontal = 1;
place = "{-33, 38}";
type = Stem;
},
{
horizontal = 1;
place = "{-33, 44}";
type = Stem;
},
{
horizontal = 1;
place = "{549, 81}";
type = Stem;
},
{
place = "{44, 111}";
type = Stem;
},
{
place = "{601, 84}";
type = Stem;
},
{
horizontal = 1;
place = "{-8, 21}";
target = up;
type = BottomGhost;
},
{
horizontal = 1;
place = "{381, 57}";
type = Stem;
},
{
horizontal = 1;
place = "{648, 14}";
type = Stem;
},
{
place = "{51, 84}";
type = Stem;
},
{
place = "{834, 12}";
type = Stem;
},
{
place = "{863, 36}";
type = Stem;
},
{
horizontal = 1;
place = "{-24, 87}";
type = Stem;
},
{
place = "{144, 144}";
type = Stem;
},
{
horizontal = 1;
place = "{579, 63}";
type = Stem;
},
{
horizontal = 1;
place = "{254, 11}";
type = Stem;
},
{
horizontal = 1;
place = "{599, 25}";
type = Stem;
},
{
horizontal = 1;
place = "{607, 17}";
type = Stem;
},
{
place = "{1314, 936}";
type = Stem;
}
);
layerId = "B9003040-D3EC-4996-96A5-33D5E21FF9E0";
paths = (
{
closed = 1;
nodes = (
"1277 569 OFFCURVE",
"1209 588 OFFCURVE",
"1145 593 CURVE",
"1142 617 OFFCURVE",
"1084 621 OFFCURVE",
"1070 621 CURVE SMOOTH",
"1061 621 OFFCURVE",
"1050 619 OFFCURVE",
"1026 601 CURVE SMOOTH",
"979 567 OFFCURVE",
"997 580 OFFCURVE",
"1035 603 CURVE",
"984 567 OFFCURVE",
"937 530 OFFCURVE",
"891 489 CURVE",
"900 514 OFFCURVE",
"903 543 OFFCURVE",
"899 566 CURVE SMOOTH",
"896 584 OFFCURVE",
"866 613 OFFCURVE",
"863 608 CURVE SMOOTH",
"860 601 OFFCURVE",
"861 595 OFFCURVE",
"857 586 CURVE SMOOTH",
"853 577 OFFCURVE",
"846 566 OFFCURVE",
"840 562 CURVE",
"847 575 OFFCURVE",
"855 607 OFFCURVE",
"825 653 CURVE",
"747 679 OFFCURVE",
"578 645 OFFCURVE",
"431 575 CURVE SMOOTH",
"385 554 OFFCURVE",
"318 522 OFFCURVE",
"274 497 CURVE SMOOTH",
"265 492 OFFCURVE",
"274 492 OFFCURVE",
"283 497 CURVE SMOOTH",
"306 510 OFFCURVE",
"332 523 OFFCURVE",
"358 535 CURVE",
"327 518 OFFCURVE",
"298 500 OFFCURVE",
"271 481 CURVE",
"183 502 OFFCURVE",
"118 521 OFFCURVE",
"114 515 CURVE SMOOTH",
"98 490 OFFCURVE",
"144 463 OFFCURVE",
"219 440 CURVE",
"178 404 OFFCURVE",
"141 361 OFFCURVE",
"107 306 CURVE SMOOTH",
"44 205 OFFCURVE",
"18 85 OFFCURVE",
"116 33 CURVE SMOOTH",
"132 25 OFFCURVE",
"150 19 OFFCURVE",
"172 14 CURVE",
"67 -20 OFFCURVE",
"286 -39 OFFCURVE",
"288 -8 CURVE",
"313 -1 OFFCURVE",
"342 10 OFFCURVE",
"374 25 CURVE SMOOTH",
"448 59 OFFCURVE",
"537 111 OFFCURVE",
"617 167 CURVE",
"597 133 OFFCURVE",
"583 97 OFFCURVE",
"583 69 CURVE SMOOTH",
"583 63 OFFCURVE",
"583 57 OFFCURVE",
"584 52 CURVE",
"553 45 OFFCURVE",
"515 35 OFFCURVE",
"502 30 CURVE",
"485 20 OFFCURVE",
"503 -33 OFFCURVE",
"540 -24 CURVE SMOOTH",
"626 -2 LINE",
"634 -7 OFFCURVE",
"643 -9 OFFCURVE",
"651 -10 CURVE",
"689 -10 OFFCURVE",
"684 -3 OFFCURVE",
"674 9 CURVE",
"728 22 LINE SMOOTH",
"731 23 OFFCURVE",
"725 24 OFFCURVE",
"718 22 CURVE SMOOTH",
"672 12 LINE",
"672 13 OFFCURVE",
"671 13 OFFCURVE",
"670 14 CURVE",
"718 27 OFFCURVE",
"775 41 OFFCURVE",
"824 47 CURVE SMOOTH",
"951 61 OFFCURVE",
"990 45 OFFCURVE",
"960 -9 CURVE SMOOTH",
"939 -46 OFFCURVE",
"971 -20 OFFCURVE",
"980 -12 CURVE SMOOTH",
"1018 24 OFFCURVE",
"1052 65 OFFCURVE",
"988 88 CURVE SMOOTH",
"970 95 OFFCURVE",
"950 99 OFFCURVE",
"929 102 CURVE SMOOTH",
"921 103 LINE SMOOTH",
"920 103 OFFCURVE",
"923 102 OFFCURVE",
"924 102 CURVE SMOOTH",
"836 107 OFFCURVE",
"724 86 OFFCURVE",
"660 71 CURVE",
"666 106 OFFCURVE",
"687 169 OFFCURVE",
"761 254 CURVE",
"771 255 OFFCURVE",
"917 266 OFFCURVE",
"958 268 CURVE",
"938 257 OFFCURVE",
"995 267 OFFCURVE",
"1023 284 CURVE SMOOTH",
"1029 288 OFFCURVE",
"1016 311 OFFCURVE",
"1005 311 CURVE SMOOTH",
"1002 311 OFFCURVE",
"993 320 OFFCURVE",
"986 319 CURVE SMOOTH",
"914 304 OFFCURVE",
"839 298 OFFCURVE",
"791 290 CURVE",
"853 360 OFFCURVE",
"1002 478 OFFCURVE",
"1092 543 CURVE",
"1141 547 OFFCURVE",
"1257 530 OFFCURVE",
"1305 522 CURVE SMOOTH",
"1328 518 OFFCURVE",
"1332 537 OFFCURVE",
"1306 552 CURVE SMOOTH"
);
},
{
closed = 1;
nodes = (
"570 630 OFFCURVE",
"700 644 OFFCURVE",
"758 648 CURVE SMOOTH",
"773 649 OFFCURVE",
"792 642 OFFCURVE",
"764 642 CURVE SMOOTH",
"670 642 OFFCURVE",
"498 597 OFFCURVE",
"369 537 CURVE",
"394 551 OFFCURVE",
"427 567 OFFCURVE",
"453 579 CURVE SMOOTH"
);
},
{
closed = 1;
nodes = (
"811 480 OFFCURVE",
"676 429 OFFCURVE",
"533 438 CURVE SMOOTH",
"486 441 OFFCURVE",
"438 447 OFFCURVE",
"392 456 CURVE",
"511 526 OFFCURVE",
"646 564 OFFCURVE",
"751 579 CURVE SMOOTH",
"811 587 OFFCURVE",
"861 560 OFFCURVE",
"818 492 CURVE SMOOTH"
);
},
{
closed = 1;
nodes = (
"497 141 OFFCURVE",
"415 98 OFFCURVE",
"323 78 CURVE",
"318 78 OFFCURVE",
"380 96 OFFCURVE",
"399 105 CURVE SMOOTH",
"413 112 OFFCURVE",
"434 120 OFFCURVE",
"459 132 CURVE SMOOTH",
"146 -6 OFFCURVE",
"97 84 OFFCURVE",
"158 214 CURVE SMOOTH",
"196 295 OFFCURVE",
"256 361 OFFCURVE",
"326 413 CURVE",
"494 378 OFFCURVE",
"714 364 OFFCURVE",
"804 406 CURVE",
"792 388 LINE",
"772 367 OFFCURVE",
"752 343 OFFCURVE",
"732 319 CURVE",
"675 260 OFFCURVE",
"608 207 OFFCURVE",
"580 190 CURVE SMOOTH",
"578 189 OFFCURVE",
"576 188 OFFCURVE",
"575 188 CURVE"
);
},
{
closed = 1;
nodes = (
"592 181 OFFCURVE",
"505 155 OFFCURVE",
"481 143 CURVE SMOOTH",
"459 132 LINE",
"494 148 OFFCURVE",
"533 166 OFFCURVE",
"575 188 CURVE",
"576 189 OFFCURVE",
"578 189 OFFCURVE",
"580 190 CURVE SMOOTH",
"638 227 OFFCURVE",
"769 358 OFFCURVE",
"789 388 CURVE"
);
},
{
closed = 1;
nodes = (
"964 98 OFFCURVE",
"980 94 OFFCURVE",
"995 89 CURVE",
"981 94 OFFCURVE",
"965 98 OFFCURVE",
"947 100 CURVE"
);
},
{
closed = 1;
nodes = (
"623 0 LINE",
"613 -3 LINE",
"622 0 LINE"
);
}
);
width = 1065;
}
);
note = OE;
},
{
glyphname = P.ss01;
lastChange = "2021-09-03 20:22:06 +0000";
layers = (
{
hints = (
{
horizontal = 1;
place = "{425, 96}";
type = Stem;
},
{
horizontal = 1;
place = "{587, 67}";
type = Stem;
},
{
place = "{1110, 39}";
type = Stem;
},
{
horizontal = 1;
place = "{651, -20}";
target = down;
type = TopGhost;
},
{
horizontal = 1;
place = "{582, 72}";
type = Stem;
},
{
place = "{447, 103}";
type = Stem;
}
);
layerId = "B9003040-D3EC-4996-96A5-33D5E21FF9E0";
paths = (
{
closed = 1;
nodes = (
"1119 595 OFFCURVE",
"1058 641 OFFCURVE",
"985 651 CURVE SMOOTH",
"824 673 OFFCURVE",
"569 577 OFFCURVE",
"486 560 CURVE SMOOTH",
"392 541 OFFCURVE",
"78 494 OFFCURVE",
"39 539 CURVE SMOOTH",
"36 542 OFFCURVE",
"12 559 OFFCURVE",
"12 544 CURVE SMOOTH",
"12 514 OFFCURVE",
"47 425 OFFCURVE",
"98 425 CURVE SMOOTH",
"143 425 OFFCURVE",
"194 438 OFFCURVE",
"249 454 CURVE",
"131 430 OFFCURVE",
"119 427 OFFCURVE",
"265 464 CURVE SMOOTH",
"331 481 OFFCURVE",
"399 489 OFFCURVE",
"469 505 CURVE SMOOTH",
"553 524 OFFCURVE",
"768 568 OFFCURVE",
"856 581 CURVE SMOOTH",
"896 587 OFFCURVE",
"1029 600 OFFCURVE",
"1076 556 CURVE",
"1037 582 OFFCURVE",
"993 585 OFFCURVE",
"950 585 CURVE SMOOTH",
"902 585 OFFCURVE",
"803 572 OFFCURVE",
"746 558 CURVE",
"763 560 OFFCURVE",
"814 568 OFFCURVE",
"840 572 CURVE SMOOTH",
"857 575 OFFCURVE",
"935 585 OFFCURVE",
"981 582 CURVE SMOOTH",
"1032 579 OFFCURVE",
"1062 563 OFFCURVE",
"1073 556 CURVE SMOOTH",
"1096 540 OFFCURVE",
"1110 520 OFFCURVE",
"1110 497 CURVE SMOOTH",
"1110 396 OFFCURVE",
"882 279 OFFCURVE",
"732 247 CURVE SMOOTH",
"729 246 OFFCURVE",
"727 244 OFFCURVE",
"725 243 CURVE SMOOTH",
"720 240 OFFCURVE",
"718 238 OFFCURVE",
"718 234 CURVE",
"721 229 OFFCURVE",
"723 225 OFFCURVE",
"744 225 CURVE SMOOTH",
"783 225 OFFCURVE",
"836 232 OFFCURVE",
"892 246 CURVE SMOOTH",
"877 242 OFFCURVE",
"861 240 OFFCURVE",
"846 238 CURVE",
"848 239 LINE",
"870 245 OFFCURVE",
"957 270 OFFCURVE",
"996 285 CURVE SMOOTH",
"1002 287 OFFCURVE",
"1042 301 OFFCURVE",
"1085 339 CURVE SMOOTH",
"1093 346 LINE SMOOTH",
"1050 304 OFFCURVE",
"983 272 OFFCURVE",
"916 252 CURVE SMOOTH",
"940 259 OFFCURVE",
"962 264 OFFCURVE",
"975 270 CURVE SMOOTH",
"1031 297 OFFCURVE",
"1063 309 OFFCURVE",
"1094 340 CURVE SMOOTH",
"1110 355 OFFCURVE",
"1128 372 OFFCURVE",
"1140 410 CURVE",
"1123 377 OFFCURVE",
"1109 361 OFFCURVE",
"1095 348 CURVE",
"1120 373 OFFCURVE",
"1137 401 OFFCURVE",
"1142 433 CURVE SMOOTH",
"1144 448 OFFCURVE",
"1162 504 OFFCURVE",
"1129 519 CURVE"
);
},
{
closed = 1;
nodes = (
"813 527 OFFCURVE",
"477 76 OFFCURVE",
"452 -5 CURVE SMOOTH",
"444 -32 OFFCURVE",
"440 -88 OFFCURVE",
"487 -95 CURVE SMOOTH",
"576 -108 OFFCURVE",
"557 -91 OFFCURVE",
"517 -76 CURVE",
"495 -33 OFFCURVE",
"665 209 OFFCURVE",
"721 282 CURVE SMOOTH",
"811 399 OFFCURVE",
"900 499 OFFCURVE",
"912 514 CURVE SMOOTH",
"924 529 OFFCURVE",
"849 575 OFFCURVE",
"831 551 CURVE SMOOTH"
);
},
{
closed = 1;
nodes = (
"904 249 LINE",
"916 252 LINE"
);
},
{
closed = 1;
nodes = (
"892 246 LINE",
"904 249 LINE"
);
}
);
width = 1026;
}
);
note = P.1;
},
